<svg width="1394" height="1394" viewBox="0 0 1394 1394" fill="none" xmlns="http://www.w3.org/2000/svg">
<circle cx="697" cy="697" r="697" fill="#E0FAFF"/>
<mask id="mask0_2658_20420" style="mask-type:alpha" maskUnits="userSpaceOnUse" x="0" y="0" width="1394" height="1394">
<circle cx="697" cy="697" r="697" fill="#48DB8F"/>
</mask>
<g mask="url(#mask0_2658_20420)">
<path d="M29.3892 1499.35C60.0277 1195.05 313.489 1217.08 512.552 1166.76C599.268 1144.84 729.5 1325.04 880.84 1158.98C947.993 1197.65 1135.37 1192.67 1236.57 1231C1342.83 1271.26 1410.99 1517.48 1431.78 1635.56L673.552 1834.98C456.202 1800.76 10.0836 1691.09 29.3892 1499.35Z" fill="#80804A" stroke="black" stroke-width="16" stroke-linecap="round"/>
<path d="M844.585 1102.64C846.501 1129.46 859.815 1147.16 880.782 1159.24C729.56 1325.21 572.44 1233.57 512.782 1167.01C534.672 1155.12 558.5 1155.5 555 1022C632.836 1015.29 794.771 1063.62 841.042 987.98C840.835 1021.75 841.609 1060.96 844.585 1102.64Z" fill="#F1C9B0" stroke="black" stroke-width="16" stroke-linecap="round"/>
<path d="M541.5 984.5C528.678 853.706 844.782 879.501 844.782 897.611C844.782 909.02 845.135 968.99 844.782 1026.5C798.368 1102.16 631.077 1131.29 553 1138C576 1054 553 1000 541.5 984.5Z" fill="#997661"/>
<path d="M348.833 780.765C327.433 748.914 339.916 695.746 348.833 673.144C355.65 649.255 378.216 643.283 388.647 643.283L457.077 731.62C466.408 766.872 475.242 837.127 435.926 836.132C386.78 834.887 375.583 820.579 348.833 780.765Z" fill="#F1C9B0" stroke="black" stroke-width="16"/>
<path d="M368.118 705.492C377.864 705.907 397.481 711.34 397.979 729.754C398.601 752.771 379.316 768.946 402.955 788.853" stroke="black" stroke-width="16" stroke-linecap="round"/>
<path d="M1029.29 782.632C1050.69 750.781 1038.2 697.612 1029.29 675.01C1022.47 651.121 999.904 645.149 989.474 645.149L921.043 733.486C911.712 768.738 902.878 838.993 942.195 837.998C991.34 836.754 1002.54 822.446 1029.29 782.632Z" fill="#F1C9B0" stroke="black" stroke-width="16"/>
<path d="M1011.36 708.603C1001.62 709.018 981.999 714.45 981.501 732.864C980.879 755.882 1000.16 772.056 976.524 791.963" stroke="black" stroke-width="16" stroke-linecap="round"/>
<path d="M447.124 874.079C438.663 832.274 425.351 727.265 419.752 679.986C405.541 569.254 405.444 420.574 432.816 357.743C460.188 294.911 583.362 272.516 732.042 272.516C850.986 272.516 954.336 389.055 969.059 438.615L969.186 441.945C971.039 490.66 973.438 553.709 969.059 602.847C963.46 665.678 944.798 836.131 937.955 874.079C931.112 912.027 918.626 952.463 866.414 1009.7C704.67 1186.99 577.763 1051.38 526.752 1009.7C475.74 968.015 457.699 926.335 447.124 874.079Z" fill="#F1C9B0" stroke="black" stroke-width="16"/>
<path fill-rule="evenodd" clip-rule="evenodd" d="M964.5 725.5C964.5 725.5 956.617 816.847 950.396 859.149C949.768 864.179 947.959 872.843 947.634 875.461C944.797 898.341 927.251 957.266 873.653 1016.02C832.369 1061.27 792.718 1087.2 755.252 1099.43C717.685 1111.69 683.004 1109.95 652.165 1100.98C591.339 1083.3 544.776 1036.99 520.338 1017.02C467.143 973.553 440.902 916.382 437.253 875.669C437.253 875.669 435.837 868.48 435.303 865.37C427.838 821.824 420.5 751.5 420.5 751.5C434.186 773.273 463.92 805.422 481.809 827.036C497.127 845.544 513.334 860.987 528.18 868.737C531.46 862.067 536.122 854.492 542.195 847.384C551.591 836.387 564.964 825.828 582.508 822.26C602.015 818.292 617.45 818.318 633.587 819.279C649.775 820.244 665.869 822.06 688.496 822.06C709.889 822.06 732.639 819.037 755.974 817.419C778.338 815.869 801.365 815.618 819.543 822.747C846.473 833.308 858.112 849.997 865.624 863.815C878.047 848.732 893.391 830.383 907.536 811.479C916.511 799.484 923.968 792.585 931.733 780.765C943.175 763.347 962.84 733.179 964.5 725.5ZM826.484 876.805C827.936 870.584 823.498 844.705 806.577 845.7C785.426 846.944 723.217 863.118 695.223 861.874C620.572 858.557 569.56 842.589 569.56 881.781C569.353 907.909 574.537 963.649 596.932 977.583C624.926 995.002 645.455 998.113 659.764 995.002C674.071 991.891 657.897 967.63 665.362 962.653C672.828 957.677 736.903 951.456 737.525 962.653C738.147 973.851 728.816 988.781 737.525 995.002C746.235 1001.22 833.949 995.624 826.484 876.805Z" fill="#4D3C2C"/>
<path d="M801.407 868.077C747.752 894.224 645.136 886.747 595.906 879.051C594.707 878.864 594.052 880.381 594.926 881.223C694.288 977.001 773.274 915.991 803.048 869.856C803.735 868.791 802.547 867.522 801.407 868.077Z" fill="white" stroke="black" stroke-width="16" stroke-linecap="round"/>
<path d="M564.699 597.248C515.561 597.248 495.713 633.315 491.554 652.561C491.377 653.377 491.673 654.23 492.276 654.806C556.933 716.543 614.276 676.898 635.622 648.471C636.027 647.931 636.181 647.274 636.047 646.612C632.59 629.513 613.96 597.248 564.699 597.248Z" fill="white"/>
<path d="M827.221 597.248C778.084 597.248 758.235 633.315 754.076 652.561C753.9 653.377 754.195 654.23 754.799 654.806C819.455 716.543 876.799 676.898 898.144 648.471C898.55 647.931 898.703 647.274 898.569 646.612C895.112 629.513 876.483 597.248 827.221 597.248Z" fill="white"/>
<path d="M491.292 653.859C494.817 634.989 514.434 597.248 564.699 597.248C614.964 597.248 633.336 630.841 636.239 647.638" stroke="black" stroke-width="16" stroke-linecap="round"/>
<path d="M753.814 653.859C757.34 634.989 776.956 597.248 827.221 597.248C877.486 597.248 895.859 630.841 898.762 647.638" stroke="black" stroke-width="16" stroke-linecap="round"/>
<path d="M591.449 165.516C520.53 202.842 516.798 207.196 467.652 242.656L639.35 273.76L924.89 367.696L955.995 504.556L1008.87 480.295C1008.87 378.894 984.611 286.202 935.466 242.656C898.968 210.317 806.623 175.638 767.501 159.295C718.355 138.766 675.214 121.43 591.449 165.516Z" fill="#E4A643" stroke="black" stroke-width="16"/>
<path d="M377.449 314.819C340.124 364.088 373.095 446.08 394.246 480.917L557.234 362.72L722.089 341.568L896.274 408.132L974.658 474.696C985.856 375.783 938.577 306.731 896.274 266.917C853.972 227.104 756.304 187.29 625.042 198.487C493.781 209.685 424.106 253.231 377.449 314.819Z" fill="#E4A643" stroke="black" stroke-width="16"/>
<path d="M585.85 352.766C611.729 278.613 661.331 309.842 682.897 334.725C781.087 329.896 862.877 373.573 918.5 419.952C924 424.537 929.243 429.149 934.222 433.743C956.731 454.514 973.818 474.921 984.611 490.87C993.943 486.516 1004.52 484.027 1016.34 486.516C1042.47 494.603 1033.13 520.109 1026.29 542.504C1026.29 542.504 1052.35 545.615 1057.4 561.167C1064.86 584.184 1044.95 599.737 1044.95 599.737C1044.95 599.737 1061.13 614.667 1061.13 637.684C1061.13 657.05 1015.09 732.864 963.46 671.899C922.153 623.127 940.443 565.314 954.751 542.504C899.509 502.69 918.047 453.408 934.222 433.743C929.243 429.149 924 424.537 918.5 419.952C846.202 459.766 822.867 426.795 809.803 382.626C766.879 419.952 735.36 407.095 710.269 390.714C710.269 424.929 685.671 456.675 653.036 463.498C609.49 472.604 585.85 440.481 573.408 419.952C550.391 486.516 492.536 486.516 456.455 463.498C460.81 523.841 441.732 560.337 427.217 575.475C448.99 593.516 446.502 647.016 442.147 656.347C437.792 665.678 407.932 727.265 343.234 672.521C291.476 628.726 327.889 597.87 352.566 587.917C297.199 555.568 330.17 513.888 349.455 507.667C370.908 500.747 384.038 498.336 387.403 490.87C419.254 420.201 477.813 389.262 503.112 382.626C516.549 332.859 563.87 341.983 585.85 352.766Z" fill="#4D3C2C"/>
<path d="M918.5 419.952C862.877 373.573 781.087 329.896 682.897 334.725C661.331 309.842 611.729 278.613 585.85 352.766C563.87 341.983 516.549 332.859 503.112 382.626C477.813 389.262 419.254 420.201 387.403 490.87C384.038 498.336 370.908 500.747 349.455 507.667C330.17 513.888 297.199 555.568 352.566 587.917C327.889 597.87 291.476 628.726 343.234 672.521C407.932 727.265 437.792 665.678 442.147 656.347C446.502 647.016 448.99 593.516 427.217 575.475C441.732 560.337 460.81 523.841 456.455 463.498C492.536 486.516 550.391 486.516 573.408 419.952C585.85 440.481 609.49 472.604 653.036 463.498C685.671 456.675 710.269 424.929 710.269 390.714C735.36 407.095 766.879 419.952 809.803 382.626C822.867 426.795 846.202 459.766 918.5 419.952ZM918.5 419.952C924 424.537 929.243 429.149 934.222 433.743M934.222 433.743C956.731 454.514 973.818 474.921 984.611 490.87C993.943 486.516 1004.52 484.027 1016.34 486.516C1042.47 494.603 1033.13 520.109 1026.29 542.504C1026.29 542.504 1052.35 545.615 1057.4 561.167C1064.86 584.184 1044.95 599.737 1044.95 599.737C1044.95 599.737 1061.13 614.667 1061.13 637.684C1061.13 657.05 1015.09 732.864 963.46 671.899C922.153 623.127 940.443 565.314 954.751 542.504C899.509 502.69 918.047 453.408 934.222 433.743Z" stroke="black" stroke-width="16"/>
<path d="M675.431 620.888C670.869 649.297 659.63 712.46 651.17 737.841C640.594 769.568 645.571 790.097 666.1 801.294C686.629 812.492 721.466 801.917 739.507 783.254" stroke="black" stroke-width="16" stroke-linecap="round"/>
<path d="M843.43 533.654C812.232 525.714 752.55 539.748 743.621 543.777C734.691 547.807 729.886 573.799 757.956 568.527C811 558.563 823.242 559.399 849.12 563.947C874.032 568.325 918.185 587.825 918.669 568.916C919.154 550.008 882.427 543.578 843.43 533.654Z" fill="black"/>
<path d="M536.103 538.876C565.93 529.097 624.452 539.544 633.305 543.033C642.158 546.522 648.115 572.169 620.657 568.58C568.769 561.797 556.951 563.36 532.108 569.439C508.193 575.29 466.396 597.375 464.979 578.538C463.563 559.702 498.821 551.1 536.103 538.876Z" fill="black"/>
<circle cx="569.054" cy="647.016" r="26.75" fill="#4D3C2C"/>
<circle cx="821.623" cy="645.771" r="26.75" fill="#4D3C2C"/>
</g>
<circle cx="697" cy="697" r="689" stroke="black" stroke-width="16"/>
</svg>
