<svg width="1394" height="1394" viewBox="0 0 1394 1394" fill="none" xmlns="http://www.w3.org/2000/svg">
<path d="M1394 697C1394 1081.94 1081.94 1394 697 1394C312.058 1394 0 1081.94 0 697C0 312.058 312.058 0 697 0C1081.94 0 1394 312.058 1394 697Z" fill="#E0FAFF"/>
<mask id="mask0_2662_20540" style="mask-type:alpha" maskUnits="userSpaceOnUse" x="0" y="0" width="1394" height="1394">
<circle cx="697" cy="697" r="697" fill="#E0FAFF"/>
</mask>
<g mask="url(#mask0_2662_20540)">
<path d="M954.991 1173.47C983.265 1178.98 1015.87 1183.15 1049.86 1187.34C1092.03 1192.55 1178.46 1197.79 1218.5 1205.77C1093.86 1322.61 884.263 1422.5 699.94 1422.5C522.738 1422.5 327.982 1336.88 205 1227.95C243.514 1214.86 317.589 1197.18 358.857 1189.46C411.469 1179.62 464.09 1171.66 513.532 1159.17C584.408 1141.25 674.924 1116.11 675.5 1116C780.118 1095.58 858.324 1154.64 954.991 1173.47Z" fill="#80804A"/>
<path d="M1207.5 1210.5C1167.46 1202.52 1092.03 1192.55 1049.86 1187.34C1015.87 1183.15 983.266 1178.98 954.991 1173.47C858.324 1154.64 780.118 1095.58 675.5 1116C674.924 1116.11 584.876 1147.08 514 1165C464.558 1177.5 411.469 1179.62 358.857 1189.46C317.589 1197.18 239.014 1212.41 200.5 1225.5" stroke="black" stroke-width="16" stroke-linecap="round"/>
</g>
<path d="M854.585 1102.64C856.501 1129.46 869.815 1147.16 890.782 1159.24C739.56 1325.21 582.44 1233.57 522.782 1167.01C544.672 1155.12 568.5 1155.5 565 1022C642.836 1015.29 804.771 1063.62 851.042 987.98C850.835 1021.75 851.609 1060.96 854.585 1102.64Z" fill="#F1C9B0" stroke="black" stroke-width="16" stroke-linecap="round"/>
<path d="M551.5 984.5C538.678 853.706 854.782 879.501 854.782 897.611C854.782 909.02 855.135 968.99 854.782 1026.5C808.368 1102.16 641.077 1131.29 563 1138C586 1054 563 1000 551.5 984.5Z" fill="#997661"/>
<path d="M358.833 780.765C337.433 748.914 349.916 695.746 358.833 673.144C365.65 649.255 388.216 643.283 398.647 643.283L467.077 731.62C476.408 766.872 485.242 837.127 445.926 836.132C396.78 834.887 385.583 820.579 358.833 780.765Z" fill="#F1C9B0" stroke="black" stroke-width="16"/>
<path d="M378.118 705.492C387.864 705.907 407.481 711.34 407.979 729.754C408.601 752.771 389.316 768.946 412.955 788.853" stroke="black" stroke-width="16" stroke-linecap="round"/>
<path d="M1039.29 782.632C1060.69 750.781 1048.2 697.612 1039.29 675.01C1032.47 651.121 1009.9 645.149 999.474 645.149L931.043 733.486C921.712 768.738 912.878 838.993 952.195 837.998C1001.34 836.754 1012.54 822.446 1039.29 782.632Z" fill="#F1C9B0" stroke="black" stroke-width="16"/>
<path d="M1021.36 708.603C1011.62 709.018 991.999 714.45 991.501 732.864C990.879 755.882 1010.16 772.056 986.524 791.963" stroke="black" stroke-width="16" stroke-linecap="round"/>
<path d="M457.124 874.079C448.663 832.274 435.351 727.265 429.752 679.986C415.541 569.254 415.444 420.574 442.816 357.743C470.188 294.911 593.362 272.516 742.042 272.516C860.986 272.516 964.336 389.055 979.059 438.615L979.186 441.945C981.039 490.66 983.438 553.709 979.059 602.847C973.46 665.678 954.798 836.131 947.955 874.079C941.112 912.027 928.626 952.463 876.414 1009.7C714.67 1186.99 587.763 1051.38 536.752 1009.7C485.74 968.015 467.699 926.335 457.124 874.079Z" fill="#F1C9B0" stroke="black" stroke-width="16"/>
<path fill-rule="evenodd" clip-rule="evenodd" d="M971 727.5C971 727.5 961.482 818.191 955.261 860.493C954.634 865.523 952.825 874.187 952.5 876.805C949.662 899.685 935.099 953.248 881.5 1012C840.217 1057.25 801.966 1082.27 764.5 1094.5C726.933 1106.76 694.339 1105.96 663.5 1097C602.674 1079.32 558.438 1032.97 534 1013C480.804 969.535 455.099 916.012 451.449 875.299C451.449 875.299 450.033 868.11 449.5 865C442.035 821.454 434 755.5 434 755.5C447.686 777.273 473.92 805.422 491.809 827.036C507.127 845.544 523.334 860.987 538.18 868.737C541.46 862.067 546.122 854.492 552.195 847.384C561.591 836.387 574.964 820.828 592.508 817.26C612.015 813.292 627.45 813.318 643.587 814.279C659.775 815.244 675.869 817.06 698.496 817.06C719.889 817.06 742.639 814.037 765.974 812.419C788.338 810.869 811.365 810.618 829.543 817.747C856.473 828.308 868.112 849.997 875.624 863.815C888.047 848.732 903.391 830.383 917.536 811.479C926.511 799.484 933.968 792.585 941.733 780.765C953.175 763.347 969.34 735.179 971 727.5ZM836.484 876.805C837.936 870.584 833.498 844.705 816.577 845.7C795.426 846.944 734.217 871.118 706.223 869.874C631.572 866.557 579.56 842.589 579.56 881.781C579.353 907.909 584.537 963.649 606.932 977.583C634.926 995.002 655.455 998.113 669.764 995.002C684.071 991.891 667.897 967.63 675.362 962.653C682.828 957.677 746.903 951.456 747.525 962.653C748.147 973.851 738.816 988.781 747.525 995.002C756.235 1001.22 843.949 995.624 836.484 876.805Z" fill="#C7A38D"/>
<path d="M457.124 874.079C448.663 832.274 435.351 727.265 429.752 679.986C415.541 569.254 415.444 420.574 442.816 357.743C470.188 294.911 593.362 272.516 742.042 272.516C860.986 272.516 964.336 389.055 979.059 438.615L979.186 441.945C981.039 490.66 983.438 553.709 979.059 602.847C973.46 665.678 954.798 836.131 947.955 874.079C941.112 912.027 928.626 952.463 876.414 1009.7C714.67 1186.99 587.763 1051.38 536.752 1009.7C485.74 968.015 467.699 926.335 457.124 874.079Z" stroke="black" stroke-width="16"/>
<path d="M811.407 868.077C757.752 894.224 655.136 886.747 605.906 879.051C604.707 878.864 604.052 880.381 604.926 881.223C704.288 977.001 783.274 915.991 813.048 869.856C813.735 868.791 812.547 867.522 811.407 868.077Z" fill="white" stroke="black" stroke-width="16" stroke-linecap="round"/>
<path d="M574.433 615C525.815 615 505.86 643.16 501.404 658.639C501.134 659.575 501.515 660.583 502.291 661.172C566.599 709.927 623.625 678.777 645.136 656.143C645.693 655.557 645.906 654.748 645.694 653.968C641.957 640.217 623.198 615 574.433 615Z" fill="white"/>
<path d="M837.433 615C788.815 615 768.86 643.16 764.404 658.639C764.134 659.575 764.515 660.583 765.291 661.172C829.599 709.927 886.625 678.777 908.136 656.143C908.693 655.557 908.906 654.748 908.694 653.968C904.957 640.217 886.198 615 837.433 615Z" fill="white"/>
<path d="M601.449 165.516C530.53 202.842 526.798 207.196 477.652 242.656L649.35 273.76L934.89 367.696L965.995 504.556L1018.87 480.295C1018.87 378.894 994.611 286.202 945.466 242.656C908.968 210.317 816.623 175.638 777.501 159.295C728.355 138.766 685.214 121.43 601.449 165.516Z" fill="#E4A643" stroke="black" stroke-width="16"/>
<path d="M387.449 314.819C350.124 364.088 383.095 446.08 404.246 480.917L567.234 362.72L732.089 341.568L906.274 408.132L984.658 474.696C995.856 375.783 948.577 306.731 906.274 266.917C863.972 227.104 766.304 187.29 635.042 198.487C503.781 209.685 434.106 253.231 387.449 314.819Z" fill="#E4A643" stroke="black" stroke-width="16"/>
<path d="M595.85 352.766C621.729 278.613 671.331 309.842 692.897 334.725C791.087 329.896 872.877 373.573 928.5 419.952C934 424.537 939.243 429.149 944.222 433.743C966.731 454.514 983.818 474.921 994.611 490.87C1003.94 486.516 1014.52 484.027 1026.34 486.516C1052.47 494.603 1043.13 520.109 1036.29 542.504C1036.29 542.504 1062.35 545.615 1067.4 561.167C1074.86 584.184 1054.95 599.737 1054.95 599.737C1054.95 599.737 1071.13 614.667 1071.13 637.684C1071.13 657.05 1025.09 732.864 973.46 671.899C932.153 623.127 950.443 565.314 964.751 542.504C909.509 502.69 928.047 453.408 944.222 433.743C939.243 429.149 934 424.537 928.5 419.952C856.202 459.766 832.867 426.795 819.803 382.626C776.879 419.952 745.36 407.095 720.269 390.714C720.269 424.929 695.671 456.675 663.036 463.498C619.49 472.604 595.85 440.481 583.408 419.952C560.391 486.516 502.536 486.516 466.455 463.498C470.81 523.841 451.732 560.337 437.217 575.475C458.99 593.516 456.502 647.016 452.147 656.347C447.792 665.678 417.932 727.265 353.234 672.521C301.476 628.726 337.889 597.87 362.566 587.917C307.199 555.568 340.17 513.888 359.455 507.667C380.908 500.747 394.038 498.336 397.403 490.87C429.254 420.201 487.813 389.262 513.112 382.626C526.549 332.859 573.87 341.983 595.85 352.766Z" fill="#4D3C2C"/>
<path d="M928.5 419.952C872.877 373.573 791.087 329.896 692.897 334.725C671.331 309.842 621.729 278.613 595.85 352.766C573.87 341.983 526.549 332.859 513.112 382.626C487.813 389.262 429.254 420.201 397.403 490.87C394.038 498.336 380.908 500.747 359.455 507.667C340.17 513.888 307.199 555.568 362.566 587.917C337.889 597.87 301.476 628.726 353.234 672.521C417.932 727.265 447.792 665.678 452.147 656.347C456.502 647.016 458.99 593.516 437.217 575.475C451.732 560.337 470.81 523.841 466.455 463.498C502.536 486.516 560.391 486.516 583.408 419.952C595.85 440.481 619.49 472.604 663.036 463.498C695.671 456.675 720.269 424.929 720.269 390.714C745.36 407.095 776.879 419.952 819.803 382.626C832.867 426.795 856.202 459.766 928.5 419.952ZM928.5 419.952C934 424.537 939.243 429.149 944.222 433.743M944.222 433.743C966.731 454.514 983.818 474.921 994.611 490.87C1003.94 486.516 1014.52 484.027 1026.34 486.516C1052.47 494.603 1043.13 520.109 1036.29 542.504C1036.29 542.504 1062.35 545.615 1067.4 561.167C1074.86 584.184 1054.95 599.737 1054.95 599.737C1054.95 599.737 1071.13 614.667 1071.13 637.684C1071.13 657.05 1025.09 732.864 973.46 671.899C932.153 623.127 950.443 565.314 964.751 542.504C909.509 502.69 928.047 453.408 944.222 433.743Z" stroke="black" stroke-width="16"/>
<path d="M685.431 620.888C680.869 649.297 669.63 712.46 661.17 737.841C650.594 769.568 655.571 790.097 676.1 801.294C696.629 812.492 731.466 801.917 749.507 783.254" stroke="black" stroke-width="16" stroke-linecap="round"/>
<path d="M853.43 533.654C822.232 525.714 762.55 539.748 753.621 543.777C744.691 547.807 739.886 573.799 767.956 568.527C821 558.563 833.242 559.399 859.12 563.947C884.032 568.325 928.185 587.825 928.669 568.916C929.154 550.008 892.427 543.578 853.43 533.654Z" fill="black"/>
<path d="M546.103 538.876C575.93 529.097 634.452 539.544 643.305 543.033C652.158 546.522 658.115 572.169 630.657 568.58C578.769 561.797 566.951 563.36 542.108 569.439C518.193 575.29 476.396 597.375 474.979 578.538C473.563 559.702 508.821 551.1 546.103 538.876Z" fill="black"/>
<circle cx="576.054" cy="650.016" r="26.75" fill="#4D3C2C"/>
<circle cx="834.623" cy="648.771" r="26.75" fill="#4D3C2C"/>
<path d="M501 654C504.526 642.333 524.15 619 574.433 619C624.717 619 643.096 639.769 646 650.154" stroke="black" stroke-width="16" stroke-linecap="round"/>
<path d="M764 654C767.526 642.333 787.15 619 837.433 619C887.717 619 906.096 639.769 909 650.154" stroke="black" stroke-width="16" stroke-linecap="round"/>
</svg>
