<svg width="676" height="557" viewBox="0 0 676 557" fill="none" xmlns="http://www.w3.org/2000/svg">
<path fill-rule="evenodd" clip-rule="evenodd" d="M317.082 4.11013C385.993 6.68581 453.238 14.7613 513.295 41.2503C579.507 70.4543 658.048 103.457 673.908 161.493C689.665 219.157 611.968 264.711 589.758 321.068C566.969 378.893 594.91 449.509 542.757 494.279C487.882 541.385 397.894 563.904 317.082 555.14C239.772 546.755 190.428 490.898 132.813 449.817C82.5167 413.955 19.6926 383.08 3.38503 331.466C-12.5189 281.13 31.8484 234.066 48.8078 183.941C67.1647 129.684 52.1625 62.623 106.717 26.0537C161.723 -10.8178 244.645 1.40265 317.082 4.11013Z" fill="#EEF8FF"/>
</svg>
