<svg width="700" height="712" viewBox="0 0 700 712" fill="none" xmlns="http://www.w3.org/2000/svg">
<path fill-rule="evenodd" clip-rule="evenodd" d="M353.854 0.00479669C427.262 0.479769 494.386 36.1824 553.201 80.1116C611.354 123.546 661.465 178.225 684.584 247.028C707.856 316.286 703.06 391.133 681.126 460.826C659.031 531.032 619.434 594.853 561.024 639.633C501.54 685.237 428.806 711.322 353.854 711.732C278.618 712.144 204.97 687.383 145.031 641.908C85.9438 597.08 47.5046 532.012 24.1708 461.609C0.721863 390.86 -10.5685 314.448 13.0714 243.762C36.5944 173.426 92.3018 120.668 152.624 77.5197C212.555 34.652 280.171 -0.471951 353.854 0.00479669Z" fill="#7762F9"/>
<path fill-rule="evenodd" clip-rule="evenodd" d="M353.854 0.00479669C427.262 0.479769 494.386 36.1824 553.201 80.1116C611.354 123.546 661.465 178.225 684.584 247.028C707.856 316.286 703.06 391.133 681.126 460.826C659.031 531.032 619.434 594.853 561.024 639.633C501.54 685.237 428.806 711.322 353.854 711.732C278.618 712.144 204.97 687.383 145.031 641.908C85.9438 597.08 47.5046 532.012 24.1708 461.609C0.721863 390.86 -10.5685 314.448 13.0714 243.762C36.5944 173.426 92.3018 120.668 152.624 77.5197C212.555 34.652 280.171 -0.471951 353.854 0.00479669Z" fill="url(#paint0_linear)"/>
<defs>
<linearGradient id="paint0_linear" x1="163.5" y1="215.5" x2="572.5" y2="624.5" gradientUnits="userSpaceOnUse">
<stop stop-color="#7762F9"/>
<stop offset="1" stop-color="#604FCD"/>
</linearGradient>
</defs>
</svg>
