<svg width="567" height="549" viewBox="0 0 567 549" fill="none" xmlns="http://www.w3.org/2000/svg">
<path fill-rule="evenodd" clip-rule="evenodd" d="M335.671 0.0165538C390.236 -0.748418 442.68 25.0739 482.856 62.0039C520.257 96.3839 533.856 146.792 548.325 195.49C562.404 242.874 570.767 290.049 565.206 339.166C558.392 399.34 557.693 467.76 512.884 508.498C466.989 550.224 397.649 550.328 335.671 547.848C275.773 545.45 213.281 534.536 168.474 494.713C125.595 456.602 127.452 391.971 102.286 340.417C71.009 276.342 -18.5921 224.449 3.44888 156.64C25.4907 88.8286 126.96 96.4951 191.455 66.0892C240.484 42.9752 281.473 0.776383 335.671 0.0165538Z" fill="#FBF3DC"/>
</svg>
