<svg width="184" height="184" viewBox="0 0 184 184" fill="none" xmlns="http://www.w3.org/2000/svg">
<rect width="184" height="184" fill="black"/>
<path d="M133.532 51.4326C133.444 50.7918 132.885 50.4363 132.42 50.3976C131.959 50.3589 122.926 50.2217 122.926 50.2217C122.926 50.2217 115.372 42.8855 114.625 42.1392C113.879 41.3929 112.422 41.6182 111.855 41.7872C111.848 41.7907 110.436 42.2272 108.06 42.9629C107.662 41.6746 107.078 40.0904 106.244 38.4993C103.554 33.3668 99.6151 30.6527 94.8557 30.6457C94.8487 30.6457 94.8451 30.6457 94.8381 30.6457C94.5072 30.6457 94.1798 30.6774 93.849 30.7055C93.7082 30.5365 93.5674 30.3711 93.4195 30.2092C91.346 27.9914 88.6884 26.9107 85.5025 27.0058C79.3562 27.1818 73.2346 31.6208 68.2711 39.5061C64.779 45.054 62.1212 52.0241 61.3679 57.4205C54.3098 59.6065 49.3744 61.1342 49.2653 61.1696C45.7028 62.2889 45.5902 62.398 45.1255 65.7565C44.7805 68.2944 35.459 140.375 35.459 140.375L113.576 153.885L147.434 145.468C147.434 145.468 133.62 52.0734 133.532 51.4326ZM104.149 44.1739C102.35 44.7301 100.305 45.3637 98.0872 46.0502C98.0415 42.9383 97.6719 38.6084 96.2216 34.8664C100.886 35.75 103.181 41.0268 104.149 44.1739ZM94.0002 47.3175C89.9063 48.5847 85.4391 49.9681 80.9579 51.3552C82.2181 46.5289 84.6084 41.7238 87.5443 38.5732C88.6355 37.401 90.1632 36.095 91.9726 35.3487C93.6729 38.8971 94.0425 43.9204 94.0002 47.3175ZM85.6256 31.0963C87.0689 31.0646 88.2834 31.3814 89.322 32.0643C87.6604 32.9268 86.0551 34.1659 84.5486 35.7817C80.6445 39.9708 77.6523 46.4726 76.459 52.7457C72.7381 53.8967 69.0982 55.0268 65.7469 56.0618C67.8627 46.1875 76.1386 31.3708 85.6256 31.0963Z" fill="#95BF47"/>
<path d="M132.424 50.4013C131.963 50.3626 122.93 50.2254 122.93 50.2254C122.93 50.2254 115.375 42.8892 114.629 42.1429C114.351 41.8648 113.974 41.7205 113.58 41.6606L113.583 153.882L147.437 145.469C147.437 145.469 133.624 52.0771 133.536 51.4363C133.448 50.7955 132.885 50.44 132.424 50.4013Z" fill="#5E8E3E"/>
<path d="M94.8134 67.8087L90.8814 82.5196C90.8814 82.5196 86.4952 80.5236 81.2959 80.851C73.6709 81.3334 73.5899 86.1419 73.6676 87.3494C74.0829 93.9286 91.3917 95.365 92.3635 110.776C93.1273 122.9 85.9319 131.194 75.5649 131.849C63.1209 132.634 56.2705 125.294 56.2705 125.294L58.9072 114.078C58.9072 114.078 65.8032 119.281 71.3229 118.933C74.9277 118.704 76.216 115.772 76.0858 113.698C75.5438 105.116 61.4487 105.623 60.5582 91.5208C59.8083 79.6543 67.6022 67.6291 84.7983 66.5449C91.4235 66.119 94.8134 67.8087 94.8134 67.8087Z" fill="white"/>
</svg>
