<svg width="184" height="184" viewBox="0 0 184 184" fill="none" xmlns="http://www.w3.org/2000/svg">
<rect width="184" height="184" fill="#1D3557"/>
<path d="M93.0947 88.4289C96.0631 90.8035 99.0017 93.2702 101.911 95.829C104.795 98.3573 107.421 101.167 109.747 104.218C112.099 107.315 113.989 110.738 115.357 114.378C116.84 118.466 117.564 122.791 117.494 127.139C117.518 130.605 116.82 134.038 115.446 137.22C112.83 143.372 107.954 148.287 101.822 150.951C98.6778 152.327 95.2795 153.025 91.848 152.999C88.3795 153.022 84.944 152.324 81.7587 150.951C75.5794 148.335 70.661 143.417 68.045 137.237C66.6745 134.061 65.9771 130.634 65.9969 127.175H71.8742C71.8646 129.84 72.4105 132.479 73.4771 134.922C75.5189 139.683 79.3129 143.477 84.074 145.519C86.5163 146.588 89.1553 147.134 91.8213 147.122C94.4594 147.142 97.0711 146.596 99.4796 145.519C101.801 144.488 103.914 143.039 105.713 141.245C107.521 139.424 108.971 137.279 109.987 134.922C111.058 132.48 111.604 129.841 111.59 127.175C111.648 123.469 111.014 119.784 109.72 116.311C108.495 113.145 106.815 110.175 104.733 107.495C102.61 104.773 100.224 102.268 97.6096 100.014C94.9381 97.699 92.1864 95.4104 89.3279 93.1574C86.4694 90.9045 83.6644 88.5535 80.8682 86.1225C78.1209 83.7323 75.6155 81.0777 73.388 78.197C71.178 75.3134 69.3798 72.1366 68.045 68.7576C66.6156 64.9449 65.9207 60.896 65.9969 56.8249C65.9771 53.3651 66.6745 49.9389 68.045 46.7622C70.661 40.5828 75.5794 35.6644 81.7587 33.0484C84.9267 31.7071 88.3303 31.0108 91.7705 31.0001C95.2107 30.9894 98.6186 31.6646 101.795 32.9861C107.943 35.5665 112.842 40.4456 115.446 46.5841C116.82 49.7598 117.517 53.1867 117.494 56.6468H111.617C111.637 54.0087 111.09 51.3972 110.014 48.9884C107.94 44.3012 104.193 40.555 99.5063 38.4805C97.0979 37.4038 94.4861 36.8571 91.848 36.8776C89.182 36.8653 86.543 37.4114 84.1007 38.4805C79.3694 40.5301 75.5853 44.2888 73.5038 49.0062C72.4342 51.4202 71.8879 54.0332 71.9009 56.6735C71.8361 60.1173 72.4409 63.5409 73.6819 66.754C74.8757 69.6645 76.4638 72.3972 78.4015 74.8754C80.4258 77.4355 82.6922 79.7943 85.1693 81.9193C87.728 84.1218 90.3698 86.2917 93.0947 88.4289Z" fill="white"/>
<path d="M88.4285 90.6552C90.8031 87.6869 93.2698 84.7482 95.8285 81.8392C98.3568 78.9544 101.167 76.3292 104.217 74.0028C107.317 71.6505 110.743 69.7608 114.386 68.3926C118.482 66.904 122.817 66.1796 127.174 66.2554C130.64 66.2322 134.073 66.9296 137.254 68.3036C140.313 69.6075 143.097 71.4812 145.456 73.8247C147.786 76.1597 149.661 78.9076 150.986 81.9283C152.351 85.0773 153.037 88.4788 152.998 91.9109C153.017 95.3705 152.32 98.7965 150.95 101.973C148.334 108.153 143.416 113.071 137.237 115.687C134.06 117.058 130.634 117.755 127.174 117.735V111.858C129.84 111.872 132.48 111.326 134.921 110.255C139.687 108.22 143.483 104.424 145.518 99.6582C146.587 97.2159 147.133 94.5769 147.121 91.9109C147.142 89.2727 146.595 86.661 145.518 84.2525C144.487 81.9306 143.038 79.8177 141.244 78.019C139.423 76.2106 137.278 74.7607 134.921 73.7446C132.48 72.6737 129.84 72.1276 127.174 72.1417C123.468 72.0838 119.783 72.718 116.31 74.0117C113.143 75.2334 110.173 76.9136 107.494 78.9985C104.773 81.122 102.267 83.5082 100.014 86.1226C97.6985 88.7941 95.4129 91.5547 93.157 94.4043C90.9011 97.2539 88.5561 100.074 86.1221 102.864C83.7319 105.611 81.0773 108.117 78.1966 110.344C75.3131 112.554 72.1363 114.352 68.7574 115.687C64.9448 117.117 60.8959 117.812 56.8247 117.735C53.365 117.755 49.9387 117.058 46.762 115.687C40.5811 113.069 35.6624 108.147 33.0484 101.965C31.7071 98.7966 31.0108 95.393 31.0001 91.9527C30.9894 88.5125 31.6645 85.1046 32.986 81.9283C35.5722 75.7897 40.4505 70.9018 46.5839 68.3036C49.7597 66.9301 53.1866 66.2325 56.6466 66.2554V72.1328C54.0086 72.1132 51.397 72.6598 48.9883 73.7357C44.3011 75.8102 40.5549 79.5564 38.4804 84.2436C37.4025 86.6548 36.8558 89.2697 36.8775 91.9109C36.8653 94.5769 37.4113 97.2159 38.4804 99.6582C40.5226 104.394 44.2837 108.181 49.0061 110.255C51.4183 111.33 54.0325 111.877 56.6733 111.858C60.1171 111.923 63.5406 111.318 66.7537 110.077C69.6671 108.889 72.4005 107.3 74.8751 105.357C77.4351 103.333 79.794 101.067 81.9189 98.5896C84.1214 96.0309 86.2913 93.3861 88.4285 90.6552Z" fill="white"/>
</svg>
