<svg width="184" height="184" viewBox="0 0 184 184" fill="none" xmlns="http://www.w3.org/2000/svg">
<rect width="184" height="184" fill="#FCF0D9"/>
<path d="M111.069 98.9095C110.949 96.9303 110.527 94.981 109.815 93.13C109.15 91.2824 108.118 89.5882 106.783 88.1485C106.061 87.5376 105.255 87.0347 104.389 86.655C103.61 86.2318 102.753 85.972 101.87 85.8914C101.355 85.9482 100.835 85.9482 100.32 85.8914C99.8066 85.7544 99.2821 85.6861 98.7694 85.5835C97.6961 85.399 96.6092 85.3113 95.5205 85.321C93.2405 85.321 90.9605 85.321 88.6805 85.321C86.4009 85.321 84.1209 85.458 81.8409 85.5148C80.2352 85.4184 78.6506 85.9222 77.3954 86.9285C76.1622 88.289 75.2951 89.9405 74.8758 91.7277C74.1804 93.791 73.736 95.9002 73.2344 98.0203C73.2454 98.3449 73.2758 98.6681 73.3255 98.9892C73.4603 100.221 73.9078 101.399 74.6252 102.409C75.765 103.88 77.4751 104.37 79.1848 104.86C81.3225 105.482 83.5127 105.905 85.7284 106.125C88.0053 106.284 90.2906 106.284 92.568 106.125C93.7078 106.125 94.848 106.125 95.9878 105.977C97.1276 105.829 97.9599 105.681 98.9518 105.601C99.9436 105.521 101.163 105.738 102.28 105.669C103.318 105.565 104.349 105.405 105.369 105.191C107.037 105.092 108.613 104.401 109.815 103.241C110.32 102.65 110.693 101.958 110.909 101.211C111.126 100.464 111.18 99.6793 111.069 98.9095Z" fill="#FFC543"/>
<path d="M120.712 99.4914C120.576 98.6022 119.003 98.3516 118.25 98.3516C117.162 98.3248 116.073 98.3666 114.99 98.4767C112.773 98.7123 110.589 99.1981 108.481 99.9248C107.394 100.265 106.275 100.487 105.141 100.586C104.137 100.7 103.168 100.973 102.165 101.008C99.8852 101.099 97.6625 101.235 95.4054 101.372C93.1482 101.509 90.9255 101.874 88.6569 101.84C87.4599 101.84 86.2858 101.84 85.0887 101.84C84.0445 101.843 83.0012 101.778 81.9653 101.646C81.4637 101.646 80.9392 101.646 80.438 101.566C79.9364 101.486 79.7311 101.156 79.2978 101.03C78.8648 100.905 78.6596 101.099 78.3747 101.03L76.8698 100.631C74.9091 100.05 72.9025 99.8107 70.9991 99.0356C70.0377 98.6357 68.971 98.5674 67.9669 98.8418C66.9979 99.0466 65.9947 99.3774 65.0143 99.4914C64.3418 99.5597 63.6579 99.5597 63.4526 100.335C63.3201 101.388 63.4531 102.458 63.8402 103.447C64.3757 105.658 64.6836 107.927 65.1509 110.15C65.3389 111.283 65.6019 112.403 65.9374 113.501C66.2114 114.485 66.417 115.487 66.5531 116.5C66.7813 117.639 67.1116 118.7 67.3512 119.805C67.5907 120.911 67.9554 121.789 68.1492 122.815C68.5597 124.969 68.9358 127.124 69.4259 129.256C69.6994 130.396 69.95 131.535 70.1213 132.676C70.2297 133.698 70.4125 134.712 70.6683 135.708C70.9876 136.848 71.3523 137.851 71.5919 138.968C71.7059 139.492 71.8196 140.005 71.968 140.518C72.0301 140.868 72.1618 141.201 72.3556 141.499C72.8418 141.813 73.3901 142.019 73.9631 142.103C74.4757 142.262 75.0002 142.399 75.5248 142.536C76.5681 142.831 77.6308 143.052 78.705 143.197C80.837 143.402 82.9571 143.596 85.1002 143.71C86.24 143.71 87.3802 143.904 88.52 143.858C89.6602 143.813 90.6062 143.676 91.6548 143.653C93.9348 143.653 96.1351 143.585 98.3808 143.402C100.626 143.22 103.043 143.049 105.357 142.764C107.4 142.453 109.422 142.015 111.41 141.453C111.849 141.137 112.234 140.752 112.55 140.313C112.791 139.907 112.935 139.45 112.972 138.98C113.246 137.76 113.417 136.551 113.622 135.32C113.827 134.089 114.306 132.744 114.602 131.456C114.898 130.167 115.07 129.028 115.275 127.819C115.731 125.118 116.266 122.427 116.711 119.726C117.056 117.266 117.551 114.829 118.193 112.43C118.456 111.331 118.647 110.215 118.763 109.09C118.946 108.04 119.185 107.001 119.481 105.978C119.789 104.838 120.04 103.641 120.279 102.467C120.579 101.504 120.725 100.5 120.712 99.4914Z" fill="#394556"/>
<path d="M114.831 130.156C114.683 130.156 114.603 130.156 113.953 129.939C112.813 129.609 111.97 127.226 110.921 127.283C109.872 127.34 108.641 130.703 107.935 131.022C105.507 132.163 104.925 130.452 104.321 129.746C104.161 129.563 103.751 128.401 102.611 128.469C101.471 128.538 100.468 130.464 99.4645 131.205C98.9105 131.62 98.2362 131.845 97.5439 131.845C96.8511 131.845 96.1773 131.62 95.6228 131.205C94.9847 130.76 93.6397 128.822 92.7844 129.244C91.6446 129.78 91.3711 131.421 90.1741 131.877C89.532 132.053 88.859 132.083 88.2041 131.965C87.5492 131.846 86.9291 131.583 86.3892 131.193C85.7664 130.91 85.2335 130.461 84.8504 129.894C84.5654 129.381 84.4175 129.176 83.7789 129.221C82.6391 129.301 82.4338 130.692 81.4989 131.148C80.8435 131.424 80.1287 131.531 79.4214 131.457C78.7137 131.383 78.0363 131.132 77.4519 130.726C76.6477 130.077 75.9479 129.308 75.3776 128.446C74.7619 127.705 73.8612 128.355 73.2914 128.856C72.7215 129.358 72.2198 130.145 71.3306 130.441C70.9206 130.555 70.4868 130.555 70.0768 130.441C69.9601 130.419 69.8399 130.419 69.7231 130.441C69.883 131.228 70.0539 132.014 70.168 132.812C70.168 132.926 70.168 133.052 70.168 133.165C70.5062 133.234 70.8493 133.28 71.1937 133.302C72.1172 133.302 73.0064 132.163 73.8841 131.969C74.7619 131.775 75.138 133.029 75.822 133.599C77.2581 134.738 80.3018 134.659 81.9093 133.963C82.7871 133.576 83.3001 132.664 84.1893 133.291C84.9944 133.94 85.9263 134.414 86.9252 134.682C88.1134 134.881 89.3294 134.846 90.5044 134.579C91.6446 134.351 92.5453 132.824 93.4001 132.915C94.2549 133.006 95.2353 134.317 96.2271 134.476C97.2735 134.633 98.3411 134.571 99.3619 134.294C101.049 133.861 101.528 132.014 102.52 132.208C103.511 132.402 104.195 133.792 105.256 133.907C106.431 134.091 107.635 133.961 108.744 133.53C109.587 133.074 109.884 132.185 110.682 131.627C111.97 130.783 113.11 132.88 113.737 133.154C113.835 133.194 113.927 133.248 114.01 133.314C114.17 132.755 114.341 132.174 114.466 131.638C114.592 131.102 114.751 130.623 114.831 130.156Z" fill="#FCF0D9"/>
<path d="M112.334 95.3203C111.399 95.3203 110.453 95.389 109.518 95.4115C108.671 95.419 107.826 95.4837 106.987 95.6053C106.143 95.714 105.318 95.9404 104.537 96.2782C104.283 96.4526 104.075 96.6834 103.926 96.9525C103.778 97.2216 103.694 97.5215 103.681 97.8285C103.427 99.5703 103.548 101.346 104.035 103.038C104.514 104.588 105.312 106.184 107.01 106.583C108.749 106.897 110.527 106.931 112.277 106.686C113.698 105.767 114.719 104.347 115.138 102.707C115.298 101.793 115.378 100.866 115.377 99.9371C115.338 99.2043 115.338 98.4701 115.377 97.7373C115.628 96.2668 113.485 95.3547 112.334 95.3203Z" fill="#FFC543"/>
<path d="M80.0386 97.21C79.1379 95.8531 77.12 95.8078 75.6723 95.8078C74.7695 95.7333 73.8622 95.7333 72.9594 95.8078C72.4877 95.9095 72.0055 95.9558 71.5228 95.9443C71.2449 95.8875 70.9577 95.8875 70.6794 95.9443C70.054 96.1376 69.5167 96.5455 69.1622 97.096C68.8076 97.6465 68.6588 98.3045 68.7416 98.9541C68.7548 99.9142 68.8191 100.873 68.9354 101.826C68.9283 102.351 68.9975 102.873 69.1406 103.377C69.3 103.714 69.426 104.065 69.5167 104.426C69.6849 105.163 70.0932 105.823 70.6767 106.304C71.2607 106.785 71.987 107.058 72.7427 107.082C73.5976 107.184 74.4753 107.276 75.342 107.299C76.2739 107.239 77.1962 107.07 78.0893 106.797C78.6707 106.534 79.1494 105.452 79.4682 104.893C79.8514 104.169 80.0764 103.373 80.1297 102.556C80.2892 100.858 81.0757 98.7374 80.0386 97.21Z" fill="#FFC543"/>
<path d="M156.665 106.082C156.009 102.821 155.067 99.6243 153.85 96.5287C152.66 93.2802 151.132 90.166 149.29 87.2382C147.34 84.3997 145.174 81.6639 143.191 78.8369C141.298 75.9024 139.239 73.0785 137.024 70.3784C134.744 67.8363 132.464 65.3854 130.469 62.6949C128.268 59.9679 125.855 57.4179 123.253 55.0688C120.757 52.6747 118.169 50.4062 115.57 48.1037C112.976 45.9377 110.065 44.1809 106.941 42.8941C103.771 41.4464 100.511 41.1042 96.9657 40.6713C95.1305 40.4432 92.8963 40.7849 91.0497 40.6141C90.2059 40.5343 87.4586 41.0474 87.3335 42.1304C87.0371 44.7178 90.4569 45.8466 92.2807 47.3968C94.9368 49.6768 97.9122 51.512 100.693 53.6212C103.475 55.7298 105.721 58.0552 108.194 60.3467C110.844 62.7275 113.212 65.4052 115.251 68.3265C117.071 71.2178 118.619 74.2703 119.879 77.4461C121.307 80.5739 122.54 83.7871 123.572 87.0673C125.282 93.3484 126.719 99.675 128.463 105.945C128.896 107.484 129.603 113.525 130.07 115.064C130.905 118.096 132.418 120.899 134.493 123.261C135.359 124.253 140.558 126.042 142.017 125.871C145.43 125.557 148.718 124.427 151.604 122.577C152.796 121.614 153.865 120.508 154.784 119.282C155.673 118.158 156.289 116.843 156.586 115.441C157.444 112.385 157.483 109.157 156.7 106.082H156.665Z" fill="#DE8E4A"/>
<path d="M144.628 99.6293C142.292 93.1152 139.286 86.8613 135.657 80.9686C132.077 75.1319 128.202 69.3409 124.064 63.812C119.926 58.2835 115.411 52.9713 109.598 48.9926C108.207 48.0351 106.782 47.1006 105.278 46.2682C103.702 45.4891 102.062 44.8483 100.375 44.3533C99.4311 43.956 98.3842 43.8719 97.3889 44.1137C96.3627 44.3872 95.7245 45.1513 96.2491 46.0973C96.9348 47.3278 97.791 48.4562 98.7911 49.4488C100.125 50.6798 101.663 51.7289 103.112 52.7889C105.87 54.9205 109.769 57.2459 112.106 59.7655C114.24 62.1979 116.166 64.806 117.862 67.5625C118.718 68.8393 119.686 70.0592 120.439 71.4042C121.339 73.0003 122 74.7214 122.719 76.3857C124.201 79.6232 125.739 82.8377 127.119 86.121C128.498 89.4043 128.806 92.5845 129.752 95.9131C130.698 99.2417 131.587 102.628 132.648 105.945C133.617 109 134.369 112.214 136.159 114.985C136.754 116.018 137.59 116.892 138.597 117.531C139.603 118.171 140.75 118.556 141.938 118.655C143.075 118.787 144.227 118.619 145.278 118.165C146.364 117.473 147.192 116.443 147.638 115.235C148.219 114.164 147.9 112.591 147.912 111.439C147.859 110.222 147.656 109.016 147.307 107.849C146.555 105.078 145.506 102.388 144.537 99.6865L144.628 99.6293Z" fill="#DB6840"/>
<path d="M97.3885 41.3552C97.0353 40.2155 95.7925 40.056 94.6756 40.0446C92.8853 40.0212 91.0959 40.1128 89.3175 40.3181C87.5731 40.5167 85.8489 40.8677 84.1652 41.3667C82.4321 41.8798 80.5741 42.222 78.9097 42.8945C75.8872 44.1906 73.1373 46.0474 70.8049 48.3661C69.6651 49.5059 68.1831 50.3498 67.0314 51.4895C65.8802 52.6298 64.5008 54.043 63.247 55.3312C60.8419 57.7821 58.0942 59.9824 55.8146 62.5245C53.5346 65.0665 51.0722 67.6654 48.9746 70.3559C44.4392 75.8042 40.3125 81.5806 36.629 87.6376C33.2092 93.4286 29.493 99.2649 27.9881 105.74C27.6005 107.266 27.2922 108.81 27.065 110.368C26.88 112.013 27.0914 113.678 27.6802 115.225C28.6949 118.234 29.9602 121.642 32.6736 123.455C35.4517 125.234 38.5487 126.457 41.7932 127.057C44.5061 127.661 48.7808 126.749 50.3654 124.447C54.1842 118.883 55.8714 113.047 56.6694 106.47C57.5533 99.8207 59.0802 93.2731 61.2294 86.9193C63.2699 80.5584 65.4583 74.1747 69.7901 68.7484C74.2291 63.3256 79.4457 58.589 85.271 54.6926C86.6729 53.7581 87.9496 52.7663 89.2493 51.7177C90.5489 50.6686 91.9397 49.8252 93.1592 48.7308C95.1997 46.9185 98.4032 44.2395 97.4797 41.3552H97.3885Z" fill="#DE8E4A"/>
<path d="M90.2083 42.8819C90.2083 42.6996 90.8126 42.6652 90.9266 42.6084C89.6155 41.1718 85.9562 43.3377 84.6226 43.9305C81.5247 45.3297 78.6757 47.2239 76.187 49.5392C73.6335 51.8192 71.1597 54.2929 68.7202 56.7209C66.1694 59.1194 63.803 61.7068 61.6411 64.4612C57.4576 70.161 53.3653 75.8608 49.3866 81.6517C47.4312 84.5589 45.6938 87.6074 44.1884 90.7713C43.5045 92.1736 42.4673 93.2566 41.6807 94.6016C40.8942 95.9466 40.267 97.7135 39.4575 99.2184C37.9108 102.226 36.86 105.463 36.3456 108.805C35.7872 111.997 35.9924 115.246 38.5001 117.708C39.4351 118.632 40.3353 119.703 41.8287 119.783C43.4107 119.956 45.0019 119.551 46.3086 118.643C48.9422 116.648 50.0706 113.388 51.0509 110.515C53.3309 104.006 54.391 97.2916 56.9789 90.8625C58.2895 87.5907 58.7912 84.4329 60.1591 81.1845C61.4649 78.0153 63.0398 74.9641 64.8671 72.0649C66.5428 69.3973 68.4921 66.8662 70.3616 64.3132C71.3305 62.9906 73.5766 61.7482 74.6706 60.5054C75.765 59.263 76.9506 57.7925 78.1706 56.5725C79.3901 55.353 80.2568 54.2929 81.3851 53.2668C82.5139 52.2411 84.0527 51.1008 85.4092 50.0408C86.7656 48.9807 88.0195 48.0686 89.2509 47.02C89.8186 46.551 90.2418 45.9304 90.4704 45.2302C90.5875 44.8624 90.6298 44.4749 90.5959 44.0904C90.5959 43.6685 90.2312 43.3377 90.2083 42.9502C90.1969 42.7335 90.2198 43.1439 90.2083 42.8819Z" fill="#DB6840"/>
<path d="M117.909 69.7501C117.35 68.1999 116.951 66.6725 116.507 65.0994C116.29 64.3467 116.176 63.6288 115.891 62.8991C115.25 61.344 114.531 59.8219 113.737 58.3395C112.027 54.988 110.157 51.7959 108.14 48.6386C106.35 45.834 104.446 42.6309 101.3 41.2172C99.6784 40.6592 97.9555 40.461 96.2498 40.6359C94.2777 40.6359 92.3055 40.6359 90.3333 40.579C88.6928 40.6116 87.0576 40.7755 85.443 41.0692C83.8223 41.3801 82.2751 41.9954 80.8834 42.8815C77.8054 44.5005 75.9358 47.4415 74.2147 50.3482C72.3676 53.4831 70.9086 56.8232 69.3354 60.1064C67.7931 63.3126 66.5309 66.6461 65.5624 70.0694C65.1207 71.6985 64.9894 73.3963 65.1748 75.0738C65.3572 76.909 65.2546 78.6535 66.2006 80.2949C67.0532 81.5822 68.126 82.7088 69.3698 83.6235C70.0264 84.1436 70.7328 84.5981 71.4784 84.98C72.1946 85.482 72.9366 85.9462 73.7016 86.3708C75.2554 86.9601 76.8383 87.4701 78.4435 87.8981C79.1504 88.0369 79.8167 88.3328 80.3932 88.7649C80.9825 89.1432 81.6647 89.3524 82.365 89.3687C85.9728 90.1817 89.6701 90.5265 93.3656 90.3948C95.1554 90.2808 96.9567 90.1213 98.7465 89.9729C100.536 89.8249 102.531 89.3348 104.446 89.0723C106.121 88.8164 107.74 88.2765 109.234 87.4767C109.94 87.1345 110.659 86.8266 111.343 86.462C112.027 86.0973 112.699 85.4473 113.417 84.98C116.288 82.9964 118.284 79.9835 118.992 76.5672C119.258 74.2357 118.9 71.8751 117.955 69.7277C117.544 68.7129 118.604 71.6426 117.909 69.7501Z" fill="#FFC543"/>
<path d="M79.8001 89.2324C79.5605 89.0497 79.2183 88.9132 79.0818 88.6282C78.9448 88.3433 79.3099 88.1495 79.6517 88.3089C80.6809 88.7749 81.785 89.0528 82.912 89.1298C84.143 89.1981 85.0207 89.4148 86.2521 89.4945C88.703 89.6539 91.1878 89.8252 93.6277 89.768C96.3005 89.8389 98.9738 89.6403 101.607 89.1752C102.747 88.9246 104.822 88.2975 105.027 88.6282C105.232 88.9585 104.674 89.1752 104.252 89.3461C101.834 90.2388 99.3209 90.847 96.7625 91.1588C94.1245 91.5754 91.4494 91.7128 88.7827 91.5693C87.4306 91.4275 86.0927 91.176 84.7816 90.8166C84.2799 90.703 83.7783 90.6004 83.2996 90.4405C82.0898 90.1763 80.9152 89.7706 79.8001 89.2324Z" fill="#DE8E4A"/>
<path d="M99.989 40.7619C99.327 40.4413 98.6039 40.2664 97.8688 40.2488C96.9048 40.0859 95.924 40.0476 94.9502 40.1348C92.1831 39.8657 89.3914 40 86.663 40.5338C85.7795 40.6527 84.919 40.9024 84.1095 41.275C83.0609 41.6396 82.0576 42.0845 81.9321 42.4945C81.7269 43.2128 82.9922 45.3673 83.1635 46.0398C83.5066 46.9559 83.792 47.8926 84.0183 48.8443C84.1778 49.9044 84.7138 51.2041 84.8617 52.2641C85.1581 54.5441 85.5232 56.2996 85.7056 58.5682C85.8879 60.8363 86.1385 62.7058 86.264 64.9744C86.3323 66.1146 86.6745 67.6988 86.7084 68.8505C86.8088 69.6965 86.9687 70.5346 87.1875 71.3582C87.1875 73.1823 87.347 74.7779 87.7913 75.0972C89.3077 76.1573 90.7324 77.1949 92.2602 77.2178C93.7875 77.2403 95.0528 76.0776 96.3296 74.9378C96.8198 74.5159 96.7744 71.0732 96.6603 68.3603C96.8797 67.4803 97.055 66.5903 97.1849 65.6927C97.2531 64.6441 97.3329 63.2533 97.4355 62.2729C97.5381 61.2926 97.6975 59.5142 97.7777 58.3854C97.8574 57.2571 98.3476 55.9345 98.4044 54.8744C98.5475 53.2793 98.795 51.6951 99.1456 50.1325C99.2936 49.0496 99.5785 48.126 99.7155 47.0431C99.8295 46.1539 102.269 41.8907 102.246 41.5943C102.223 41.2979 101.106 41.0354 99.989 40.7619Z" fill="#DE8E4A"/>
<path d="M107.648 63.2309C107.511 62.9306 107.298 62.6703 107.032 62.4756C106.765 62.2814 106.452 62.1594 106.124 62.1215C105.796 62.0837 105.463 62.1312 105.159 62.2598C104.855 62.3884 104.589 62.5932 104.387 62.8548C103.248 64.4962 103.806 66.0469 104.023 67.8592C104.102 68.5432 104.923 68.9193 105.436 69.25C105.949 69.5808 106.918 68.8739 107.214 68.4863C107.665 67.6949 107.938 66.8145 108.013 65.9064C108.088 64.9987 107.963 64.0858 107.648 63.2309Z" fill="#394556"/>
<path d="M106.143 63.0137C106.588 63.0137 107.021 63.5607 107.055 64.0508C107.072 64.2636 107.009 64.4754 106.879 64.6441C106.748 64.8127 106.559 64.9264 106.348 64.9629C106.086 64.9629 105.528 64.7577 105.55 64.4155C105.573 64.0737 105.55 63.2757 106.143 63.0137Z" fill="#FCF0D9"/>
<path d="M80.3569 65.0081C80.327 64.3202 80.1966 63.6406 79.9694 62.9906C79.7492 62.6303 79.4329 62.3384 79.0568 62.1472C78.6803 61.9561 78.2584 61.8728 77.8373 61.9076C77.2789 62.1014 77.1419 62.09 76.8913 62.7057C76.4183 63.5261 76.1523 64.4497 76.1162 65.3957C76.1162 66.8323 76.3329 69.1691 78.339 69.2035C79.2396 69.2035 79.6272 68.4169 80.0262 67.744C80.1728 67.3833 80.2314 66.9922 80.1971 66.6042C80.3107 66.0801 80.364 65.5445 80.3569 65.0081Z" fill="#394556"/>
<path d="M78.0097 63.0807C78.4999 63.1604 78.6598 63.8558 78.6254 64.346C78.5911 64.8361 78.3405 65.0986 77.9185 64.9846C77.7023 64.9145 77.512 64.782 77.372 64.6032C77.2319 64.4244 77.1483 64.2077 77.132 63.9813C77.1276 63.8637 77.1465 63.7466 77.1888 63.6365C77.2311 63.5268 77.2954 63.4264 77.3773 63.3423C77.4596 63.2582 77.5578 63.1912 77.6666 63.1463C77.7754 63.1014 77.8921 63.0789 78.0097 63.0807Z" fill="#FCF0D9"/>
<path d="M98.2442 83.2468C98.7573 83.1785 99.2699 83.1098 99.7716 82.9962C100.817 82.7769 101.792 82.303 102.61 81.6168C102.976 81.3411 103.323 81.0403 103.648 80.7162C103.758 80.5568 103.907 80.4286 104.08 80.3427C104.254 80.2568 104.446 80.2168 104.639 80.226C104.659 80.6607 104.543 81.0905 104.309 81.457C104.013 81.8868 103.656 82.2708 103.249 82.5972C102.492 83.2371 101.675 83.8022 100.809 84.284C99.8055 84.7297 98.7146 84.9437 97.6171 84.9111C96.5922 84.9966 95.5612 84.8402 94.6077 84.4553C94.1775 84.3073 93.7868 84.0616 93.4675 83.737C93.2169 83.4406 93.0117 83.0645 92.6012 83.3036C91.8591 83.8321 91.0598 84.276 90.219 84.6262C89.1713 84.9653 88.0632 85.0741 86.9701 84.9455C85.9616 84.849 84.9601 84.6891 83.9718 84.4667C82.9672 84.1611 82.0411 83.6401 81.2589 82.939C80.5318 82.3871 80.0169 81.6023 79.7998 80.7162C79.6972 80.4313 79.3325 80.0437 79.5034 79.7358C79.6743 79.428 79.6743 79.3368 79.9139 79.4848C80.1411 79.5857 80.3292 79.7579 80.4494 79.975C80.8709 80.8171 81.483 81.5495 82.237 82.1132C82.991 82.6774 83.8661 83.0574 84.7927 83.2239C85.4137 83.2983 86.0413 83.2983 86.6623 83.2239C87.4445 83.1371 88.2112 82.9456 88.9423 82.654C89.5835 82.3849 90.1887 82.0365 90.7431 81.6168C90.9501 81.4671 91.0893 81.2416 91.1307 80.9897C91.2219 80.6933 91.4385 80.5563 91.4958 80.2489C91.5526 79.9411 91.849 79.1087 91.4958 78.7555C91.1421 78.4018 90.6181 78.4247 90.2644 78.0715C89.9112 77.7179 89.1246 77.285 88.7595 76.7719C88.579 76.5455 88.4222 76.3011 88.2922 76.0421C88.1557 75.7118 87.7567 75.3811 87.8364 75.1644C88.8344 74.8878 89.8676 74.7614 90.903 74.7883C91.4729 74.7883 92.8523 74.9481 93.4336 74.9367C93.7983 74.9367 94.3567 74.7997 94.676 74.7883C95.9871 74.7315 96.6138 74.7883 96.705 74.9367C96.9904 75.3242 96.5002 75.9056 96.3174 76.3046C96.1531 76.5464 95.9699 76.775 95.7704 76.9886C95.4983 77.3158 95.1926 77.6139 94.8583 77.8777C94.5007 78.1803 94.0916 78.4159 93.6503 78.5732C93.08 78.8008 93.2284 79.1431 93.2966 79.7129C93.4384 80.6506 93.8969 81.5116 94.5963 82.1524C95.1763 82.6368 95.8581 82.9839 96.5914 83.1671C97.1317 83.3005 97.6933 83.3274 98.2442 83.2468Z" fill="#394556"/>
</svg>
