<svg width="500" height="500" viewBox="0 0 500 500" fill="none" xmlns="http://www.w3.org/2000/svg">
<rect width="500" height="500" fill="#FC814A"/>
<path d="M372.319 212.419V167.179C372.322 158.263 369.933 149.513 365.406 141.863C452.615 141.42 356.084 43.3551 354.429 128.958C345.69 121.678 334.716 117.707 323.396 117.728H312.881V112.975C312.868 104.234 309.431 95.854 303.322 89.6727C297.212 83.4914 288.93 80.013 280.291 80H219.928C211.289 80.013 203.007 83.4914 196.897 89.6727C190.788 95.854 187.351 104.234 187.338 112.975V117.728H176.75C165.43 117.707 154.456 121.678 145.717 128.958C144.062 43.429 47.531 141.42 134.715 141.863C130.215 149.52 127.851 158.27 127.876 167.179V212.419C113.867 217.508 101.752 226.848 93.1834 239.162C84.615 251.477 80.0111 266.166 80 281.227V333.904C80.0265 347.838 83.9849 361.475 91.4098 373.21C98.8347 384.946 109.417 394.292 121.913 400.15V402.046C121.889 406.368 123.415 410.552 126.209 413.822C129.002 417.091 132.873 419.225 137.103 419.826C141.333 420.428 145.635 419.456 149.21 417.093C152.786 414.729 155.393 411.133 156.548 406.972C173.589 406.605 190.412 403.022 206.152 396.407C218.59 391.703 229.324 387.64 249.963 387.64C270.603 387.64 281.435 391.703 293.775 396.407C309.543 403.015 326.389 406.597 343.452 406.972C344.607 411.133 347.214 414.729 350.79 417.093C354.365 419.456 358.667 420.428 362.897 419.826C367.127 419.225 370.998 417.091 373.791 413.822C376.585 410.552 378.111 406.368 378.087 402.046V400.15C390.59 394.282 401.177 384.923 408.602 373.174C416.027 361.425 419.982 347.775 420 333.83V281.227C420 266.191 415.423 251.52 406.892 239.209C398.361 226.898 386.289 217.544 372.319 212.419ZM211.19 112.975C211.19 110.631 212.111 108.382 213.75 106.724C215.388 105.066 217.611 104.134 219.928 104.134H280.291C281.438 104.134 282.574 104.363 283.634 104.807C284.695 105.252 285.658 105.903 286.469 106.724C287.281 107.545 287.924 108.519 288.363 109.592C288.803 110.665 289.029 111.814 289.029 112.975V117.728H211.142L211.19 112.975ZM151.729 167.155C151.748 160.449 154.391 154.023 159.08 149.284C163.769 144.544 170.122 141.876 176.75 141.863H323.396C326.685 141.86 329.943 142.512 332.982 143.782C336.022 145.053 338.785 146.917 341.113 149.268C343.441 151.619 345.288 154.41 346.55 157.484C347.812 160.557 348.463 163.851 348.466 167.179L349.001 212.419H152.264L151.729 167.155ZM396.415 333.904C396.408 346.903 391.3 359.369 382.213 368.559C373.125 377.749 360.803 382.911 347.955 382.911C326.512 382.911 314.756 378.503 302.342 373.799C288.931 368.874 275.082 363.53 250.061 363.53C232.136 363.293 214.355 366.797 197.828 373.824C185.415 378.503 173.707 382.911 152.264 382.911C139.425 382.898 127.115 377.73 118.038 368.541C108.961 359.353 103.859 346.895 103.853 333.904V281.227C103.872 268.244 108.98 255.799 118.055 246.621C127.13 237.443 139.433 232.281 152.264 232.268H347.955C360.795 232.268 373.109 237.424 382.195 246.603C391.281 255.783 396.396 268.235 396.415 281.227V333.904Z" fill="white"/>
<path d="M140.849 255.615C132.549 259.777 129.385 272.09 133.766 283.566C138.147 295.042 148.37 300.805 156.767 296.914C165.164 293.023 168.231 280.389 163.85 268.962C159.469 257.535 149.173 251.6 140.849 255.615Z" fill="white"/>
<path d="M359.346 255.615C351.046 251.601 340.75 257.585 336.369 268.963C331.988 280.34 335.152 292.875 343.452 296.914C351.752 300.953 362.047 294.969 366.453 283.566C370.858 272.164 367.67 259.777 359.346 255.615Z" fill="white"/>
<path d="M205.446 190.35C215.888 190.35 224.383 201.974 224.383 191.384C224.207 186.419 222.133 181.716 218.599 178.265C215.065 174.815 210.345 172.887 205.434 172.887C200.523 172.887 195.804 174.815 192.269 178.265C188.735 181.716 186.662 186.419 186.486 191.384C186.486 201.974 194.98 190.35 205.446 190.35Z" fill="white"/>
<path d="M294.773 190.35C305.239 190.35 313.709 201.974 313.709 191.385C313.709 186.303 311.714 181.43 308.163 177.837C304.611 174.243 299.795 172.225 294.773 172.225C289.751 172.225 284.934 174.243 281.383 177.837C277.832 181.43 275.837 186.303 275.837 191.385C275.837 201.974 284.307 190.35 294.773 190.35Z" fill="white"/>
<path fill-rule="evenodd" clip-rule="evenodd" d="M151.729 167.155C151.748 160.449 154.391 154.023 159.08 149.284C163.769 144.544 170.122 141.876 176.75 141.863H323.396C326.685 141.86 329.943 142.512 332.982 143.782C336.022 145.053 338.785 146.917 341.113 149.268C343.441 151.619 345.288 154.41 346.55 157.484C347.812 160.557 348.463 163.851 348.466 167.179L349.001 212.419H152.264L151.729 167.155ZM224.383 191.384C224.383 201.974 215.888 190.35 205.446 190.35C194.98 190.35 186.486 201.974 186.486 191.384C186.662 186.419 188.735 181.716 192.269 178.265C195.804 174.815 200.523 172.887 205.434 172.887C210.345 172.887 215.065 174.815 218.599 178.265C222.133 181.716 224.207 186.419 224.383 191.384ZM313.709 191.385C313.709 201.974 305.239 190.35 294.773 190.35C284.307 190.35 275.837 201.974 275.837 191.385C275.837 186.303 277.832 181.43 281.383 177.837C284.934 174.243 289.751 172.225 294.773 172.225C299.795 172.225 304.611 174.243 308.163 177.837C311.714 181.43 313.709 186.303 313.709 191.385Z" fill="#FC814A"/>
<path fill-rule="evenodd" clip-rule="evenodd" d="M396.415 333.904C396.408 346.903 391.3 359.369 382.213 368.559C373.125 377.749 360.803 382.911 347.955 382.911C326.512 382.911 314.756 378.503 302.342 373.799C288.931 368.874 275.082 363.53 250.061 363.53C232.136 363.293 214.355 366.797 197.828 373.824C185.415 378.503 173.707 382.911 152.264 382.911C139.425 382.898 127.115 377.73 118.038 368.541C108.961 359.353 103.859 346.895 103.853 333.904V281.227C103.872 268.244 108.98 255.799 118.055 246.621C127.13 237.443 139.433 232.281 152.264 232.268H347.955C360.795 232.268 373.109 237.424 382.195 246.603C391.281 255.783 396.396 268.235 396.415 281.227V333.904ZM133.766 283.566C129.385 272.09 132.549 259.777 140.849 255.615C149.173 251.6 159.469 257.535 163.85 268.962C168.231 280.389 165.164 293.023 156.767 296.914C148.37 300.805 138.147 295.042 133.766 283.566ZM336.369 268.963C340.75 257.585 351.046 251.601 359.346 255.615C367.67 259.777 370.858 272.164 366.453 283.566C362.047 294.969 351.752 300.953 343.452 296.914C335.152 292.875 331.988 280.34 336.369 268.963Z" fill="#FC814A"/>
</svg>
