<svg width="184" height="184" viewBox="0 0 184 184" fill="none" xmlns="http://www.w3.org/2000/svg">
<rect width="184" height="184" fill="#F47A20"/>
<path fill-rule="evenodd" clip-rule="evenodd" d="M19 92C19 110.778 51.6832 126 92 126C96.2623 125.946 105.722 125.673 109.463 125.021C100.079 124.203 76.8274 119.653 62.7046 107.489C48.5817 95.3244 53.8937 81.013 58.315 75.3778C61.6299 92.4199 80.7607 96.271 96.3303 99.4052C96.8958 99.519 97.4566 99.6319 98.0117 99.7444C110.684 102.313 146.478 100.909 163.05 99.8389C164.62 97.6478 165.004 93.7 165 92C165 73.2223 132.317 58 92 58C51.6832 58 19 73.2223 19 92ZM99.1686 90.4889V76.2089L96.5406 76.1919V73.1999H99.1686V71.9079C99.1686 70.9106 99.3175 70.0152 99.6152 69.2219C99.9244 68.4286 100.359 67.7542 100.921 67.1989C101.493 66.6436 102.186 66.2186 102.999 65.9239C103.812 65.6292 104.728 65.4819 105.747 65.4819C106.56 65.4819 107.316 65.5896 108.014 65.8049L107.65 68.8139C107.607 68.8053 107.56 68.7956 107.51 68.7853C107.199 68.7213 106.773 68.6333 106.469 68.6439C105.965 68.6439 105.512 68.7006 105.112 68.8139C104.722 68.9159 104.39 69.1029 104.115 69.3749C103.841 69.6356 103.629 69.9869 103.48 70.4289C103.342 70.8596 103.274 71.3979 103.274 72.0439V73.1999H107.86V76.1919H103.411V90.4889H99.1686ZM120.87 77.0589C121.185 77.2667 121.486 77.55 121.486 77.55L123.515 75.2059C122.725 74.4239 121.832 73.8232 120.836 73.4039C119.851 72.9846 118.7 72.7749 117.383 72.7749C115.998 72.7749 114.773 73.0016 113.708 73.4549C112.643 73.9082 111.75 74.5372 111.028 75.3419C110.307 76.1352 109.757 77.0816 109.379 78.1809C109.013 79.2689 108.83 80.4532 108.83 81.7339C108.83 83.1619 109.036 84.4369 109.448 85.5589C109.872 86.6696 110.444 87.6102 111.166 88.3809C111.887 89.1516 112.729 89.7409 113.69 90.1489C114.652 90.5456 115.677 90.7439 116.765 90.7439C117.383 90.7439 118.002 90.6986 118.62 90.6079C119.25 90.5172 119.857 90.3642 120.441 90.1489C121.036 89.9222 121.609 89.6276 122.158 89.2649C122.708 88.8909 123.218 88.4319 123.687 87.8879C123.212 87.2922 121.677 85.6722 121.677 85.6722C121.677 85.6722 120.877 86.3333 120.235 86.7659C119.948 86.9586 119.593 87.1399 119.17 87.3099C118.758 87.4686 118.214 87.5479 117.538 87.5479C116.862 87.5479 116.256 87.4232 115.717 87.1739C115.179 86.9132 114.721 86.5392 114.343 86.0519C113.965 85.5532 113.673 84.9412 113.467 84.2159C113.273 83.4906 113.175 82.6632 113.175 81.7339C113.175 80.8386 113.267 80.0396 113.45 79.3369C113.633 78.6229 113.908 78.0166 114.274 77.5179C114.652 77.0192 115.122 76.6396 115.683 76.3789C116.244 76.1069 116.897 75.9709 117.641 75.9709C118.225 75.9709 118.712 76.0389 119.101 76.1749C119.502 76.2996 119.845 76.4469 120.132 76.6169C120.418 76.7756 120.664 76.9229 120.87 77.0589ZM93.7253 90.4889V73.0469H89.4827V85.6609C88.9101 86.2276 88.3032 86.6752 87.662 87.0039C87.0207 87.3212 86.3337 87.4799 85.6008 87.4799C84.6046 87.4799 83.8545 87.1909 83.3507 86.6129C82.8583 86.0236 82.6121 85.1962 82.6121 84.1309V73.0469H78.3695V84.1309C78.3695 85.1056 78.4955 86.0009 78.7474 86.8169C79.0108 87.6216 79.3944 88.3186 79.8982 88.9079C80.4021 89.4972 81.0204 89.9562 81.7533 90.2849C82.4976 90.6022 83.3507 90.7609 84.3126 90.7609C85.492 90.7609 86.5169 90.5399 87.3872 90.0979C88.2574 89.6446 89.0533 89.0552 89.7747 88.3299L89.9006 90.4889H93.7253ZM141.621 90.4889V73.0469H137.378V85.6609C136.806 86.2276 136.199 86.6752 135.558 87.0039C134.916 87.3212 134.229 87.4799 133.496 87.4799C132.5 87.4799 131.75 87.1909 131.246 86.6129C130.754 86.0236 130.508 85.1962 130.508 84.1309V73.0469H126.265V84.1309C126.265 85.1056 126.391 86.0009 126.643 86.8169C126.906 87.6216 127.29 88.3186 127.794 88.9079C128.298 89.4972 128.916 89.9562 129.649 90.2849C130.393 90.6022 131.246 90.7609 132.208 90.7609C133.388 90.7609 134.412 90.5399 135.283 90.0979C136.153 89.6446 136.949 89.0552 137.67 88.3299L137.796 90.4889H141.621Z" fill="white"/>
</svg>
