<svg width="181" height="49" viewBox="0 0 181 49" fill="none" xmlns="http://www.w3.org/2000/svg">
<g clip-path="url(#clip0_4_61)">
<path d="M60.9463 17.8801C60.9463 16.8961 61.7243 16.1182 62.7082 16.1182H68.3836C70.2138 16.1182 71.6556 16.6213 72.5713 17.537C73.3033 18.2691 73.6694 19.1618 73.6694 20.2599V20.3058C73.6694 22.1137 72.7084 23.1206 71.5644 23.7609C73.4175 24.4706 74.5621 25.6471 74.5621 27.7985V27.8444C74.5621 30.7734 72.1823 32.2381 68.5666 32.2381H62.7088C61.7248 32.2381 60.9468 31.4601 60.9468 30.4762L60.9463 17.8801ZM67.628 22.5939C69.184 22.5939 70.1679 22.0907 70.1679 20.9008V20.8549C70.1679 19.8021 69.344 19.2071 67.8569 19.2071H64.3784V22.5939H67.628ZM68.566 29.148C70.122 29.148 71.0606 28.5989 71.0606 27.409V27.3631C71.0606 26.2874 70.2597 25.6241 68.4519 25.6241H64.3784V29.148H68.566Z" fill="#003333"/>
<path d="M77.2588 21.5774C77.2588 20.6164 78.0368 19.8384 78.9978 19.8384C79.9588 19.8384 80.7368 20.6164 80.7368 21.5774V30.4979C80.7368 31.4589 79.9588 32.2369 78.9978 32.2369C78.0368 32.2369 77.2588 31.4589 77.2588 30.4979V21.5774Z" fill="#003333"/>
<path d="M84.0098 21.5774C84.0098 20.6164 84.7878 19.8385 85.7488 19.8385C86.7098 19.8385 87.4877 20.6164 87.4877 21.5774V22.1265C87.9909 20.9366 88.8154 19.8379 89.8446 19.8379C90.8739 19.8379 91.5377 20.5476 91.5377 21.5315C91.5377 22.4467 90.9428 22.9963 90.2336 23.1564C88.4717 23.5683 87.4877 24.9183 87.4877 27.3899V30.4985C87.4877 31.4595 86.7098 32.2375 85.7488 32.2375C84.7878 32.2375 84.0098 31.4595 84.0098 30.4985V21.5774Z" fill="#003333"/>
<path d="M105.68 30.4991C105.68 31.4601 104.902 32.2381 103.941 32.2381C102.98 32.2381 102.202 31.4601 102.202 30.4991V30.339C101.356 31.4831 100.189 32.2381 98.3814 32.2381C95.5208 32.2381 92.7979 30.2282 92.7979 26.1318V26.0859C92.7979 21.9894 95.4749 19.8385 98.3814 19.8385C100.235 19.8385 101.379 20.5935 102.202 21.5775V17.8572C102.202 16.8961 102.98 16.1182 103.941 16.1182C104.902 16.1182 105.68 16.8961 105.68 17.8572V30.498V30.4991ZM96.2753 26.0864V26.1323C96.2753 28.1691 97.6482 29.5191 99.273 29.5191C100.898 29.5191 102.248 28.1691 102.248 26.1323V26.0864C102.248 24.0497 100.898 22.6997 99.273 22.6997C97.6482 22.6997 96.2753 24.0273 96.2753 26.0864Z" fill="#003333"/>
<path d="M150.822 30.4991C150.822 31.4601 150.044 32.2381 149.083 32.2381C148.122 32.2381 147.344 31.4601 147.344 30.4991V30.339C146.497 31.4831 145.331 32.2381 143.523 32.2381C140.662 32.2381 137.939 30.2282 137.939 26.1318V26.0859C137.939 21.9894 140.616 19.8385 143.523 19.8385C145.376 19.8385 146.521 20.5935 147.344 21.5775V17.8572C147.344 16.8961 148.122 16.1182 149.083 16.1182C150.044 16.1182 150.822 16.8961 150.822 17.8572V30.498V30.4991ZM141.417 26.0864V26.1323C141.417 28.1691 142.79 29.5191 144.415 29.5191C146.039 29.5191 147.389 28.1691 147.389 26.1323V26.0864C147.389 24.0497 146.039 22.6997 144.415 22.6997C142.79 22.6997 141.417 24.0273 141.417 26.0864Z" fill="#003333"/>
<path d="M166.266 30.4991C166.266 31.4601 165.488 32.2381 164.527 32.2381C163.566 32.2381 162.788 31.4601 162.788 30.4991V30.339C161.942 31.4831 160.775 32.2381 158.967 32.2381C156.107 32.2381 153.384 30.2282 153.384 26.1318V26.0859C153.384 21.9894 156.061 19.8385 158.967 19.8385C160.821 19.8385 161.965 20.5935 162.788 21.5775V17.8572C162.788 16.8961 163.566 16.1182 164.527 16.1182C165.488 16.1182 166.266 16.8961 166.266 17.8572V30.498V30.4991ZM156.861 26.0864V26.1323C156.861 28.1691 158.234 29.5191 159.859 29.5191C161.484 29.5191 162.834 28.1691 162.834 26.1323V26.0864C162.834 24.0497 161.484 22.6997 159.859 22.6997C158.234 22.6997 156.861 24.0273 156.861 26.0864Z" fill="#003333"/>
<path d="M108.789 17.8572C108.789 16.8961 109.567 16.1182 110.528 16.1182C111.489 16.1182 112.267 16.8961 112.267 17.8572V21.5775C113.091 20.5935 114.235 19.8385 116.088 19.8385C118.995 19.8385 121.672 21.9894 121.672 26.0859V26.1318C121.672 30.2282 118.949 32.2381 116.088 32.2381C114.28 32.2381 113.113 31.4825 112.267 30.339V30.4991C112.267 31.4601 111.489 32.2381 110.528 32.2381C109.567 32.2381 108.789 31.4601 108.789 30.4991V17.8583V17.8572ZM115.197 22.6986C113.572 22.6986 112.222 24.0486 112.222 26.0853V26.1312C112.222 28.1679 113.572 29.5179 115.197 29.5179C116.821 29.5179 118.194 28.1679 118.194 26.1312V26.0853C118.194 24.0256 116.821 22.6986 115.197 22.6986Z" fill="#003333"/>
<path d="M135.378 30.4984C135.378 31.4594 134.6 32.2374 133.639 32.2374C132.678 32.2374 131.9 31.4594 131.9 30.4984V30.3607C131.099 31.3906 130.069 32.2374 128.307 32.2374C125.676 32.2374 124.143 30.7307 124.143 27.916V21.5774C124.143 20.6164 124.921 19.8384 125.882 19.8384C126.843 19.8384 127.621 20.6164 127.621 21.5774V26.8173C127.621 28.465 128.399 29.3113 129.726 29.3113C131.053 29.3113 131.899 28.4645 131.899 26.8173V21.5774C131.899 20.6164 132.677 19.8384 133.638 19.8384C134.599 19.8384 135.377 20.6164 135.377 21.5774V30.4979L135.378 30.4984Z" fill="#003333"/>
<path d="M170.019 35.6501C169.515 35.4671 168.92 35.0552 168.92 34.2083C168.92 33.3615 169.584 32.7895 170.293 32.7895C170.568 32.7895 170.728 32.8354 170.865 32.8813C171.162 32.9731 171.345 33.0184 171.597 33.0184C172.215 33.0184 172.513 32.9042 172.833 32.2863L172.948 32.0115L168.76 22.3091C168.668 22.0802 168.577 21.7371 168.577 21.5082C168.577 20.5242 169.332 19.8375 170.293 19.8375C171.163 19.8375 171.666 20.3183 171.964 21.1416L174.618 28.2811L177.181 21.1645C177.456 20.4319 177.959 19.8369 178.852 19.8369C179.744 19.8369 180.499 20.5237 180.499 21.4388C180.499 21.713 180.408 22.102 180.339 22.2627L176.06 32.5371C175.03 35.0311 174 35.9697 171.918 35.9697C171.14 35.9697 170.591 35.8555 170.019 35.6501Z" fill="#003333"/>
<path d="M78.9993 18.1334C80.1121 18.1334 81.0142 17.2312 81.0142 16.1184C81.0142 15.0056 80.1121 14.1035 78.9993 14.1035C77.8865 14.1035 76.9844 15.0056 76.9844 16.1184C76.9844 17.2312 77.8865 18.1334 78.9993 18.1334Z" fill="#003333"/>
<path d="M24.679 0C11.3252 0 0.5 10.8252 0.5 24.179C0.5 37.5329 11.3252 48.3581 24.679 48.3581C38.0329 48.3581 48.8581 37.5329 48.8581 24.179C48.8581 10.8252 38.0329 0 24.679 0ZM27.2878 37.6119H21.9925C17.1701 37.6119 13.2612 33.7029 13.2612 28.8805V28.2576C13.2612 27.5451 12.978 26.8617 12.4742 26.358L11.0867 24.9705C10.6496 24.5333 10.6496 23.8248 11.0867 23.3876L12.4742 22.0001C12.978 21.4964 13.2612 20.813 13.2612 20.1005V19.4776C13.2612 14.6552 17.1701 10.7462 21.9925 10.7462H25.9356C30.4081 10.7462 34.1212 14.4061 34.0815 18.8787C34.0775 19.3634 34.0305 19.8375 33.9443 20.2981C33.6936 21.6363 33.9801 23.021 34.7162 24.1662C35.5932 25.5307 36.1003 27.1555 36.0969 28.899C36.0869 33.7264 32.1152 37.6119 27.2878 37.6119Z" fill="#00CC66"/>
<path d="M21.3206 21.1564C21.3206 22.4426 20.2885 23.487 19.0074 23.5066C19.0051 23.5071 19.0023 23.5071 18.9995 23.5071H18.9699C18.905 23.5071 18.8412 23.5043 18.7779 23.4993C17.6328 23.407 16.7193 22.4935 16.627 21.3484C16.6219 21.2851 16.6191 21.2213 16.6191 21.1564C16.6191 20.9678 16.6415 20.7848 16.6835 20.609C16.7619 20.2794 16.9096 19.9766 17.1111 19.7174C17.541 19.1628 18.2137 18.8057 18.9699 18.8057C19.6141 18.8057 20.1979 19.0648 20.6227 19.4846C21.0363 19.8932 21.2988 20.4545 21.3195 21.0769C21.3201 21.1032 21.3206 21.1295 21.3206 21.1564Z" fill="#00CC66"/>
</g>
<defs>
<clipPath id="clip0_4_61">
<rect width="181" height="49" fill="white"/>
</clipPath>
</defs>
</svg>
