<svg width="508" height="138" viewBox="0 0 508 138" fill="none" xmlns="http://www.w3.org/2000/svg">
<path d="M39.4982 78.8001H78.4982V98.3001H39.4982V78.8001Z" fill="#E63946"/>
<path d="M507.498 20.3001V0.800079L39.4982 0.800064V20.3001L136.998 20.3001V137.3H156.498V20.3001L507.498 20.3001Z" fill="#E63946"/>
<path d="M390.498 39.8001V59.3001L292.998 59.3001V39.8001L390.498 39.8001Z" fill="black"/>
<path d="M390.498 78.8001V98.3001H292.998V78.8001H390.498Z" fill="black"/>
<path d="M390.498 117.8V137.3H292.998V117.8L390.498 117.8Z" fill="black"/>
<path d="M273.498 39.8V98.3H244.387L283.388 137.302H255.811L216.81 98.3H195.498V137.3H175.998V78.8H253.998V59.3L175.998 59.3V39.8H273.498Z" fill="black"/>
<path d="M507.498 39.8V59.3H429.498V78.8H507.498V137.3H409.998V117.8L487.998 117.8V98.3H409.998V39.8H507.498Z" fill="black"/>
<path d="M19.9982 0.800049H0.498169V137.3L117.498 137.3V117.8L19.9982 117.8V0.800049Z" fill="black"/>
<path d="M39.4982 39.8V59.3L97.9982 59.3V98.3H117.498V39.8H39.4982Z" fill="black"/>
</svg>
