<svg width="1934" height="438" viewBox="0 0 1934 438" fill="none" xmlns="http://www.w3.org/2000/svg">
<path fill-rule="evenodd" clip-rule="evenodd" d="M76.9721 73.373L322.574 106.06L31.625 247.525L76.9721 73.373ZM56.388 217.377L266.837 115.052L89.1884 91.409L56.388 217.377Z" fill="#D9E021"/>
<path fill-rule="evenodd" clip-rule="evenodd" d="M56.6113 148.942L255.282 1.90039L146.647 304.983L56.6113 148.942ZM143.174 266.308L221.783 46.9958L78.0235 153.396L143.174 266.308Z" fill="#00FFFF"/>
<path fill-rule="evenodd" clip-rule="evenodd" d="M157.118 37.9629L307.082 233.967L0.839844 128.909L157.118 37.9629ZM39.9041 125.057L261.323 201.016L152.896 59.3015L39.9041 125.057Z" fill="#ED1E79"/>
<path d="M530.2 4H353V304H539.4V278H381V164.4H511.8V138.4H381V30.4H530.2V4Z" fill="black"/>
<path d="M621.122 4H592.722V201.2C592.722 265.6 628.322 308 704.322 308C780.322 308 815.922 265.6 815.922 201.2V4H787.122V200C787.122 247.6 764.322 282 704.322 282C643.522 282 621.122 247.2 621.122 200V4Z" fill="black"/>
<path d="M1006.67 166.4H928.666V30.4H1006.67C1061.47 30.4 1085.87 54.8 1085.87 98.8V99.6C1085.87 142.4 1061.07 166.4 1006.67 166.4ZM1114.67 93.6C1114.67 41.2 1082.27 4 1007.47 4H900.266V304H928.666V191.2H1018.27L1084.27 304H1117.47L1046.67 185.6C1091.07 175.6 1114.67 146.8 1114.67 101.2V93.6Z" fill="black"/>
<path d="M1363.4 4H1186.2V304H1372.6V278H1214.2V164.4H1345V138.4H1214.2V30.4H1363.4V4Z" fill="black"/>
<path d="M1527.1 163.2L1628.3 304H1661.9L1551.5 148L1656.7 4H1623.5L1525.9 136.8H1460.7V4H1432.3V304H1460.7V163.2H1527.1Z" fill="black"/>
<path d="M388.328 338.72C365.416 338.72 354.024 348.576 354.024 364.32V365.088C354.024 385.312 368.616 388 385.896 391.84C402.536 395.552 413.288 398.624 413.288 410.528V412.192C413.288 420.256 407.912 429.088 388.072 429.088C366.824 429.088 361.832 419.616 361.832 408.992V406.688H353V409.76C353 426.4 363.368 437.408 388.2 437.408C411.112 437.408 422.504 426.528 422.504 412.064V411.04C422.504 391.584 407.272 387.488 391.144 383.904C374.248 380.064 363.24 378.656 363.24 365.344V364.32C363.24 354.08 370.28 347.168 388.584 347.168C406.632 347.168 413.416 355.488 413.416 367.136V368.928H422.12V366.24C422.12 349.728 411.752 338.72 388.328 338.72Z" fill="black"/>
<path d="M514.484 403.104V372.128C514.484 352.16 503.092 338.72 478.644 338.72C454.068 338.72 442.676 352.16 442.676 372.128V403.104C442.676 423.712 454.068 437.28 478.644 437.28C503.092 437.28 514.484 423.712 514.484 403.104ZM451.892 403.744V372.384C451.892 358.176 458.932 347.168 478.516 347.168C498.228 347.168 505.268 358.176 505.268 372.384V403.744C505.268 417.824 498.228 428.96 478.516 428.96C458.932 428.96 451.892 417.824 451.892 403.744Z" fill="black"/>
<path d="M596.449 340H540.001V436H549.089V394.912H590.561V386.464H549.089V348.448H596.449V340Z" fill="black"/>
<path d="M633.323 436H642.539V348.448H674.027V340H601.963V348.448H633.323V436Z" fill="black"/>
<path d="M770.504 436H784.2L810.312 340H800.712L783.304 405.408C781.128 413.728 778.952 422.176 777.672 428.576H777.032C775.24 421.792 772.808 412.96 770.376 404.64L751.56 339.488H739.272L720.328 404.384C717.768 413.088 715.336 422.432 713.544 428.576H712.904C711.496 422.432 709.32 413.6 707.144 405.152L690.12 340H680.264L706.376 436H720.2L735.304 383.648C738.76 371.744 741.448 361.888 745.288 348.448H745.544C749.384 361.76 751.944 371.744 755.4 383.648L770.504 436Z" fill="black"/>
<path d="M835.431 373.536C835.431 357.92 842.471 347.168 861.671 347.168C880.743 347.168 887.655 357.92 887.655 373.536V392.608H835.431V373.536ZM887.655 436H896.871V372.896C896.871 352.416 885.735 338.72 861.671 338.72C837.479 338.72 826.215 352.416 826.215 372.896V436H835.431V400.928H887.655V436Z" fill="black"/>
<path d="M958.174 391.968H933.214V348.448H958.174C975.71 348.448 983.518 356.256 983.518 370.336V370.592C983.518 384.288 975.582 391.968 958.174 391.968ZM992.734 368.672C992.734 351.904 982.366 340 958.43 340H924.126V436H933.214V399.904H961.886L983.006 436H993.63L970.974 398.112C985.182 394.912 992.734 385.696 992.734 371.104V368.672Z" fill="black"/>
<path d="M1072.33 340H1015.63V436H1075.27V427.68H1024.59V391.328H1066.44V383.008H1024.59V348.448H1072.33V340Z" fill="black"/>
<path d="M1741.06 108.8C1741.06 60 1763.06 26.4 1823.06 26.4C1882.66 26.4 1904.26 60 1904.26 108.8V304H1933.06V106.8C1933.06 42.8 1898.26 0 1823.06 0C1747.46 0 1712.26 42.8 1712.26 106.8V304H1741.06V194.4H1842.66V168.4H1741.06V108.8Z" fill="black"/>
</svg>
