<svg width="301" height="36" viewBox="0 0 301 36" fill="none" xmlns="http://www.w3.org/2000/svg">
<path d="M153.072 34.9999H174.48V28.9039H159.6V0.439941H153.072V34.9999Z" fill="black"/>
<path d="M188.689 35.7199C191.185 35.7199 193.481 35.0639 195.577 33.7519C197.689 32.4399 199.233 30.5999 200.209 28.2319L193.681 26.3599C192.689 28.5359 190.897 29.6239 188.305 29.6239C186.529 29.6239 185.129 29.1279 184.105 28.1359C183.097 27.1439 182.473 25.7199 182.233 23.8639H200.425C200.697 20.7279 200.377 17.9999 199.465 15.6799C198.553 13.3599 197.145 11.5599 195.241 10.2799C193.337 8.99994 191.025 8.35994 188.305 8.35994C185.745 8.35994 183.481 8.94394 181.513 10.1119C179.545 11.2639 178.001 12.8879 176.881 14.9839C175.761 17.0799 175.201 19.5439 175.201 22.3759C175.201 24.9679 175.769 27.2719 176.905 29.2879C178.057 31.2879 179.641 32.8639 181.657 34.0159C183.689 35.1519 186.033 35.7199 188.689 35.7199ZM188.593 14.0239C190.161 14.0239 191.361 14.4159 192.193 15.1999C193.041 15.9839 193.585 17.2559 193.825 19.0159H182.401C183.089 15.6879 185.153 14.0239 188.593 14.0239Z" fill="black"/>
<path d="M210.655 35.7199C212.655 35.7199 214.335 35.4159 215.695 34.8079C217.071 34.1839 218.335 33.1919 219.487 31.8319V34.9999H225.199V19.1599C225.199 17.9759 225.151 16.9039 225.055 15.9439C224.959 14.9839 224.655 14.0239 224.143 13.0639C223.231 11.3359 221.887 10.1199 220.111 9.41594C218.335 8.71194 216.303 8.35994 214.015 8.35994C210.895 8.35994 208.431 9.03194 206.623 10.3759C204.815 11.7199 203.583 13.4639 202.927 15.6079L208.831 17.4799C209.247 16.2959 209.975 15.4719 211.015 15.0079C212.055 14.5439 213.055 14.3119 214.015 14.3119C215.551 14.3119 216.695 14.5999 217.447 15.1759C218.199 15.7359 218.639 16.6239 218.767 17.8399C216.335 18.1919 214.191 18.5359 212.335 18.8719C210.479 19.1919 208.927 19.5759 207.679 20.0239C205.599 20.7919 204.135 21.8399 203.287 23.1679C202.439 24.4799 202.015 26.0399 202.015 27.8479C202.015 29.2879 202.343 30.6079 202.999 31.8079C203.671 32.9919 204.647 33.9439 205.927 34.6639C207.223 35.3679 208.799 35.7199 210.655 35.7199ZM212.047 30.5839C210.927 30.5839 210.039 30.3359 209.383 29.8399C208.727 29.3279 208.399 28.6319 208.399 27.7519C208.399 27.0959 208.607 26.5359 209.023 26.0719C209.439 25.5919 210.127 25.1599 211.087 24.7759C211.823 24.5039 212.727 24.2559 213.799 24.0319C214.887 23.7919 216.527 23.4879 218.719 23.1199C218.703 23.7439 218.655 24.4319 218.575 25.1839C218.495 25.9199 218.319 26.5679 218.047 27.1279C217.871 27.4959 217.535 27.9519 217.039 28.4959C216.559 29.0399 215.903 29.5279 215.071 29.9599C214.255 30.3759 213.247 30.5839 212.047 30.5839Z" fill="black"/>
<path d="M240.031 35.7199C241.455 35.7199 242.751 35.5279 243.919 35.1439C245.087 34.7599 246.127 34.2159 247.039 33.5119V34.9999H252.799V0.439941H246.223V9.94394C245.423 9.43194 244.527 9.03994 243.535 8.76794C242.559 8.49594 241.503 8.35994 240.367 8.35994C237.887 8.35994 235.727 8.95194 233.887 10.1359C232.047 11.3199 230.615 12.9439 229.591 15.0079C228.583 17.0559 228.079 19.3999 228.079 22.0399C228.079 24.6319 228.575 26.9599 229.567 29.0239C230.575 31.0879 231.975 32.7199 233.767 33.9199C235.559 35.1199 237.647 35.7199 240.031 35.7199ZM241.087 29.9119C239.679 29.9119 238.527 29.5599 237.631 28.8559C236.735 28.1519 236.071 27.2079 235.639 26.0239C235.207 24.8239 234.991 23.4959 234.991 22.0399C234.991 20.5999 235.215 19.2879 235.663 18.1039C236.111 16.9039 236.799 15.9519 237.727 15.2479C238.671 14.5279 239.871 14.1679 241.327 14.1679C243.375 14.1679 244.839 14.8959 245.719 16.3519C246.599 17.7919 247.039 19.6879 247.039 22.0399C247.039 24.3919 246.591 26.2959 245.695 27.7519C244.815 29.1919 243.279 29.9119 241.087 29.9119Z" fill="black"/>
<path d="M269.647 35.7199C272.143 35.7199 274.439 35.0639 276.535 33.7519C278.647 32.4399 280.191 30.5999 281.167 28.2319L274.639 26.3599C273.647 28.5359 271.855 29.6239 269.263 29.6239C267.487 29.6239 266.087 29.1279 265.063 28.1359C264.055 27.1439 263.431 25.7199 263.191 23.8639H281.383C281.655 20.7279 281.335 17.9999 280.423 15.6799C279.511 13.3599 278.103 11.5599 276.199 10.2799C274.295 8.99994 271.983 8.35994 269.263 8.35994C266.703 8.35994 264.439 8.94394 262.471 10.1119C260.503 11.2639 258.959 12.8879 257.839 14.9839C256.719 17.0799 256.159 19.5439 256.159 22.3759C256.159 24.9679 256.727 27.2719 257.863 29.2879C259.015 31.2879 260.599 32.8639 262.615 34.0159C264.647 35.1519 266.991 35.7199 269.647 35.7199ZM269.551 14.0239C271.119 14.0239 272.319 14.4159 273.151 15.1999C273.999 15.9839 274.543 17.2559 274.783 19.0159H263.359C264.047 15.6879 266.111 14.0239 269.551 14.0239Z" fill="black"/>
<path d="M284.883 34.9999H291.459V21.7519C291.459 18.7439 292.643 16.6959 295.011 15.6079C295.779 15.2399 296.635 15.0239 297.579 14.9599C298.539 14.8799 299.379 14.9519 300.099 15.1759V9.07994C298.931 8.93594 297.763 8.96794 296.595 9.17594C295.427 9.36794 294.371 9.75194 293.427 10.3279C292.819 10.6799 292.283 11.1039 291.819 11.5999C291.371 12.0959 290.979 12.6479 290.643 13.2559V9.07994H284.883V34.9999Z" fill="black"/>
<path d="M41.6782 34.9999H48.2062V20.9839H59.9182V14.4559H48.2062V6.96794H62.7982V0.439941H41.6782V34.9999Z" fill="black"/>
<path d="M76.1722 35.7199C78.7642 35.7199 81.0442 35.1439 83.0122 33.9919C84.9962 32.8239 86.5402 31.2159 87.6442 29.1679C88.7642 27.1039 89.3242 24.7279 89.3242 22.0399C89.3242 19.3679 88.7722 17.0079 87.6682 14.9599C86.5642 12.8959 85.0202 11.2799 83.0362 10.1119C81.0682 8.94394 78.7802 8.35994 76.1722 8.35994C73.6122 8.35994 71.3482 8.93594 69.3802 10.0879C67.4122 11.2399 65.8682 12.8479 64.7482 14.9119C63.6282 16.9599 63.0682 19.3359 63.0682 22.0399C63.0682 24.7119 63.6122 27.0799 64.7002 29.1439C65.8042 31.1919 67.3402 32.7999 69.3082 33.9679C71.2762 35.1359 73.5642 35.7199 76.1722 35.7199ZM76.1722 29.6239C74.1402 29.6239 72.5962 28.9439 71.5402 27.5839C70.5002 26.2079 69.9802 24.3599 69.9802 22.0399C69.9802 19.7839 70.4762 17.9599 71.4682 16.5679C72.4762 15.1599 74.0442 14.4559 76.1722 14.4559C78.2362 14.4559 79.7882 15.1439 80.8282 16.5199C81.8842 17.8959 82.4122 19.7359 82.4122 22.0399C82.4122 24.2639 81.8922 26.0879 80.8522 27.5119C79.8282 28.9199 78.2682 29.6239 76.1722 29.6239Z" fill="black"/>
<path d="M92.682 34.9999H99.258V21.7519C99.258 18.7439 100.442 16.6959 102.81 15.6079C103.578 15.2399 104.434 15.0239 105.378 14.9599C106.338 14.8799 107.178 14.9519 107.898 15.1759V9.07994C106.73 8.93594 105.562 8.96794 104.394 9.17594C103.226 9.36794 102.17 9.75194 101.226 10.3279C100.618 10.6799 100.082 11.1039 99.618 11.5999C99.17 12.0959 98.778 12.6479 98.442 13.2559V9.07994H92.682V34.9999Z" fill="black"/>
<path d="M110.495 34.9999H117.071V19.3039C117.071 17.8159 117.479 16.6079 118.295 15.6799C119.127 14.7359 120.223 14.2639 121.583 14.2639C123.007 14.2639 124.119 14.7439 124.919 15.7039C125.735 16.6479 126.143 17.9759 126.143 19.6879V34.9999H132.671V19.3039C132.671 17.8159 133.079 16.6079 133.895 15.6799C134.727 14.7359 135.823 14.2639 137.183 14.2639C138.607 14.2639 139.719 14.7439 140.519 15.7039C141.335 16.6479 141.743 17.9759 141.743 19.6879V34.9999H148.271V17.9599C148.271 15.1279 147.511 12.8399 145.991 11.0959C144.487 9.33594 142.255 8.45594 139.295 8.45594C137.631 8.45594 136.103 8.81594 134.711 9.53594C133.319 10.2559 132.207 11.2399 131.375 12.4879C130.703 11.2719 129.743 10.2959 128.495 9.55994C127.247 8.82394 125.695 8.45594 123.839 8.45594C122.271 8.45594 120.831 8.76794 119.519 9.39194C118.207 9.99994 117.119 10.8399 116.255 11.9119V9.07994H110.495V34.9999Z" fill="black"/>
<path d="M1.04904e-05 15.5556V33C1.04904e-05 34.1046 0.89544 35 2.00001 35H29.577C30.6816 35 31.577 34.1046 31.577 33V2C31.577 0.89543 30.6816 0 29.577 0H15.8451V13.5556C15.8451 14.6601 14.9497 15.5556 13.8451 15.5556L1.04904e-05 15.5556Z" fill="#0057FF"/>
<path d="M15.8451 13.5556C15.8451 14.6601 14.9497 15.5556 13.8451 15.5556H0L15.8451 0V13.5556Z" fill="#80ABFF"/>
</svg>
