<svg xmlns="http://www.w3.org/2000/svg" width="1401.38" height="266" viewBox="0 0 1401.38 266"><title>justuno-onwhite</title><path d="M1398.46,138.23a91.42,91.42,0,0,0-17.2-34.41,98.41,98.41,0,0,0-29.52-24.52,122.39,122.39,0,0,0-38-13.27,121.12,121.12,0,0,0-39.92-.48,96.76,96.76,0,0,0-36,13A92.76,92.76,0,0,0,1210.07,105q-11.57,16.58-15.62,39.61-4.12,23.38,1,43.08a94.1,94.1,0,0,0,17,34.72,97.53,97.53,0,0,0,29.29,24.84,121.41,121.41,0,0,0,78,13.74,99.22,99.22,0,0,0,36.19-13.29,92.84,92.84,0,0,0,28-26.79q11.59-16.75,15.72-40.13Q1403.65,157.76,1398.46,138.23ZM1340.55,162a5,5,0,0,1,3.2,6.67c-7.49,18.8-30.19,33.79-54.36,26.57-26.19-7.83-39.4-28-35.25-53.12a5,5,0,0,1,6.37-4Z" fill="#4ecd5f" fill-rule="evenodd"/><path d="M1046.86,66.42a9.76,9.76,0,0,1,9.77,9.77V87.62h.73Q1064.64,77,1079,69.16t32.89-7.86q20,0,33.27,7.31a59.91,59.91,0,0,1,21.08,18.83,72.8,72.8,0,0,1,10.9,25.77,134.16,134.16,0,0,1,3.09,28.51v107.2a9.77,9.77,0,0,1-9.76,9.77h-64.8a9.77,9.77,0,0,1-9.77-9.77V156.34q0-14.62-4.54-20.47T1077.72,130a16.54,16.54,0,0,0-13.64,6.76q-5.26,6.76-5.27,19.56v92.58a9.77,9.77,0,0,1-9.77,9.77H984.61a9.78,9.78,0,0,1-9.77-9.77V76.16a9.74,9.74,0,0,1,9.74-9.74Z" fill="#4ecd5f" fill-rule="evenodd"/><path d="M93.17,266a105.77,105.77,0,0,1-33.09-5.12A106.92,106.92,0,0,1,31.91,247a95.33,95.33,0,0,1-21.63-20.83A76,76,0,0,1,.73,209.65a9.76,9.76,0,0,1,5.6-12.79l56.43-21.69a9.88,9.88,0,0,1,12,3.84A27.18,27.18,0,0,0,77,182.14a12.78,12.78,0,0,0,10.36,4.57q8.37,0,11.27-5.66t2.91-14.44V9.8A9.8,9.8,0,0,1,111.32,0h67.31a9.79,9.79,0,0,1,9.79,9.8V163a174.49,174.49,0,0,1-3.82,35.81A88.56,88.56,0,0,1,170.24,232q-10.55,15-29.08,24.48t-48,9.5Z" fill="#4d4647" fill-rule="evenodd"/><path d="M337.34,258.69a9.8,9.8,0,0,1-9.8-9.8V237.5h-.73q-7.26,10.59-21.63,18.45t-32.9,7.85q-20.35,0-33.45-7.12A58.63,58.63,0,0,1,217.93,238,72.8,72.8,0,0,1,207,212.1a136.65,136.65,0,0,1-3.09-28.68V76.29a9.79,9.79,0,0,1,9.8-9.79h64.75a9.79,9.79,0,0,1,9.8,9.79v91.78q0,14.63,4.54,20.47t13.64,5.84a16.51,16.51,0,0,0,13.63-6.76q5.27-6.75,5.27-19.55V76.29a9.79,9.79,0,0,1,9.8-9.79h64.39a9.79,9.79,0,0,1,9.79,9.79V249a9.73,9.73,0,0,1-9.73,9.73Z" fill="#4d4647" fill-rule="evenodd"/><path d="M587.34,197.67q0,19.37-8.18,32.52a64.75,64.75,0,0,1-20.73,21A89.62,89.62,0,0,1,531,262.52,124.76,124.76,0,0,1,502.63,266a168.46,168.46,0,0,1-48.54-7.13A136.31,136.31,0,0,1,422.29,245a9.8,9.8,0,0,1-2.3-14.75l27.77-32.36a9.79,9.79,0,0,1,13.06-1.61,73.25,73.25,0,0,0,13.63,7.42,58.86,58.86,0,0,0,22.72,4.93,20.54,20.54,0,0,0,8.18-1.64,6,6,0,0,0,3.82-6q0-4.76-6.73-7.49T479,186.71a107.21,107.21,0,0,1-18.54-6.4,66.54,66.54,0,0,1-17.27-11.14,56.64,56.64,0,0,1-12.9-17q-5.1-10.05-5.09-23.93,0-18.65,8.18-31.79a68.25,68.25,0,0,1,20.72-21.37A91.24,91.24,0,0,1,481.36,63a110.3,110.3,0,0,1,27.81-3.84,151.47,151.47,0,0,1,44,6.58c10.78,3.25,18,7.54,25.7,12.71a9.83,9.83,0,0,1,2.51,13.94l-23,31.62A9.77,9.77,0,0,1,545.93,127,81,81,0,0,0,534.62,122a56,56,0,0,0-18.54-3.29,27.11,27.11,0,0,0-10.18,1.64q-4,1.65-4,6.4,0,3.64,4.54,5.66t20.91,5.3a108.83,108.83,0,0,1,22,6.76,76.71,76.71,0,0,1,19.27,11.69,53.16,53.16,0,0,1,13.64,17.35q5.09,10.24,5.09,24.12Z" fill="#4d4647" fill-rule="evenodd"/><path d="M693.49,263.8q-38.54,0-57.08-16.62t-18.54-51.7v-58.9a9.79,9.79,0,0,0-9.79-9.79h-7.32A9.79,9.79,0,0,1,591,117V76.29a9.79,9.79,0,0,1,9.79-9.79h7a9.8,9.8,0,0,0,9.8-9.8V33.18a9.79,9.79,0,0,1,9.79-9.8h61.85a9.8,9.8,0,0,1,9.8,9.8V56.7a9.79,9.79,0,0,0,9.79,9.8H730.6a9.79,9.79,0,0,1,9.79,9.79V117a9.79,9.79,0,0,1-9.79,9.8H708.74a9.79,9.79,0,0,0-9.79,9.79v41.36q0,13.89,6,18.82t16.54,4.93a94.41,94.41,0,0,0,9.56-.19h0c5.4-.89,10.15,2.87,11.18,8.24a114,114,0,0,0,10.24,30.06c2.52,5.27,1.72,11.22-3.41,14-21.83,11.85-48,10-55.57,10Z" fill="#4d4647" fill-rule="evenodd"/><path d="M886.69,258.69a9.77,9.77,0,0,1-9.76-9.77V237.48h-.73q-7.28,10.61-21.63,18.46t-32.9,7.86q-20.35,0-33.44-7.13A58.63,58.63,0,0,1,767.33,238a72.77,72.77,0,0,1-10.91-25.95,136.74,136.74,0,0,1-3.09-28.69V76.19a9.77,9.77,0,0,1,9.77-9.77h64.8a9.77,9.77,0,0,1,9.77,9.77V168q0,14.61,4.54,20.46t13.63,5.85a16.49,16.49,0,0,0,13.63-6.76q5.28-6.76,5.28-19.55V76.19a9.76,9.76,0,0,1,9.76-9.77H949a9.77,9.77,0,0,1,9.77,9.77V249a9.74,9.74,0,0,1-9.74,9.74Z" fill="#4ecd5f" fill-rule="evenodd"/></svg>