<svg width="93" height="26" viewBox="0 0 93 26" fill="none" xmlns="http://www.w3.org/2000/svg">
<path d="M20.1416 4.9244C20.1235 4.79527 20.0085 4.72361 19.9131 4.71581C19.8184 4.708 17.9633 4.68033 17.9633 4.68033C17.9633 4.68033 16.4118 3.20173 16.2586 3.05131C16.1053 2.9009 15.806 2.94631 15.6896 2.98036C15.6882 2.98107 15.3983 3.06905 14.9103 3.21734C14.8286 2.95766 14.7086 2.63838 14.5372 2.31769C13.9849 1.28323 13.1759 0.736207 12.1984 0.734788C12.197 0.734788 12.1963 0.734788 12.1948 0.734788C12.1269 0.734788 12.0596 0.741173 11.9917 0.746849C11.9628 0.712793 11.9338 0.679447 11.9035 0.646809C11.4777 0.199823 10.9318 -0.0179946 10.2776 0.00116196C9.01527 0.0366371 7.75805 0.93132 6.73868 2.52061C6.02151 3.63878 5.47567 5.0436 5.32096 6.13127C3.87143 6.57187 2.85785 6.87979 2.83544 6.88689C2.1038 7.11251 2.08067 7.1345 1.98524 7.81137C1.91439 8.32292 0 22.8507 0 22.8507L16.0431 25.5738L22.9965 23.8773C22.9965 23.8773 20.1596 5.05353 20.1416 4.9244ZM14.1071 3.46141C13.7376 3.57351 13.3176 3.70122 12.8621 3.83957C12.8527 3.21237 12.7768 2.33968 12.479 1.58548C13.4369 1.76357 13.9082 2.82711 14.1071 3.46141ZM12.0228 4.09499C11.182 4.35041 10.2645 4.62925 9.34421 4.90879C9.60303 3.93606 10.0939 2.96759 10.6969 2.33259C10.921 2.09632 11.2347 1.8331 11.6063 1.68268C11.9555 2.39786 12.0314 3.41032 12.0228 4.09499ZM10.3029 0.825604C10.5993 0.819219 10.8487 0.883074 11.062 1.02072C10.7207 1.19455 10.3911 1.44429 10.0816 1.76995C9.27987 2.61426 8.66536 3.92471 8.42028 5.18905C7.65611 5.42105 6.90857 5.6488 6.22032 5.8574C6.65482 3.86724 8.35449 0.880945 10.3029 0.825604Z" fill="#95BF47"/>
<path d="M19.9138 4.71653C19.8191 4.70872 17.964 4.68105 17.964 4.68105C17.964 4.68105 16.4125 3.20245 16.2593 3.05204C16.2022 2.99599 16.1248 2.9669 16.0438 2.95483L16.0445 25.5731L22.9972 23.8774C22.9972 23.8774 20.1603 5.05425 20.1423 4.92512C20.1242 4.79599 20.0085 4.72433 19.9138 4.71653Z" fill="#5E8E3E"/>
<path d="M12.1898 8.22513L11.3823 11.1901C11.3823 11.1901 10.4815 10.7879 9.41367 10.8538C7.84775 10.951 7.83112 11.9202 7.84702 12.1636C7.93233 13.4896 11.4871 13.7791 11.6866 16.8853C11.8435 19.3288 10.3658 21.0004 8.2367 21.1324C5.68104 21.2906 4.27417 19.8113 4.27417 19.8113L4.81566 17.5508C4.81566 17.5508 6.23194 18.5995 7.36553 18.5292C8.10584 18.4831 8.37044 17.8921 8.34369 17.4742C8.23236 15.7444 5.33764 15.8466 5.15473 13.0043C5.00074 10.6126 6.60137 8.18895 10.133 7.97042C11.4936 7.88457 12.1898 8.22513 12.1898 8.22513Z" fill="white"/>
<path d="M32.1531 14.4336C31.3536 14.0079 30.9427 13.649 30.9427 13.1557C30.9427 12.528 31.5135 12.1247 32.4048 12.1247C33.4424 12.1247 34.3688 12.5505 34.3688 12.5505L35.0995 10.3535C35.0995 10.3535 34.4276 9.83765 32.45 9.83765C29.6979 9.83765 27.7905 11.3844 27.7905 13.5589C27.7905 14.7918 28.6811 15.7334 29.8692 16.4054C30.8287 16.9431 31.1714 17.3245 31.1714 17.8847C31.1714 18.4673 30.6917 18.9381 29.8011 18.9381C28.4738 18.9381 27.2204 18.2654 27.2204 18.2654L26.4438 20.4624C26.4438 20.4624 27.6019 21.2245 29.5502 21.2245C32.3826 21.2245 34.4154 19.8572 34.4154 17.3913C34.4147 16.0698 33.3872 15.1282 32.1531 14.4336Z" fill="black"/>
<path d="M43.4368 9.81598C42.0435 9.81598 40.9471 10.4662 40.1024 11.4521L40.0565 11.4296L41.2669 5.2207H38.1147L35.0543 21.0234H38.2065L39.257 15.6216C39.6679 13.5816 40.7413 12.3268 41.7467 12.3268C42.4544 12.3268 42.729 12.7976 42.729 13.4704C42.729 13.8961 42.6831 14.412 42.5921 14.8377L41.4046 21.0241H44.5568L45.7902 14.6357C45.9271 13.963 46.0189 13.1565 46.0189 12.6182C46.0175 10.8694 45.081 9.81598 43.4368 9.81598Z" fill="black"/>
<path d="M53.1437 9.81592C49.3518 9.81592 46.84 13.1783 46.84 16.9214C46.84 19.3196 48.3472 21.2471 51.1796 21.2471C54.9026 21.2471 57.4152 17.9748 57.4152 14.1417C57.4152 11.9228 56.0901 9.81592 53.1437 9.81592ZM51.5905 18.8721C50.5171 18.8721 50.0603 17.9755 50.0603 16.8545C50.0603 15.0839 50.9968 12.1924 52.7098 12.1924C53.8292 12.1924 54.1942 13.1339 54.1942 14.053C54.1942 15.958 53.2584 18.8721 51.5905 18.8721Z" fill="black"/>
<path d="M65.4778 9.81592C63.3503 9.81592 62.1427 11.654 62.1427 11.654H62.0975L62.2804 9.99537H59.4939C59.3569 11.1164 59.1052 12.8194 58.8543 14.0973L56.6615 25.4166H59.8137L60.6813 20.8439H60.7502C60.7502 20.8439 61.397 21.2471 62.6002 21.2471C66.3002 21.2471 68.721 17.5265 68.721 13.7603C68.721 11.6765 67.7846 9.81592 65.4778 9.81592ZM62.4625 18.9164C61.6444 18.9164 61.1603 18.4681 61.1603 18.4681L61.686 15.5765C62.0517 13.6491 63.0792 12.3711 64.1756 12.3711C65.135 12.3711 65.4319 13.2451 65.4319 14.0748C65.4319 16.0699 64.2215 18.9164 62.4625 18.9164Z" fill="black"/>
<path d="M73.2206 5.37744C72.216 5.37744 71.4165 6.16209 71.4165 7.17051C71.4165 8.08957 72.0102 8.71728 72.9008 8.71728H72.9467C73.9291 8.71728 74.7738 8.06705 74.7967 6.92421C74.7967 6.02768 74.1801 5.37744 73.2206 5.37744Z" fill="black"/>
<path d="M68.8129 21.0234H71.9643L74.112 10.063H70.9368L68.8129 21.0234Z" fill="black"/>
<path d="M82.1287 10.0404H79.9359L80.05 9.52454C80.2328 8.47108 80.8724 7.5295 81.9229 7.5295C82.4837 7.5295 82.9275 7.68643 82.9275 7.68643L83.5442 5.26565C83.5442 5.26565 82.9964 4.99683 81.8311 4.99683C80.7118 4.99683 79.5932 5.31068 78.7478 6.02777C77.6743 6.92431 77.1717 8.22407 76.9207 9.52454L76.8296 10.0404H75.3675L74.9108 12.3718H76.3729L74.7057 21.024H77.8579L79.5251 12.3718H81.6949L82.1287 10.0404Z" fill="black"/>
<path d="M89.7117 10.063C89.7117 10.063 87.7412 14.9348 86.8563 17.5941H86.8104C86.7502 16.7377 86.0339 10.063 86.0339 10.063H82.7217L84.6184 20.1268C84.6643 20.3506 84.6413 20.4857 84.5495 20.6426C84.1838 21.3372 83.5672 22.01 82.8365 22.5033C82.2428 22.929 81.5802 23.1978 81.0553 23.3773L81.9229 26C82.5626 25.8656 83.887 25.3498 85.0063 24.3189C86.4455 22.9966 87.7699 20.9565 89.1402 18.1768L93.0001 10.0623H89.7117V10.063Z" fill="black"/>
</svg>
