<svg width="1180" height="174" viewBox="0 0 1180 174" fill="none" xmlns="http://www.w3.org/2000/svg">
<mask id="path-1-outside-1_10_178" maskUnits="userSpaceOnUse" x="0.692871" y="16" width="545" height="158" fill="black">
<rect fill="white" x="0.692871" y="16" width="545" height="158"/>
<path d="M33.0389 82.4068C36.3699 85.07 39.6676 87.8364 42.932 90.706C46.1668 93.5442 49.1124 96.6954 51.7259 100.114C54.3654 103.587 56.4861 107.426 58.0215 111.509C59.6856 116.094 60.4983 120.944 60.4198 125.82C60.4419 129.703 59.6594 133.549 58.1214 137.115C56.6546 140.547 54.5525 143.671 51.9257 146.323C49.3036 148.934 46.2204 151.037 42.8321 152.525C39.3041 154.068 35.4906 154.851 31.6399 154.822C27.7575 154.845 23.9126 154.062 20.3477 152.525C13.4285 149.583 7.92455 144.068 4.99846 137.145C3.45713 133.584 2.67439 129.741 2.70006 125.86H9.29547C9.27968 128.85 9.89249 131.81 11.0942 134.549C13.3777 139.894 17.6377 144.151 22.9859 146.433C25.726 147.634 28.6879 148.247 31.6799 148.231C34.6401 148.252 37.5704 147.639 40.2738 146.433C42.878 145.274 45.2486 143.65 47.269 141.64C49.2983 139.597 50.9254 137.192 52.0656 134.549C53.2674 131.81 53.8802 128.85 53.8644 125.86C53.9293 121.704 53.2176 117.572 51.7658 113.676C50.3908 110.126 48.5057 106.796 46.1698 103.789C43.784 100.74 41.1066 97.93 38.1753 95.3999C35.1774 92.8032 32.0796 90.2399 28.8818 87.7099C25.684 85.1798 22.5196 82.5499 19.3884 79.8202C16.3005 77.1449 13.4884 74.1672 10.9943 70.9318C8.50644 67.7031 6.48786 64.1391 4.99846 60.3456C3.38876 56.0711 2.60872 51.5293 2.70006 46.963C2.67439 43.0826 3.45713 39.2393 4.99846 35.6777C7.93403 28.7476 13.4534 23.2315 20.3877 20.2978C23.9428 18.7936 27.7623 18.0126 31.6228 18.0006C35.4834 17.9886 39.3076 18.7458 42.872 20.2278C49.7606 23.1282 55.2458 28.5993 58.1614 35.478C59.6994 39.0407 60.482 42.8832 60.4598 46.7633H53.8644C53.8864 43.8047 53.273 40.8759 52.0656 38.1744C49.7377 32.9178 45.5337 28.7164 40.2738 26.3898C37.5704 25.1844 34.6401 24.5714 31.6799 24.5922C28.6879 24.5764 25.726 25.1888 22.9859 26.3898C20.342 27.5351 17.9356 29.1643 15.8909 31.1935C13.8803 33.2133 12.2549 35.5823 11.0942 38.1844C9.88783 40.8897 9.27452 43.8216 9.29547 46.7832C9.21785 50.6458 9.8968 54.4863 11.2941 58.0885C12.6261 61.3564 14.4088 64.4221 16.5904 67.1966C18.8594 70.0699 21.403 72.7156 24.1851 75.0963C27.0165 77.5731 29.9677 80.0099 33.0389 82.4068Z"/>
<path d="M140.024 18.0007C143.875 17.9725 147.689 18.7552 151.217 20.2977C158.097 23.2772 163.57 28.7826 166.506 35.6777C168.044 39.2404 168.826 43.0829 168.804 46.963V125.86C168.822 129.484 168.144 133.078 166.806 136.446C165.533 139.668 163.707 142.642 161.409 145.235C159.102 147.792 156.362 149.921 153.315 151.527C150.179 153.193 146.753 154.244 143.222 154.623V172H136.627V154.623C133.095 154.246 129.669 153.195 126.534 151.527C123.483 149.927 120.742 147.796 118.439 145.235C116.135 142.647 114.308 139.671 113.043 136.446C111.7 133.079 111.021 129.485 111.045 125.86V46.963C111.019 43.0826 111.802 39.2393 113.343 35.6777C116.278 28.7476 121.798 23.2315 128.732 20.2977C132.297 18.7607 136.142 17.9786 140.024 18.0007ZM162.209 46.7632C162.231 43.8047 161.617 40.8759 160.41 38.1744C158.082 32.9178 153.878 28.7163 148.618 26.3898C145.915 25.1844 142.985 24.5714 140.024 24.5921C137.032 24.5764 134.07 25.1888 131.33 26.3898C128.685 27.5279 126.278 29.1542 124.235 31.1836C122.222 33.2008 120.596 35.5704 119.439 38.1744C118.231 40.8759 117.618 43.8047 117.64 46.7632V125.66C117.554 131.024 119.479 136.225 123.036 140.241C126.519 144.306 131.338 146.997 136.627 147.831V104.288H143.222V147.831C148.51 146.995 153.328 144.304 156.813 140.241C160.37 136.225 162.295 131.024 162.209 125.66V46.7632Z"/>
<path d="M277.329 18.7997V125.66C277.351 129.54 276.568 133.383 275.03 136.946C272.094 143.841 266.621 149.346 259.741 152.326C256.213 153.868 252.399 154.651 248.549 154.623C244.666 154.645 240.821 153.863 237.257 152.326C230.315 149.396 224.788 143.88 221.847 136.946C220.306 133.384 219.523 129.541 219.549 125.66V18.7997H226.144V125.66C226.128 128.651 226.741 131.611 227.943 134.349C230.226 139.694 234.487 143.952 239.835 146.234C242.575 147.435 245.537 148.047 248.529 148.031C251.489 148.052 254.419 147.439 257.123 146.234C259.727 145.074 262.097 143.45 264.118 141.44C266.147 139.397 267.774 136.992 268.914 134.349C270.116 131.611 270.729 128.651 270.713 125.66V18.7997H277.329Z"/>
<path d="M328.383 153.824V18.7997H334.978V153.824H328.383Z"/>
<path d="M409.127 96.8979H392.728V153.824H386.133V18.7997H410.446C414.309 18.7716 418.139 19.5187 421.708 20.9968C425.132 22.4024 428.244 24.473 430.862 27.0889C433.467 29.7066 435.558 32.7892 437.027 36.177C438.568 39.7035 439.347 43.5148 439.316 47.3625V68.3351C439.336 71.6805 438.729 75 437.527 78.1224C436.331 81.1725 434.643 84.0063 432.53 86.5114C430.43 89.006 427.927 91.1325 425.126 92.8032C422.284 94.4858 419.174 95.6681 415.932 96.2987L440.315 153.824H433.32L409.127 96.8979ZM392.728 90.3065H410.526C413.418 90.3262 416.286 89.7713 418.962 88.6741C421.638 87.5768 424.07 85.9591 426.115 83.9148C428.128 81.8975 429.754 79.528 430.912 76.9239C432.119 74.2225 432.732 71.2937 432.71 68.3351V47.3625C432.717 44.4698 432.104 41.6092 430.912 38.9734C428.584 33.7167 424.38 29.5153 419.12 27.1888C416.42 25.9824 413.493 25.3693 410.536 25.3911H392.728V90.3065Z"/>
<path d="M497.725 25.3911V76.5245H535.499V83.1159H497.725V147.232H543.693V153.824H491.129V18.7997H543.693V25.3911H497.725Z"/>
</mask>
<path d="M33.0389 82.4068C36.3699 85.07 39.6676 87.8364 42.932 90.706C46.1668 93.5442 49.1124 96.6954 51.7259 100.114C54.3654 103.587 56.4861 107.426 58.0215 111.509C59.6856 116.094 60.4983 120.944 60.4198 125.82C60.4419 129.703 59.6594 133.549 58.1214 137.115C56.6546 140.547 54.5525 143.671 51.9257 146.323C49.3036 148.934 46.2204 151.037 42.8321 152.525C39.3041 154.068 35.4906 154.851 31.6399 154.822C27.7575 154.845 23.9126 154.062 20.3477 152.525C13.4285 149.583 7.92455 144.068 4.99846 137.145C3.45713 133.584 2.67439 129.741 2.70006 125.86H9.29547C9.27968 128.85 9.89249 131.81 11.0942 134.549C13.3777 139.894 17.6377 144.151 22.9859 146.433C25.726 147.634 28.6879 148.247 31.6799 148.231C34.6401 148.252 37.5704 147.639 40.2738 146.433C42.878 145.274 45.2486 143.65 47.269 141.64C49.2983 139.597 50.9254 137.192 52.0656 134.549C53.2674 131.81 53.8802 128.85 53.8644 125.86C53.9293 121.704 53.2176 117.572 51.7658 113.676C50.3908 110.126 48.5057 106.796 46.1698 103.789C43.784 100.74 41.1066 97.93 38.1753 95.3999C35.1774 92.8032 32.0796 90.2399 28.8818 87.7099C25.684 85.1798 22.5196 82.5499 19.3884 79.8202C16.3005 77.1449 13.4884 74.1672 10.9943 70.9318C8.50644 67.7031 6.48786 64.1391 4.99846 60.3456C3.38876 56.0711 2.60872 51.5293 2.70006 46.963C2.67439 43.0826 3.45713 39.2393 4.99846 35.6777C7.93403 28.7476 13.4534 23.2315 20.3877 20.2978C23.9428 18.7936 27.7623 18.0126 31.6228 18.0006C35.4834 17.9886 39.3076 18.7458 42.872 20.2278C49.7606 23.1282 55.2458 28.5993 58.1614 35.478C59.6994 39.0407 60.482 42.8832 60.4598 46.7633H53.8644C53.8864 43.8047 53.273 40.8759 52.0656 38.1744C49.7377 32.9178 45.5337 28.7164 40.2738 26.3898C37.5704 25.1844 34.6401 24.5714 31.6799 24.5922C28.6879 24.5764 25.726 25.1888 22.9859 26.3898C20.342 27.5351 17.9356 29.1643 15.8909 31.1935C13.8803 33.2133 12.2549 35.5823 11.0942 38.1844C9.88783 40.8897 9.27452 43.8216 9.29547 46.7832C9.21785 50.6458 9.8968 54.4863 11.2941 58.0885C12.6261 61.3564 14.4088 64.4221 16.5904 67.1966C18.8594 70.0699 21.403 72.7156 24.1851 75.0963C27.0165 77.5731 29.9677 80.0099 33.0389 82.4068Z" fill="#1D3557"/>
<path d="M140.024 18.0007C143.875 17.9725 147.689 18.7552 151.217 20.2977C158.097 23.2772 163.57 28.7826 166.506 35.6777C168.044 39.2404 168.826 43.0829 168.804 46.963V125.86C168.822 129.484 168.144 133.078 166.806 136.446C165.533 139.668 163.707 142.642 161.409 145.235C159.102 147.792 156.362 149.921 153.315 151.527C150.179 153.193 146.753 154.244 143.222 154.623V172H136.627V154.623C133.095 154.246 129.669 153.195 126.534 151.527C123.483 149.927 120.742 147.796 118.439 145.235C116.135 142.647 114.308 139.671 113.043 136.446C111.7 133.079 111.021 129.485 111.045 125.86V46.963C111.019 43.0826 111.802 39.2393 113.343 35.6777C116.278 28.7476 121.798 23.2315 128.732 20.2977C132.297 18.7607 136.142 17.9786 140.024 18.0007ZM162.209 46.7632C162.231 43.8047 161.617 40.8759 160.41 38.1744C158.082 32.9178 153.878 28.7163 148.618 26.3898C145.915 25.1844 142.985 24.5714 140.024 24.5921C137.032 24.5764 134.07 25.1888 131.33 26.3898C128.685 27.5279 126.278 29.1542 124.235 31.1836C122.222 33.2008 120.596 35.5704 119.439 38.1744C118.231 40.8759 117.618 43.8047 117.64 46.7632V125.66C117.554 131.024 119.479 136.225 123.036 140.241C126.519 144.306 131.338 146.997 136.627 147.831V104.288H143.222V147.831C148.51 146.995 153.328 144.304 156.813 140.241C160.37 136.225 162.295 131.024 162.209 125.66V46.7632Z" fill="#1D3557"/>
<path d="M277.329 18.7997V125.66C277.351 129.54 276.568 133.383 275.03 136.946C272.094 143.841 266.621 149.346 259.741 152.326C256.213 153.868 252.399 154.651 248.549 154.623C244.666 154.645 240.821 153.863 237.257 152.326C230.315 149.396 224.788 143.88 221.847 136.946C220.306 133.384 219.523 129.541 219.549 125.66V18.7997H226.144V125.66C226.128 128.651 226.741 131.611 227.943 134.349C230.226 139.694 234.487 143.952 239.835 146.234C242.575 147.435 245.537 148.047 248.529 148.031C251.489 148.052 254.419 147.439 257.123 146.234C259.727 145.074 262.097 143.45 264.118 141.44C266.147 139.397 267.774 136.992 268.914 134.349C270.116 131.611 270.729 128.651 270.713 125.66V18.7997H277.329Z" fill="#1D3557"/>
<path d="M328.383 153.824V18.7997H334.978V153.824H328.383Z" fill="#1D3557"/>
<path d="M409.127 96.8979H392.728V153.824H386.133V18.7997H410.446C414.309 18.7716 418.139 19.5187 421.708 20.9968C425.132 22.4024 428.244 24.473 430.862 27.0889C433.467 29.7066 435.558 32.7892 437.027 36.177C438.568 39.7035 439.347 43.5148 439.316 47.3625V68.3351C439.336 71.6805 438.729 75 437.527 78.1224C436.331 81.1725 434.643 84.0063 432.53 86.5114C430.43 89.006 427.927 91.1325 425.126 92.8032C422.284 94.4858 419.174 95.6681 415.932 96.2987L440.315 153.824H433.32L409.127 96.8979ZM392.728 90.3065H410.526C413.418 90.3262 416.286 89.7713 418.962 88.6741C421.638 87.5768 424.07 85.9591 426.115 83.9148C428.128 81.8975 429.754 79.528 430.912 76.9239C432.119 74.2225 432.732 71.2937 432.71 68.3351V47.3625C432.717 44.4698 432.104 41.6092 430.912 38.9734C428.584 33.7167 424.38 29.5153 419.12 27.1888C416.42 25.9824 413.493 25.3693 410.536 25.3911H392.728V90.3065Z" fill="#1D3557"/>
<path d="M497.725 25.3911V76.5245H535.499V83.1159H497.725V147.232H543.693V153.824H491.129V18.7997H543.693V25.3911H497.725Z" fill="#1D3557"/>
<path d="M33.0389 82.4068C36.3699 85.07 39.6676 87.8364 42.932 90.706C46.1668 93.5442 49.1124 96.6954 51.7259 100.114C54.3654 103.587 56.4861 107.426 58.0215 111.509C59.6856 116.094 60.4983 120.944 60.4198 125.82C60.4419 129.703 59.6594 133.549 58.1214 137.115C56.6546 140.547 54.5525 143.671 51.9257 146.323C49.3036 148.934 46.2204 151.037 42.8321 152.525C39.3041 154.068 35.4906 154.851 31.6399 154.822C27.7575 154.845 23.9126 154.062 20.3477 152.525C13.4285 149.583 7.92455 144.068 4.99846 137.145C3.45713 133.584 2.67439 129.741 2.70006 125.86H9.29547C9.27968 128.85 9.89249 131.81 11.0942 134.549C13.3777 139.894 17.6377 144.151 22.9859 146.433C25.726 147.634 28.6879 148.247 31.6799 148.231C34.6401 148.252 37.5704 147.639 40.2738 146.433C42.878 145.274 45.2486 143.65 47.269 141.64C49.2983 139.597 50.9254 137.192 52.0656 134.549C53.2674 131.81 53.8802 128.85 53.8644 125.86C53.9293 121.704 53.2176 117.572 51.7658 113.676C50.3908 110.126 48.5057 106.796 46.1698 103.789C43.784 100.74 41.1066 97.93 38.1753 95.3999C35.1774 92.8032 32.0796 90.2399 28.8818 87.7099C25.684 85.1798 22.5196 82.5499 19.3884 79.8202C16.3005 77.1449 13.4884 74.1672 10.9943 70.9318C8.50644 67.7031 6.48786 64.1391 4.99846 60.3456C3.38876 56.0711 2.60872 51.5293 2.70006 46.963C2.67439 43.0826 3.45713 39.2393 4.99846 35.6777C7.93403 28.7476 13.4534 23.2315 20.3877 20.2978C23.9428 18.7936 27.7623 18.0126 31.6228 18.0006C35.4834 17.9886 39.3076 18.7458 42.872 20.2278C49.7606 23.1282 55.2458 28.5993 58.1614 35.478C59.6994 39.0407 60.482 42.8832 60.4598 46.7633H53.8644C53.8864 43.8047 53.273 40.8759 52.0656 38.1744C49.7377 32.9178 45.5337 28.7164 40.2738 26.3898C37.5704 25.1844 34.6401 24.5714 31.6799 24.5922C28.6879 24.5764 25.726 25.1888 22.9859 26.3898C20.342 27.5351 17.9356 29.1643 15.8909 31.1935C13.8803 33.2133 12.2549 35.5823 11.0942 38.1844C9.88783 40.8897 9.27452 43.8216 9.29547 46.7832C9.21785 50.6458 9.8968 54.4863 11.2941 58.0885C12.6261 61.3564 14.4088 64.4221 16.5904 67.1966C18.8594 70.0699 21.403 72.7156 24.1851 75.0963C27.0165 77.5731 29.9677 80.0099 33.0389 82.4068Z" stroke="#1D3557" stroke-width="4" mask="url(#path-1-outside-1_10_178)"/>
<path d="M140.024 18.0007C143.875 17.9725 147.689 18.7552 151.217 20.2977C158.097 23.2772 163.57 28.7826 166.506 35.6777C168.044 39.2404 168.826 43.0829 168.804 46.963V125.86C168.822 129.484 168.144 133.078 166.806 136.446C165.533 139.668 163.707 142.642 161.409 145.235C159.102 147.792 156.362 149.921 153.315 151.527C150.179 153.193 146.753 154.244 143.222 154.623V172H136.627V154.623C133.095 154.246 129.669 153.195 126.534 151.527C123.483 149.927 120.742 147.796 118.439 145.235C116.135 142.647 114.308 139.671 113.043 136.446C111.7 133.079 111.021 129.485 111.045 125.86V46.963C111.019 43.0826 111.802 39.2393 113.343 35.6777C116.278 28.7476 121.798 23.2315 128.732 20.2977C132.297 18.7607 136.142 17.9786 140.024 18.0007ZM162.209 46.7632C162.231 43.8047 161.617 40.8759 160.41 38.1744C158.082 32.9178 153.878 28.7163 148.618 26.3898C145.915 25.1844 142.985 24.5714 140.024 24.5921C137.032 24.5764 134.07 25.1888 131.33 26.3898C128.685 27.5279 126.278 29.1542 124.235 31.1836C122.222 33.2008 120.596 35.5704 119.439 38.1744C118.231 40.8759 117.618 43.8047 117.64 46.7632V125.66C117.554 131.024 119.479 136.225 123.036 140.241C126.519 144.306 131.338 146.997 136.627 147.831V104.288H143.222V147.831C148.51 146.995 153.328 144.304 156.813 140.241C160.37 136.225 162.295 131.024 162.209 125.66V46.7632Z" stroke="#1D3557" stroke-width="4" mask="url(#path-1-outside-1_10_178)"/>
<path d="M277.329 18.7997V125.66C277.351 129.54 276.568 133.383 275.03 136.946C272.094 143.841 266.621 149.346 259.741 152.326C256.213 153.868 252.399 154.651 248.549 154.623C244.666 154.645 240.821 153.863 237.257 152.326C230.315 149.396 224.788 143.88 221.847 136.946C220.306 133.384 219.523 129.541 219.549 125.66V18.7997H226.144V125.66C226.128 128.651 226.741 131.611 227.943 134.349C230.226 139.694 234.487 143.952 239.835 146.234C242.575 147.435 245.537 148.047 248.529 148.031C251.489 148.052 254.419 147.439 257.123 146.234C259.727 145.074 262.097 143.45 264.118 141.44C266.147 139.397 267.774 136.992 268.914 134.349C270.116 131.611 270.729 128.651 270.713 125.66V18.7997H277.329Z" stroke="#1D3557" stroke-width="4" mask="url(#path-1-outside-1_10_178)"/>
<path d="M328.383 153.824V18.7997H334.978V153.824H328.383Z" stroke="#1D3557" stroke-width="4" mask="url(#path-1-outside-1_10_178)"/>
<path d="M409.127 96.8979H392.728V153.824H386.133V18.7997H410.446C414.309 18.7716 418.139 19.5187 421.708 20.9968C425.132 22.4024 428.244 24.473 430.862 27.0889C433.467 29.7066 435.558 32.7892 437.027 36.177C438.568 39.7035 439.347 43.5148 439.316 47.3625V68.3351C439.336 71.6805 438.729 75 437.527 78.1224C436.331 81.1725 434.643 84.0063 432.53 86.5114C430.43 89.006 427.927 91.1325 425.126 92.8032C422.284 94.4858 419.174 95.6681 415.932 96.2987L440.315 153.824H433.32L409.127 96.8979ZM392.728 90.3065H410.526C413.418 90.3262 416.286 89.7713 418.962 88.6741C421.638 87.5768 424.07 85.9591 426.115 83.9148C428.128 81.8975 429.754 79.528 430.912 76.9239C432.119 74.2225 432.732 71.2937 432.71 68.3351V47.3625C432.717 44.4698 432.104 41.6092 430.912 38.9734C428.584 33.7167 424.38 29.5153 419.12 27.1888C416.42 25.9824 413.493 25.3693 410.536 25.3911H392.728V90.3065Z" stroke="#1D3557" stroke-width="4" mask="url(#path-1-outside-1_10_178)"/>
<path d="M497.725 25.3911V76.5245H535.499V83.1159H497.725V147.232H543.693V153.824H491.129V18.7997H543.693V25.3911H497.725Z" stroke="#1D3557" stroke-width="4" mask="url(#path-1-outside-1_10_178)"/>
<mask id="path-2-outside-2_10_178" maskUnits="userSpaceOnUse" x="622" y="16" width="558" height="142" fill="black">
<rect fill="white" x="622" y="16" width="558" height="142"/>
<path d="M684.586 25.401H657.592V154.001H650.994V25.401H624V18.801H684.586V25.401Z"/>
<path d="M772.275 154.001L762.887 111.591H724.096L714.689 154.001H707.9L737.893 18.801H749.091L779.084 154.001H772.275ZM725.496 105.001H761.488L743.492 24.201L725.496 105.001Z"/>
<path d="M842.139 97.001H825.773V154.001H819.174V18.801H843.498C847.363 18.7729 851.195 19.521 854.766 21.001C858.191 22.4054 861.304 24.4753 863.924 27.091C866.525 29.7203 868.616 32.8092 870.092 36.201C871.633 39.7321 872.413 43.5483 872.382 47.401V68.401C872.402 71.7517 871.792 75.0763 870.582 78.201C869.387 81.2527 867.698 84.0872 865.583 86.591C861.348 91.6776 855.485 95.1433 848.987 96.401L873.381 154.001H866.383L842.139 97.001ZM825.773 90.401H843.568C846.462 90.4207 849.331 89.8651 852.009 88.7665C854.686 87.6678 857.118 86.0479 859.165 84.001C861.179 81.9811 862.806 79.6084 863.964 77.001C865.17 74.2957 865.784 71.3633 865.763 68.401V47.401C865.771 44.5044 865.158 41.6399 863.964 39.001C861.635 33.7375 857.429 29.5306 852.166 27.201C849.462 25.9928 846.53 25.379 843.568 25.401H825.773V90.401Z"/>
<path d="M1049.21 155.001C1045.33 155.023 1041.48 154.24 1037.91 152.701C1030.98 149.763 1025.45 144.24 1022.52 137.301C1020.98 133.733 1020.2 129.886 1020.22 126.001V47.001C1020.19 43.1159 1020.98 39.2683 1022.52 35.701C1025.45 28.7619 1030.98 23.2386 1037.91 20.301C1041.48 18.7586 1045.33 17.9753 1049.21 18.001C1053.06 17.9679 1056.88 18.7518 1060.41 20.301C1063.8 21.7818 1066.89 23.8846 1069.51 26.501C1072.14 29.1449 1074.24 32.2675 1075.7 35.701C1077.24 39.2683 1078.03 43.1159 1078 47.001V126.001C1078.02 129.886 1077.24 133.733 1075.7 137.301C1074.24 140.733 1072.14 143.855 1069.51 146.501C1066.88 149.114 1063.8 151.217 1060.41 152.701C1056.88 154.246 1053.06 155.029 1049.21 155.001ZM1049.21 24.591C1046.22 24.5787 1043.25 25.1953 1040.51 26.401C1037.86 27.5429 1035.46 29.1749 1033.41 31.211C1031.4 33.2317 1029.77 35.6041 1028.61 38.211C1027.41 40.9195 1026.79 43.8554 1026.82 46.821V125.951C1026.8 128.948 1027.41 131.916 1028.61 134.661C1030.89 140.023 1035.15 144.296 1040.51 146.581C1043.25 147.791 1046.22 148.408 1049.21 148.391C1052.17 148.415 1055.11 147.797 1057.81 146.581C1063.11 144.25 1067.33 139.989 1069.61 134.661C1070.81 131.916 1071.42 128.948 1071.4 125.951V46.831C1071.43 43.8654 1070.81 40.9295 1069.61 38.221C1067.28 32.9522 1063.07 28.7387 1057.81 26.401C1055.1 25.1897 1052.17 24.5725 1049.21 24.591Z"/>
<path d="M1143.21 86.001L1117.21 18.801H1124.21L1146.81 76.801L1169.4 18.801H1176.6L1150.41 86.001L1177 154.001H1169.8L1146.81 95.201L1124.01 154.001H1116.81L1143.21 86.001Z"/>
<path d="M972.238 90.101C968.659 85.261 965.08 81.841 959.511 79.831C963.26 78.531 965.59 75.711 967.639 72.941C971.223 68.1181 973.12 62.2495 973.038 56.241V47.401C973.067 43.5476 972.283 39.7313 970.738 36.201C969.254 32.8069 967.149 29.7205 964.53 27.101C961.869 24.4395 958.705 22.3347 955.222 20.9097C951.739 19.4846 948.008 18.7678 944.245 18.801H918.251V154.001H948.834C952.598 154.033 956.331 153.315 959.815 151.89C963.299 150.465 966.465 148.361 969.129 145.701C971.745 143.081 973.847 139.995 975.327 136.601C976.872 133.071 977.655 129.254 977.627 125.401V106.811C977.713 100.8 975.82 94.9283 972.238 90.101ZM924.849 25.401H944.255C947.147 25.3826 950.014 25.9389 952.69 27.0375C955.365 28.1361 957.796 29.7553 959.841 31.801C961.858 33.8205 963.488 36.1931 964.65 38.801C965.853 41.5075 966.466 44.4391 966.449 47.401V56.241C966.457 59.1272 965.878 61.9848 964.75 64.641C963.657 67.2356 962.098 69.608 960.151 71.641C958.189 73.6537 955.843 75.2519 953.253 76.341C950.523 77.4824 947.611 78.1258 944.655 78.241H924.829L924.849 25.401ZM971.038 125.401C971.06 128.363 970.447 131.296 969.239 134.001C968.081 136.608 966.454 138.981 964.44 141.001C962.394 143.048 959.961 144.668 957.284 145.766C954.606 146.865 951.737 147.421 948.844 147.401H924.849V84.811H951.253C954.312 84.941 955.172 85.571 957.841 86.711C960.437 87.792 962.784 89.3913 964.74 91.411C966.693 93.4395 968.252 95.8131 969.339 98.411C970.469 101.067 971.048 103.925 971.038 106.811V125.401Z"/>
</mask>
<path d="M684.586 25.401H657.592V154.001H650.994V25.401H624V18.801H684.586V25.401Z" fill="#1D3557"/>
<path d="M772.275 154.001L762.887 111.591H724.096L714.689 154.001H707.9L737.893 18.801H749.091L779.084 154.001H772.275ZM725.496 105.001H761.488L743.492 24.201L725.496 105.001Z" fill="#1D3557"/>
<path d="M842.139 97.001H825.773V154.001H819.174V18.801H843.498C847.363 18.7729 851.195 19.521 854.766 21.001C858.191 22.4054 861.304 24.4753 863.924 27.091C866.525 29.7203 868.616 32.8092 870.092 36.201C871.633 39.7321 872.413 43.5483 872.382 47.401V68.401C872.402 71.7517 871.792 75.0763 870.582 78.201C869.387 81.2527 867.698 84.0872 865.583 86.591C861.348 91.6776 855.485 95.1433 848.987 96.401L873.381 154.001H866.383L842.139 97.001ZM825.773 90.401H843.568C846.462 90.4207 849.331 89.8651 852.009 88.7665C854.686 87.6678 857.118 86.0479 859.165 84.001C861.179 81.9811 862.806 79.6084 863.964 77.001C865.17 74.2957 865.784 71.3633 865.763 68.401V47.401C865.771 44.5044 865.158 41.6399 863.964 39.001C861.635 33.7375 857.429 29.5306 852.166 27.201C849.462 25.9928 846.53 25.379 843.568 25.401H825.773V90.401Z" fill="#1D3557"/>
<path d="M1049.21 155.001C1045.33 155.023 1041.48 154.24 1037.91 152.701C1030.98 149.763 1025.45 144.24 1022.52 137.301C1020.98 133.733 1020.2 129.886 1020.22 126.001V47.001C1020.19 43.1159 1020.98 39.2683 1022.52 35.701C1025.45 28.7619 1030.98 23.2386 1037.91 20.301C1041.48 18.7586 1045.33 17.9753 1049.21 18.001C1053.06 17.9679 1056.88 18.7518 1060.41 20.301C1063.8 21.7818 1066.89 23.8846 1069.51 26.501C1072.14 29.1449 1074.24 32.2675 1075.7 35.701C1077.24 39.2683 1078.03 43.1159 1078 47.001V126.001C1078.02 129.886 1077.24 133.733 1075.7 137.301C1074.24 140.733 1072.14 143.855 1069.51 146.501C1066.88 149.114 1063.8 151.217 1060.41 152.701C1056.88 154.246 1053.06 155.029 1049.21 155.001ZM1049.21 24.591C1046.22 24.5787 1043.25 25.1953 1040.51 26.401C1037.86 27.5429 1035.46 29.1749 1033.41 31.211C1031.4 33.2317 1029.77 35.6041 1028.61 38.211C1027.41 40.9195 1026.79 43.8554 1026.82 46.821V125.951C1026.8 128.948 1027.41 131.916 1028.61 134.661C1030.89 140.023 1035.15 144.296 1040.51 146.581C1043.25 147.791 1046.22 148.408 1049.21 148.391C1052.17 148.415 1055.11 147.797 1057.81 146.581C1063.11 144.25 1067.33 139.989 1069.61 134.661C1070.81 131.916 1071.42 128.948 1071.4 125.951V46.831C1071.43 43.8654 1070.81 40.9295 1069.61 38.221C1067.28 32.9522 1063.07 28.7387 1057.81 26.401C1055.1 25.1897 1052.17 24.5725 1049.21 24.591Z" fill="#1D3557"/>
<path d="M1143.21 86.001L1117.21 18.801H1124.21L1146.81 76.801L1169.4 18.801H1176.6L1150.41 86.001L1177 154.001H1169.8L1146.81 95.201L1124.01 154.001H1116.81L1143.21 86.001Z" fill="#1D3557"/>
<path d="M972.238 90.101C968.659 85.261 965.08 81.841 959.511 79.831C963.26 78.531 965.59 75.711 967.639 72.941C971.223 68.1181 973.12 62.2495 973.038 56.241V47.401C973.067 43.5476 972.283 39.7313 970.738 36.201C969.254 32.8069 967.149 29.7205 964.53 27.101C961.869 24.4395 958.705 22.3347 955.222 20.9097C951.739 19.4846 948.008 18.7678 944.245 18.801H918.251V154.001H948.834C952.598 154.033 956.331 153.315 959.815 151.89C963.299 150.465 966.465 148.361 969.129 145.701C971.745 143.081 973.847 139.995 975.327 136.601C976.872 133.071 977.655 129.254 977.627 125.401V106.811C977.713 100.8 975.82 94.9283 972.238 90.101ZM924.849 25.401H944.255C947.147 25.3826 950.014 25.9389 952.69 27.0375C955.365 28.1361 957.796 29.7553 959.841 31.801C961.858 33.8205 963.488 36.1931 964.65 38.801C965.853 41.5075 966.466 44.4391 966.449 47.401V56.241C966.457 59.1272 965.878 61.9848 964.75 64.641C963.657 67.2356 962.098 69.608 960.151 71.641C958.189 73.6537 955.843 75.2519 953.253 76.341C950.523 77.4824 947.611 78.1258 944.655 78.241H924.829L924.849 25.401ZM971.038 125.401C971.06 128.363 970.447 131.296 969.239 134.001C968.081 136.608 966.454 138.981 964.44 141.001C962.394 143.048 959.961 144.668 957.284 145.766C954.606 146.865 951.737 147.421 948.844 147.401H924.849V84.811H951.253C954.312 84.941 955.172 85.571 957.841 86.711C960.437 87.792 962.784 89.3913 964.74 91.411C966.693 93.4395 968.252 95.8131 969.339 98.411C970.469 101.067 971.048 103.925 971.038 106.811V125.401Z" fill="#1D3557"/>
<path d="M684.586 25.401H657.592V154.001H650.994V25.401H624V18.801H684.586V25.401Z" stroke="#1D3557" stroke-width="4" mask="url(#path-2-outside-2_10_178)"/>
<path d="M772.275 154.001L762.887 111.591H724.096L714.689 154.001H707.9L737.893 18.801H749.091L779.084 154.001H772.275ZM725.496 105.001H761.488L743.492 24.201L725.496 105.001Z" stroke="#1D3557" stroke-width="4" mask="url(#path-2-outside-2_10_178)"/>
<path d="M842.139 97.001H825.773V154.001H819.174V18.801H843.498C847.363 18.7729 851.195 19.521 854.766 21.001C858.191 22.4054 861.304 24.4753 863.924 27.091C866.525 29.7203 868.616 32.8092 870.092 36.201C871.633 39.7321 872.413 43.5483 872.382 47.401V68.401C872.402 71.7517 871.792 75.0763 870.582 78.201C869.387 81.2527 867.698 84.0872 865.583 86.591C861.348 91.6776 855.485 95.1433 848.987 96.401L873.381 154.001H866.383L842.139 97.001ZM825.773 90.401H843.568C846.462 90.4207 849.331 89.8651 852.009 88.7665C854.686 87.6678 857.118 86.0479 859.165 84.001C861.179 81.9811 862.806 79.6084 863.964 77.001C865.17 74.2957 865.784 71.3633 865.763 68.401V47.401C865.771 44.5044 865.158 41.6399 863.964 39.001C861.635 33.7375 857.429 29.5306 852.166 27.201C849.462 25.9928 846.53 25.379 843.568 25.401H825.773V90.401Z" stroke="#1D3557" stroke-width="4" mask="url(#path-2-outside-2_10_178)"/>
<path d="M1049.21 155.001C1045.33 155.023 1041.48 154.24 1037.91 152.701C1030.98 149.763 1025.45 144.24 1022.52 137.301C1020.98 133.733 1020.2 129.886 1020.22 126.001V47.001C1020.19 43.1159 1020.98 39.2683 1022.52 35.701C1025.45 28.7619 1030.98 23.2386 1037.91 20.301C1041.48 18.7586 1045.33 17.9753 1049.21 18.001C1053.06 17.9679 1056.88 18.7518 1060.41 20.301C1063.8 21.7818 1066.89 23.8846 1069.51 26.501C1072.14 29.1449 1074.24 32.2675 1075.7 35.701C1077.24 39.2683 1078.03 43.1159 1078 47.001V126.001C1078.02 129.886 1077.24 133.733 1075.7 137.301C1074.24 140.733 1072.14 143.855 1069.51 146.501C1066.88 149.114 1063.8 151.217 1060.41 152.701C1056.88 154.246 1053.06 155.029 1049.21 155.001ZM1049.21 24.591C1046.22 24.5787 1043.25 25.1953 1040.51 26.401C1037.86 27.5429 1035.46 29.1749 1033.41 31.211C1031.4 33.2317 1029.77 35.6041 1028.61 38.211C1027.41 40.9195 1026.79 43.8554 1026.82 46.821V125.951C1026.8 128.948 1027.41 131.916 1028.61 134.661C1030.89 140.023 1035.15 144.296 1040.51 146.581C1043.25 147.791 1046.22 148.408 1049.21 148.391C1052.17 148.415 1055.11 147.797 1057.81 146.581C1063.11 144.25 1067.33 139.989 1069.61 134.661C1070.81 131.916 1071.42 128.948 1071.4 125.951V46.831C1071.43 43.8654 1070.81 40.9295 1069.61 38.221C1067.28 32.9522 1063.07 28.7387 1057.81 26.401C1055.1 25.1897 1052.17 24.5725 1049.21 24.591Z" stroke="#1D3557" stroke-width="4" mask="url(#path-2-outside-2_10_178)"/>
<path d="M1143.21 86.001L1117.21 18.801H1124.21L1146.81 76.801L1169.4 18.801H1176.6L1150.41 86.001L1177 154.001H1169.8L1146.81 95.201L1124.01 154.001H1116.81L1143.21 86.001Z" stroke="#1D3557" stroke-width="4" mask="url(#path-2-outside-2_10_178)"/>
<path d="M972.238 90.101C968.659 85.261 965.08 81.841 959.511 79.831C963.26 78.531 965.59 75.711 967.639 72.941C971.223 68.1181 973.12 62.2495 973.038 56.241V47.401C973.067 43.5476 972.283 39.7313 970.738 36.201C969.254 32.8069 967.149 29.7205 964.53 27.101C961.869 24.4395 958.705 22.3347 955.222 20.9097C951.739 19.4846 948.008 18.7678 944.245 18.801H918.251V154.001H948.834C952.598 154.033 956.331 153.315 959.815 151.89C963.299 150.465 966.465 148.361 969.129 145.701C971.745 143.081 973.847 139.995 975.327 136.601C976.872 133.071 977.655 129.254 977.627 125.401V106.811C977.713 100.8 975.82 94.9283 972.238 90.101ZM924.849 25.401H944.255C947.147 25.3826 950.014 25.9389 952.69 27.0375C955.365 28.1361 957.796 29.7553 959.841 31.801C961.858 33.8205 963.488 36.1931 964.65 38.801C965.853 41.5075 966.466 44.4391 966.449 47.401V56.241C966.457 59.1272 965.878 61.9848 964.75 64.641C963.657 67.2356 962.098 69.608 960.151 71.641C958.189 73.6537 955.843 75.2519 953.253 76.341C950.523 77.4824 947.611 78.1258 944.655 78.241H924.829L924.849 25.401ZM971.038 125.401C971.06 128.363 970.447 131.296 969.239 134.001C968.081 136.608 966.454 138.981 964.44 141.001C962.394 143.048 959.961 144.668 957.284 145.766C954.606 146.865 951.737 147.421 948.844 147.401H924.849V84.811H951.253C954.312 84.941 955.172 85.571 957.841 86.711C960.437 87.792 962.784 89.3913 964.74 91.411C966.693 93.4395 968.252 95.8131 969.339 98.411C970.469 101.067 971.048 103.925 971.038 106.811V125.401Z" stroke="#1D3557" stroke-width="4" mask="url(#path-2-outside-2_10_178)"/>
</svg>
