<svg width="210" height="86" viewBox="0 0 210 86" fill="none" xmlns="http://www.w3.org/2000/svg">
<g clip-path="url(#clip0)">
<path d="M165.589 75.4697C165.279 73.8397 167.309 72.8697 167.589 71.4197C167.649 71.0397 167.289 70.9197 167.009 71.1297C166.814 71.2543 166.582 71.3075 166.352 71.2802C166.123 71.2528 165.909 71.1466 165.749 70.9797C165.648 70.8705 165.572 70.74 165.527 70.5977C165.482 70.4553 165.47 70.3048 165.491 70.1572C165.512 70.0095 165.566 69.8685 165.649 69.7443C165.732 69.6202 165.841 69.5161 165.969 69.4397C166.669 69.0397 166.969 68.9797 167.369 68.1897C167.769 67.3997 167.179 66.9597 166.509 67.3297C165.089 68.1097 164.559 70.1497 163.649 71.3797C163.309 71.8297 162.099 71.4697 161.909 71.0197C161.719 70.5697 162.539 69.4597 162.839 69.1497C163.24 68.6669 163.548 68.1143 163.749 67.5197C163.929 66.9497 164.449 66.7197 164.749 66.2797C164.961 66.0071 165.226 65.7801 165.528 65.6122C165.83 65.4444 166.163 65.3391 166.506 65.3027C166.85 65.2663 167.197 65.2995 167.527 65.4004C167.858 65.5013 168.164 65.6677 168.429 65.8897C168.671 66.1555 168.836 66.4815 168.909 66.8335C168.981 67.1854 168.957 67.5503 168.839 67.8897C168.699 68.4997 168.089 69.5297 168.499 70.0597C169.25 69.2501 169.919 68.3692 170.499 67.4297C170.84 66.9111 171.207 66.4104 171.599 65.9297C171.939 65.4897 172.069 64.9797 172.599 64.7097C173.369 64.2997 174.479 64.4197 174.169 65.6197C173.9 66.1964 173.692 66.7997 173.549 67.4197C173.527 68.0628 173.682 68.6996 173.999 69.2597C174.239 69.7097 174.749 69.5197 175.139 69.4197C175.769 69.2597 175.889 68.8197 176.139 68.2597C176.569 67.0797 175.459 66.3697 175.229 65.2597C175.069 64.5297 175.429 63.0197 176.379 62.9597C176.643 62.9593 176.903 63.0216 177.137 63.1416C177.372 63.2616 177.575 63.4358 177.729 63.6497C177.969 63.9097 178.319 64.9297 178.559 65.0597C178.619 65.0597 180.289 62.0597 181.229 61.8497C181.439 61.8497 182.229 62.2797 182.089 62.6197C181.697 63.498 181.532 64.4609 181.609 65.4197C181.769 66.5197 182.969 67.0597 183.609 66.2897C183.979 65.8697 184.509 64.8697 184.049 64.2197C183.513 63.6253 183.15 62.8956 182.999 62.1097C182.988 61.6389 183.156 61.1815 183.469 60.8297C183.829 60.4797 184.079 60.7697 184.469 60.7397C185.539 60.6297 185.829 61.7397 186.069 62.5597C186.449 63.7897 187.459 62.9897 187.949 62.2597C188.439 61.5297 189.289 60.9997 189.329 62.2597C189.286 62.6925 189.154 63.1118 188.942 63.4918C188.731 63.8719 188.444 64.2047 188.099 64.4697C187.764 64.7679 187.345 64.9564 186.899 65.0097C186.579 65.0097 186.119 64.9297 185.979 65.2997C185.399 66.8097 184.919 67.9797 183.229 68.4597C182.9 68.5719 182.549 68.6095 182.203 68.5697C181.857 68.53 181.525 68.4138 181.229 68.2297C180.389 67.6997 180.519 66.3697 180.229 65.5597C179.899 65.7597 179.369 67.2497 178.289 67.3597C177.919 67.6697 177.799 68.7997 177.629 69.2297C177.416 69.7689 177.073 70.2466 176.629 70.6197C176.168 70.9141 175.637 71.0804 175.09 71.1014C174.544 71.1225 174.001 70.9977 173.519 70.7397C172.259 70.0897 172.659 69.1297 172.239 68.0097C171.819 68.5348 171.438 69.0896 171.099 69.6697C170.709 70.2397 169.809 70.9097 169.609 71.5597C169.409 72.2097 170.169 73.0597 170.259 73.6297C170.387 74.5447 170.28 75.4773 169.949 76.3397C169.894 76.632 169.782 76.9104 169.618 77.1588C169.455 77.4073 169.244 77.621 168.997 77.7874C168.751 77.9539 168.474 78.0699 168.183 78.1286C167.891 78.1874 167.591 78.1877 167.299 78.1297C165.949 78.0297 165.649 76.5197 165.639 75.3697C165.449 74.7297 165.599 76.4697 165.589 75.4697ZM168.499 73.1497C167.659 73.4797 166.789 75.5697 167.239 76.2497C168.079 77.4997 168.919 75.2497 169.109 74.5897C169.002 74.0743 168.795 73.5849 168.499 73.1497V73.1497Z" fill="#DB6840"/>
<path d="M146.81 73.0796C146.794 73.7259 146.697 74.3677 146.52 74.9896C146.52 75.0796 146.47 76.3696 146.87 75.8596C147.69 74.8596 148.03 73.4796 148.93 72.5496C149.83 71.6196 150.93 70.4696 152.02 69.5496C152.58 69.0496 155.07 68.4396 154.78 69.8196C154.67 70.3796 154.15 70.4796 153.78 70.8196C153.192 71.2683 152.71 71.8421 152.37 72.4996C152.09 73.0496 151.46 73.7896 151.68 74.4996C151.713 74.6183 151.777 74.7256 151.867 74.8094C151.957 74.8933 152.068 74.9504 152.189 74.9744C152.31 74.9983 152.434 74.988 152.55 74.9448C152.665 74.9015 152.765 74.827 152.84 74.7296C153.186 74.3347 153.491 73.9058 153.75 73.4496C154.014 72.8289 154.315 72.2245 154.65 71.6396C154.97 71.2396 155.7 70.7296 156.25 70.9296C156.8 71.1296 156.89 72.0896 157.05 72.5896C157.85 72.2396 158.15 71.2696 159.18 71.7496C160.21 72.2296 158.74 73.4596 158.43 73.7496C158.041 74.0501 157.75 74.4599 157.595 74.9267C157.44 75.3935 157.428 75.8959 157.56 76.3696C157.866 77.5857 157.923 78.8507 157.73 80.0896C157.523 80.5866 157.193 81.0231 156.772 81.3588C156.35 81.6944 155.851 81.9182 155.32 82.0096C154.09 82.1996 152.95 81.7496 152.99 80.3096C153.129 79.1239 153.585 77.9976 154.31 77.0496C154.64 76.5896 154.84 76.0496 155.2 75.5996C155.56 75.1496 155.7 74.9596 155.55 74.3496C155.143 75.0578 154.646 75.71 154.07 76.2896C153.64 76.6096 153.07 77.2296 152.51 77.2896C152.144 77.3497 151.769 77.3251 151.413 77.2176C151.058 77.1101 150.732 76.9227 150.46 76.6696C149.91 76.0796 150.24 75.3696 149.93 74.7396C149.701 75.07 149.503 75.4216 149.34 75.7896C149.09 76.1696 148.72 76.4696 148.43 76.7896C147.82 77.5596 147.43 78.2296 146.43 78.4796C144.43 78.9596 144.95 74.7496 145.03 73.7796C144.478 74.5554 144.022 75.3947 143.67 76.2796C143.32 77.1496 143.09 78.3896 142.34 79.0096C142.207 79.1228 142.047 79.1993 141.875 79.2313C141.704 79.2634 141.527 79.2499 141.362 79.1923C141.197 79.1346 141.05 79.0348 140.936 78.9028C140.821 78.7707 140.744 78.611 140.71 78.4396C140.48 77.6596 141.09 76.1896 140.64 75.5396C140.453 75.838 140.292 76.1526 140.16 76.4796C139.89 76.8891 139.593 77.28 139.27 77.6496C138.754 78.4961 138.018 79.1872 137.14 79.6496C136.764 79.8263 136.336 79.8629 135.935 79.753C135.533 79.643 135.184 79.3937 134.95 79.0496C134.671 78.6749 134.482 78.24 134.4 77.7796C134.4 77.6196 134.7 76.4996 134.52 76.4196C134.13 76.2496 132.81 78.1396 132.52 78.4196C131.785 79.109 130.922 79.649 129.98 80.0096C129.41 80.2596 128.5 80.7896 127.98 80.2796C127.18 79.5596 127.77 78.3696 127.69 77.5296C127.01 77.6796 126.69 78.4196 126.15 78.7996C125.519 79.3956 124.817 79.9127 124.06 80.3396C123.29 80.6496 122.32 81.0396 121.7 80.2796C121.08 79.5196 121.7 78.4896 121.64 77.6196C120.877 78.1676 120.176 78.798 119.55 79.4996C118.802 79.976 118.02 80.3971 117.21 80.7596C116.849 80.9661 116.447 81.091 116.033 81.1255C115.618 81.1601 115.201 81.1035 114.81 80.9596C114.436 80.741 114.098 80.4642 113.81 80.1396C113.51 79.7796 113.53 79.1996 112.99 79.2496C112.47 79.3959 111.977 79.6255 111.53 79.9296C111 80.1696 110.46 80.3996 109.92 80.6096C109.04 80.9596 107.82 81.9396 106.84 81.6096C106.27 81.4296 105.75 80.5196 106.35 80.0496C106.95 79.5796 107.94 79.8996 108.27 78.9296C108.54 78.1496 109.1 77.5496 108.78 76.6696C108.39 75.6096 106.98 76.7396 106.51 77.1696C105.79 77.8396 105.67 79.1196 105.44 80.0396C105.14 81.2196 104.75 82.3696 104.44 83.5596C104.24 84.3796 104.23 85.3996 103.52 85.9696C103.14 86.2696 102.67 85.7096 102.43 85.5196C102.02 85.1996 102.21 84.8396 102.32 84.3996C102.6 83.3296 102.85 82.2596 103.14 81.1996C103.34 80.4396 104.14 79.2696 103.84 78.4996C103.281 78.8573 102.755 79.2657 102.27 79.7196C101.76 80.1396 101.27 79.5196 101.01 79.1096C100.55 78.4996 101.01 78.4596 101.49 78.2496C101.97 78.0396 102.27 77.5396 102.72 77.1996C103.813 76.4258 104.699 75.3956 105.3 74.1996C105.61 73.4696 105.69 73.5196 106.43 73.7596C107.17 73.9996 107.15 74.1196 107.08 74.8396C107.99 74.6496 109.42 73.8396 110.08 74.9596C110.443 75.5984 110.619 76.3257 110.59 77.0596C110.59 77.6496 110.15 78.3396 110.31 78.9096C111.211 78.467 112.057 77.9199 112.83 77.2796C113.26 77.0096 113.29 76.0596 113.67 75.7196C114.28 75.1157 114.95 74.5761 115.67 74.1096C115.948 73.9313 116.264 73.8219 116.592 73.7904C116.92 73.7589 117.251 73.8063 117.557 73.9286C117.863 74.0509 118.136 74.2445 118.352 74.4934C118.568 74.7423 118.722 75.0393 118.8 75.3596C119.09 76.8296 117.47 77.7696 116.36 78.2596C116.04 78.3996 114.92 78.6296 115.29 79.1196C115.66 79.6096 116.61 79.4496 117.14 79.2496C118.572 78.5528 119.816 77.5243 120.77 76.2496C121.05 75.9296 122.14 74.9996 122.03 74.5296C121.97 74.2896 120.74 74.7096 120.46 74.5296C119.46 73.7496 120.93 72.5296 121.76 72.5796C122.17 72.5796 123.09 72.6396 123.27 72.1496C123.646 71.3951 123.921 70.5951 124.09 69.7696C124.15 68.9896 124.95 69.2796 125.46 69.4296C125.97 69.5796 125.46 70.8496 125.33 71.0896C125.2 71.3296 124.67 72.3396 125.24 72.3896C125.989 72.4262 126.738 72.3927 127.48 72.2896C127.93 72.2396 128.82 72.3496 129.2 72.0296C129.58 71.7096 129.74 70.7096 129.91 70.1696C130.08 69.6296 130.23 69.0696 130.91 68.7696C131.018 68.7217 131.136 68.7047 131.252 68.7206C131.369 68.7365 131.478 68.7846 131.569 68.8595C131.659 68.9344 131.727 69.033 131.764 69.1444C131.802 69.2557 131.807 69.3753 131.78 69.4896C131.523 70.206 131.309 70.9374 131.14 71.6796C131.14 71.8396 132.44 71.8196 132.6 72.0296C133.17 72.8396 132.66 73.3496 132.37 73.4496C131.89 73.5996 130.7 73.2596 130.37 74.0296C129.84 75.5196 129.02 78.3796 129.37 78.5896C129.72 78.7996 131.44 76.9196 132.37 76.0096C133.46 74.8996 134.25 73.5996 135.29 72.4796C135.84 71.8796 137.01 72.8396 136.75 73.5596C136.49 74.2796 135.44 76.8096 136.06 77.4696C136.68 78.1296 137.69 76.9696 138.06 76.4696C138.382 75.9742 138.74 75.503 139.13 75.0596C139.482 74.4983 139.773 73.9017 140 73.2796C140.27 72.8856 140.441 72.4331 140.5 71.9596C140.5 71.2896 141.64 71.3896 142.07 71.5596C142.94 71.8896 142.07 73.9896 142.28 74.7596C142.813 73.4775 143.484 72.257 144.28 71.1196C144.481 70.9047 144.75 70.7655 145.041 70.7254C145.333 70.6853 145.629 70.7468 145.88 70.8996C146.235 71.135 146.516 71.4648 146.693 71.8518C146.87 72.2388 146.935 72.6676 146.88 73.0896C146.86 73.5996 146.81 72.8296 146.81 73.0796ZM124.6 74.1896C124.1 73.8596 123.67 76.9296 123.6 77.3096C122.82 80.2296 124.91 77.6596 125.46 77.0196C126.34 76.0196 127.33 75.2196 128.16 74.1496C128.53 73.6596 126.73 74.0396 126.71 74.0396C126.02 74.0996 125.34 74.0896 124.64 74.1896C124.33 74.0096 124.92 74.1296 124.58 74.1696L124.6 74.1896ZM155.46 80.7696C156.22 80.8596 156.32 77.8396 156.4 76.5196C156.4 75.9696 155.54 77.0896 155.56 77.0496C155.195 77.7294 154.888 78.4386 154.64 79.1696C154.573 79.3247 154.541 79.4927 154.545 79.6618C154.55 79.8308 154.593 79.9967 154.669 80.1476C154.745 80.2985 154.854 80.4307 154.987 80.5347C155.121 80.6388 155.275 80.7122 155.44 80.7496L155.46 80.7696ZM116.46 75.3596C116.1 75.4933 115.773 75.7025 115.5 75.9734C115.228 76.2442 115.016 76.5702 114.88 76.9296C115.59 76.9896 117.54 76.0496 116.46 75.3596C116.29 75.4196 116.6 75.4196 116.48 75.3396L116.46 75.3596Z" fill="#DB6840"/>
<path d="M136.731 69.7196C138.091 69.5796 138.081 71.1696 136.961 71.5296C135.841 71.8896 135.151 69.6696 136.731 69.7196C136.271 69.6996 136.811 69.7096 136.731 69.7196Z" fill="#DB6840"/>
<path d="M78.7403 70.2797C78.5403 70.6797 78.3203 71.3597 77.8303 71.4997C77.5948 71.4856 77.3646 71.4243 77.1533 71.3196C76.942 71.2148 76.754 71.0686 76.6003 70.8897C75.9003 69.5797 78.7703 69.2197 78.7403 70.2797C78.7503 69.8997 78.5503 70.6497 78.7403 70.2797Z" fill="#DB6840"/>
<path d="M45.6299 72.0798C45.6299 71.7098 45.6799 71.3598 45.2399 71.5698C44.4899 72.0219 43.5936 72.1654 42.7399 71.9698C42.4539 71.9191 42.1879 71.7891 41.9722 71.5947C41.7565 71.4002 41.5998 71.149 41.5199 70.8698C41.4099 70.4198 41.8299 68.8698 41.4299 68.8098C40.8299 68.7498 40.1299 69.3898 39.6199 69.6498C38.8445 70.0202 38.0134 70.26 37.1599 70.3598C35.4999 70.5898 35.3099 68.7898 35.9299 67.6698C36.218 67.0233 36.5522 66.3984 36.9299 65.7998C37.0399 65.6398 38.1699 64.0898 37.0299 64.4298C36.4099 64.6198 36.0299 65.1998 35.3499 65.3698C34.5604 65.6561 33.8109 66.0426 33.1199 66.5198C32.4999 66.8582 31.8212 67.0754 31.1199 67.1598C30.2203 67.4342 29.2723 67.5127 28.3399 67.3898C26.1499 66.7398 28.3999 65.0298 28.6499 63.9298C27.6499 63.9298 25.3699 66.2498 24.6499 64.3998C24.2799 63.3998 25.0799 63.6498 25.8399 63.3398C26.5999 63.0298 27.3999 62.6898 28.1599 62.3398C28.9199 61.9898 29.8599 61.9698 30.3699 61.4298C30.8799 60.8898 30.6399 60.5898 29.9099 60.4298C29.1799 60.2698 28.9099 59.8098 29.3899 59.1198C29.8699 58.4298 30.5299 58.7098 31.2099 59.0398C31.7099 59.2898 32.2099 59.7698 32.8099 59.4298C33.4664 58.8929 34.0482 58.2707 34.5399 57.5798C34.9599 57.1198 36.0999 58.2598 35.7699 58.7598C35.5599 59.0798 33.8899 60.3098 34.3199 60.6498C34.6224 60.8551 34.9068 61.0859 35.1699 61.3398C35.4399 61.6598 34.8999 61.8898 34.7499 62.0998C34.1199 62.9698 33.6799 62.2098 32.9999 61.9998C32.3199 61.7898 31.7199 63.2098 31.4099 63.6398C30.835 64.3103 30.3103 65.0222 29.8399 65.7698C31.333 65.6603 32.771 65.1602 34.0099 64.3198C34.3899 64.0898 35.5199 63.5998 35.5999 63.1098C35.6799 62.6198 35.3699 61.9298 35.8699 61.4098C36.5099 60.7398 37.9499 61.5098 38.1499 62.2698C38.2099 62.4998 38.1499 62.9298 38.2699 63.1198C38.3899 63.3098 38.9999 63.3898 39.2699 63.4598C39.8799 63.6498 40.2699 63.9098 40.0599 64.6398C39.9399 65.1898 39.4699 65.5098 39.0599 65.8898C38.5097 66.4301 38.0262 67.0344 37.6199 67.6898C37.1399 68.4998 37.2899 68.5598 38.1699 68.3198C38.82 68.137 39.4375 67.8536 39.9999 67.4798C40.5396 67.1697 41.1279 66.9533 41.7399 66.8398C42.4099 66.6398 42.9799 66.2298 43.6699 66.0298C44.9799 65.6398 46.7799 65.3198 48.0499 66.0298C49.3199 66.7398 48.8899 68.3298 47.3899 67.4598C46.7187 67.2129 45.9908 67.1637 45.2925 67.3179C44.5942 67.4721 43.9547 67.8232 43.4499 68.3298C42.6399 69.2798 42.6299 71.0598 44.3499 70.5398C44.9316 70.3346 45.4682 70.0188 45.9299 69.6098C46.3799 69.1998 46.8099 68.6098 47.4899 68.6098C49.4899 68.7598 46.9399 70.5398 47.4899 71.1098C48.0399 71.6798 50.4899 69.4498 50.9599 69.1898C51.7499 68.7098 53.7599 66.9298 54.4699 68.3298C55.1799 69.7298 53.8399 71.4698 53.7399 72.7898C54.4599 72.6998 56.0699 71.6598 56.0099 70.8398C55.8999 69.2298 57.1899 67.9898 58.6499 68.9298C58.885 69.0906 59.054 69.3311 59.1257 69.6068C59.1974 69.8825 59.1669 70.1748 59.0399 70.4298C58.8699 70.8598 58.0899 71.2998 58.1399 71.7598C58.1899 72.2198 59.2799 72.5898 59.4499 72.0698C59.7399 71.1798 59.7799 70.8098 60.6299 70.3598C61.7899 69.7298 63.1399 69.0698 64.4199 69.7898C65.0201 70.1073 65.4722 70.6471 65.6797 71.2937C65.8871 71.9402 65.8333 72.6423 65.5299 73.2498C65.1699 73.8798 64.1699 73.9998 63.5299 74.0098C63.1499 74.0098 61.4299 73.7798 61.2399 74.0998C61.0499 74.4198 62.0399 75.4098 62.3999 75.4498C63.2887 75.4241 64.1602 75.1985 64.9499 74.7898C65.5899 74.4098 67.6299 72.7898 67.8299 72.0798C68.0879 71.5135 68.3784 70.9626 68.6999 70.4298C68.9913 69.6648 69.3885 68.9445 69.8799 68.2898C70.2734 67.7244 70.5895 67.1089 70.8199 66.4598C71.1806 65.8922 71.6296 65.3858 72.1499 64.9598C72.9999 64.0598 74.6799 63.4698 75.4299 64.8798C76.1799 66.2898 75.0899 67.8798 74.3199 68.9498C73.3799 70.1898 71.9499 70.9498 70.9699 72.0298C70.4951 72.4492 69.9904 72.8336 69.4599 73.1798C68.9518 73.6805 68.6548 74.3568 68.6299 75.0698C68.5399 75.8498 68.6299 76.6398 69.5199 76.2398C70.2613 75.9255 70.9602 75.5189 71.5999 75.0298C72.5999 74.2198 73.5999 73.4098 74.5999 72.6798C75.5999 71.9498 75.8899 71.7298 76.5999 72.7598C76.6554 72.8138 76.6984 72.8793 76.7258 72.9517C76.7533 73.024 76.7645 73.1016 76.7588 73.1788C76.7531 73.256 76.7305 73.331 76.6927 73.3986C76.6549 73.4661 76.6027 73.5245 76.5399 73.5698C76.2095 73.9835 75.9832 74.4705 75.8799 74.9898C75.6899 75.6298 74.6599 77.6798 75.9799 77.1598C76.8399 76.8198 77.3599 76.2098 78.1799 75.8198C79.0746 75.25 79.8381 74.4967 80.4199 73.6098C81.0399 72.7298 81.0699 71.7098 82.2199 72.5198C83.3699 73.3298 81.8899 74.3598 82.1099 75.3798C83.3399 74.8798 84.0199 72.4398 85.7699 72.8998C88.0099 73.4898 85.8299 76.5998 85.9699 77.8998C87.0799 77.5998 87.9099 76.3798 88.8699 75.7798C90.0056 75.0202 91.2318 74.4054 92.5199 73.9498C93.3499 73.6898 94.9699 73.1298 95.5199 74.2298C95.7699 74.7198 95.3199 75.0698 94.8899 75.1498C94.4599 75.2298 94.2799 75.0098 93.8899 75.1498C93.5873 75.3221 93.2996 75.5195 93.0299 75.7398C92.0916 76.4027 91.3906 77.349 91.0299 78.4398C90.8699 78.8798 90.8299 79.4398 91.4699 79.4398C91.769 79.4106 92.0585 79.318 92.3189 79.1679C92.5793 79.0179 92.8047 78.814 92.9799 78.5698C93.3846 78.2251 93.7562 77.8435 94.0899 77.4298C94.2999 77.1398 94.6299 76.4298 94.9499 76.2498C95.2699 76.0698 95.8099 76.3298 96.1399 76.5698C96.6999 76.9898 96.5399 77.3598 96.4799 77.9898C97.1099 77.6398 97.9599 76.8698 98.3399 77.9298C98.7199 78.9898 98.0399 79.5098 97.2599 79.8498C96.4799 80.1898 95.7999 80.4798 95.6499 81.5098C95.5396 82.4589 95.2868 83.386 94.8999 84.2598C94.0499 85.8598 92.0199 86.6798 90.7299 84.9998C90.5065 84.6211 90.3886 84.1895 90.3886 83.7498C90.3886 83.3101 90.5065 82.8785 90.7299 82.4998C90.9184 82.1164 91.184 81.776 91.5099 81.4998C91.7699 81.2298 92.4599 80.7398 92.5099 80.4098C91.6299 80.4098 89.5099 81.4098 89.1799 79.7698C89.0967 79.4123 89.0531 79.0468 89.0499 78.6798C89.0499 78.4698 89.5399 77.6798 89.2999 77.5398C89.0599 77.3998 87.6599 78.6898 87.4399 78.8798C86.8999 79.3298 84.1399 81.6198 83.9199 79.7098C83.7499 78.2098 85.0699 76.7998 84.7799 75.2798C83.99 75.7859 83.3098 76.4456 82.7799 77.2198C82.0868 77.8446 81.4992 78.5774 81.0399 79.3898C80.9099 79.7098 80.7499 80.2298 80.3199 79.8398C80.0399 79.5698 79.4099 79.8398 79.4799 79.2298C79.5799 78.3498 80.2499 77.2298 80.0599 76.3398C78.3299 77.0798 76.6299 79.1198 74.6399 79.1198C72.6499 79.1198 74.1799 76.1198 73.9599 75.0298C73.2522 75.5061 72.5835 76.0378 71.9599 76.6198C71.2159 77.1351 70.4178 77.5677 69.5799 77.9098C69.2097 78.0342 68.817 78.0772 68.4286 78.0358C68.0403 77.9944 67.6655 77.8695 67.3299 77.6698C66.2499 77.1198 66.7099 76.1898 66.5099 75.2798C65.2755 76.0882 63.8971 76.6518 62.4499 76.9398C61.7877 77.0641 61.1031 76.9245 60.5425 76.5508C59.9819 76.177 59.5898 75.5988 59.4499 74.9398C59.2199 73.1498 57.5899 74.4198 56.6499 73.3298C56.0399 72.6098 54.0499 74.7198 53.4099 75.0598C52.7699 75.3998 52.6099 75.1698 52.0099 74.9098C51.4099 74.6498 51.6299 73.7898 51.7599 73.2498C51.9299 72.5398 52.1199 71.8398 52.2999 71.1398C52.5799 70.0698 52.5599 69.9998 51.6099 70.5998C50.4699 71.2998 45.4799 75.1198 45.3399 71.9998C45.6299 71.3798 45.6399 72.2698 45.6299 72.0798ZM72.0599 67.6298C71.7199 68.1898 70.1599 70.2198 70.2599 70.8398C71.5099 70.6098 74.0499 67.5598 73.9999 66.0598C73.9599 65.0798 72.4099 67.0798 72.0599 67.6598V67.6298ZM62.9099 72.4698C63.0944 72.5181 63.2893 72.5085 63.4682 72.4423C63.6471 72.3761 63.8013 72.2565 63.9099 72.0998C64.5099 71.4298 63.6399 71.0998 63.0199 71.1998C62.4994 71.2816 62.0323 71.5655 61.7199 71.9898C61.2199 72.7698 62.4999 72.4898 62.9199 72.4698C63.4899 72.6398 62.6699 72.5098 62.9099 72.4998V72.4698ZM91.8099 84.3298C93.4899 85.7298 94.9899 81.9998 94.4599 81.3298C93.2157 81.9415 92.2633 83.0196 91.8099 84.3298C91.8099 84.4298 91.9499 83.6198 91.8099 84.3298Z" fill="#DB6840"/>
<path d="M202.44 47.4995C201.74 47.4266 201.033 47.4535 200.34 47.5795C199.65 47.6395 198.98 47.4795 198.28 47.4995C196.28 47.5595 194.35 47.4295 192.38 47.5995C190.82 47.6828 189.255 47.6461 187.7 47.4895C186.03 47.3795 184.37 47.3195 182.7 47.2695C179.25 47.1595 175.78 47.5695 172.34 47.2695C170.85 47.1295 169.34 47.4095 167.81 47.2695C166.535 47.2263 165.258 47.273 163.99 47.4095C163.43 47.4095 161.99 47.6795 161.67 47.0895C160.99 46.0295 162.74 45.6295 163.35 45.6695C164.49 45.7495 165.61 45.5395 166.75 45.6695C168.43 45.8544 170.12 45.9346 171.81 45.9095C173.475 46.0138 175.145 46.0138 176.81 45.9095C177.41 45.8395 177.98 45.6095 178.58 45.5595C179.18 45.5095 180.08 45.9595 180.84 45.9795C182.4 46.0295 183.96 45.8495 185.52 45.8995C187.42 45.9595 189.32 46.2095 191.22 46.1795C193.95 46.1295 196.69 46.1795 199.42 45.9995C200.42 45.9395 201.7 45.4795 202.64 45.8895C203.32 46.1895 202.77 47.6695 202.24 47.4195H202.42C201.89 47.3795 202.51 47.4595 202.44 47.4995Z" fill="#FFC543"/>
<path d="M147.26 45.0198C147.1 43.3398 146.98 41.6598 146.9 39.9698C146.9 39.4398 147.27 38.2498 146.62 37.9698C145.761 37.7172 144.859 37.6423 143.97 37.7498C143.34 37.8498 143.7 40.9498 143.73 41.4898C143.82 43.2898 143.73 45.1898 143.62 46.9898C143.54 48.4498 143.62 49.5798 142.62 50.7498C142.14 51.2998 139.91 51.2898 139.46 50.5798C138.84 49.4749 138.497 48.2363 138.46 46.9698C138.46 45.2598 138.46 43.5498 138.46 41.8498C138.415 41.0437 138.415 40.2358 138.46 39.4298C138.46 38.8198 138.67 38.1998 137.94 38.0698C137.176 37.9398 136.395 37.9398 135.63 38.0698C134.84 38.1998 135.18 38.9498 135.18 39.5098C135.18 41.1898 135.18 42.8598 135.18 44.5098C135.18 45.3498 135.18 46.1998 135.28 47.0398C135.279 47.9882 135.359 48.9351 135.52 49.8698C135.75 50.7098 135.81 50.9798 136 51.4998C136.244 52.1396 136.677 52.6905 137.24 53.0798C138.587 53.9524 140.179 54.3663 141.78 54.2598C142.457 54.2695 143.131 54.1785 143.78 53.9898C144.429 53.694 144.998 53.2484 145.44 52.6898C146.377 51.4715 146.946 50.0108 147.08 48.4798C147.14 47.9251 147.17 47.3677 147.17 46.8098C147.11 46.2598 147.31 45.5898 147.26 45.0198ZM144.87 38.6698H145.3C145.049 38.6197 144.791 38.6197 144.54 38.6698C144.649 38.6501 144.761 38.6501 144.87 38.6698C144.72 38.6698 145.01 38.6898 144.87 38.6698Z" fill="#394556"/>
<path d="M130.28 43.8503C130.232 43.3418 130.148 42.8373 130.03 42.3404C129.84 41.9104 129.6 41.5104 129.41 41.0804C129.05 40.2304 128.21 39.7704 127.63 39.0804C126.24 37.4604 123.93 37.5504 122.02 37.8004C121.002 37.7589 120.007 38.1178 119.25 38.8004C118.516 39.552 117.917 40.4248 117.48 41.3803C116.61 43.3803 116.75 45.6803 116.81 47.8203C116.962 48.7855 117.248 49.7247 117.66 50.6104C117.901 51.49 118.443 52.2576 119.19 52.7804C121.105 53.7519 123.25 54.1775 125.39 54.0103C126.276 53.8249 127.105 53.4343 127.812 52.8698C128.519 52.3053 129.083 51.5828 129.46 50.7603C129.917 49.7686 130.204 48.7072 130.31 47.6204C130.534 46.3535 130.534 45.0572 130.31 43.7903C130.17 43.4703 130.54 44.7103 130.28 43.8503ZM125.74 50.2804C125.28 51.0904 123.69 51.1003 122.91 50.8503C122.432 50.719 121.996 50.4655 121.646 50.1149C121.295 49.7643 121.042 49.3285 120.91 48.8503C120.53 46.4403 119.84 43.7404 121.67 41.6804C122.014 41.3364 122.442 41.0874 122.911 40.9575C123.379 40.8276 123.874 40.8212 124.346 40.939C124.818 41.0568 125.252 41.2947 125.605 41.6296C125.958 41.9645 126.218 42.3851 126.36 42.8503C126.783 44.0724 126.945 45.3698 126.835 46.6584C126.725 47.9469 126.345 49.198 125.72 50.3304L125.74 50.2804Z" fill="#394556"/>
<path d="M113.68 37.7198C113.057 37.6548 112.428 37.675 111.81 37.7798C110.98 37.7798 110.73 37.4498 110.35 38.3098C109.82 39.5198 109.44 40.7998 109.01 42.0598C108.88 42.4398 107.8 44.6898 107.46 44.2798C107.133 43.7521 106.868 43.1883 106.67 42.5998C106.39 41.9998 106.06 41.4098 105.81 40.7998C105.479 40.2051 105.227 39.5697 105.06 38.9098C104.94 38.0898 104.93 38.0598 104.06 37.9798C103.66 37.9798 100.49 37.3398 101.28 38.4798C101.6 38.9498 101.67 39.5798 101.95 40.0798C102.23 40.5798 102.58 41.0798 102.84 41.6098C103.38 42.7298 104.05 43.8298 104.52 44.9898C104.99 46.1498 105.74 46.9398 105.82 48.1698C105.941 49.4327 105.984 50.7017 105.95 51.9698C105.93 52.5356 106.007 53.1007 106.18 53.6398C106.39 54.0098 107.29 53.9098 107.65 53.9198C109.21 53.9698 109.34 52.9198 109.25 51.6798C109.16 50.4398 108.77 48.8698 109.38 47.8098C109.99 46.7498 110.56 45.7098 111.1 44.5898C111.64 43.4698 112.33 42.2598 112.81 41.0298C113 40.4698 114.81 37.9898 113.68 37.7198Z" fill="#394556"/>
<path d="M90.3197 43.9498C89.8997 42.1398 89.3197 40.2098 87.8197 38.9498C86.9833 38.3566 86.0632 37.8915 85.0897 37.5698C83.7997 37.0198 82.9897 37.4598 81.7197 37.6898C79.4897 38.0798 78.5397 39.2199 77.5297 41.1799C76.5197 43.1399 76.7797 45.7399 77.0297 47.9299C77.1657 48.7853 77.4644 49.6068 77.9097 50.3498C78.1687 50.9509 78.5048 51.5156 78.9097 52.0299C80.4197 53.5399 82.2697 53.6698 84.3097 53.6298C85.3627 53.6719 86.4047 53.402 87.3048 52.8541C88.205 52.3061 88.9234 51.5045 89.3697 50.5498C89.7154 49.5741 89.9764 48.5704 90.1497 47.5498C90.4355 46.3717 90.4932 45.1497 90.3197 43.9498V43.9498ZM86.8097 46.3999C86.6691 47.562 86.3309 48.6916 85.8097 49.7398C85.2597 51.0298 84.2697 51.0398 83.0097 50.7398C80.5897 50.2498 80.1497 46.7398 80.2597 44.7398C80.3897 42.3798 82.0497 39.7398 84.7197 40.5998C87.0397 41.4498 86.8797 44.5099 86.8097 46.3999Z" fill="#394556"/>
<path d="M73.4401 38.08C73.4401 37.01 67.8701 37.29 66.9301 37.35C65.9901 37.41 63.4001 37.35 63.4001 37.35C63.4001 37.35 61.7201 37.22 61.8101 37.76C61.9001 38.3 61.6001 40.01 62.2201 40.22C62.7136 40.3001 63.2167 40.3001 63.7101 40.22C64.1201 40.22 65.3801 39.88 65.7101 40.14C66.3201 40.66 65.9201 43 65.8901 43.72C65.8301 45.09 65.8901 46.46 65.9601 47.83L66.0501 51.69C66.1001 53.06 66.2601 53.35 67.6701 53.36C68.1482 53.416 68.6317 53.3179 69.0501 53.08C69.3101 52.84 69.1501 51.73 69.1601 51.4C69.1601 50.02 69.2301 48.63 69.2401 47.24C69.2401 46.01 69.3601 44.79 69.3601 43.55C69.2698 42.6476 69.29 41.7376 69.4201 40.84C69.6501 39.95 71.4201 40.51 72.0901 40.52C73.7101 40.63 73.4901 39.36 73.4401 38.08Z" fill="#394556"/>
<path d="M12.3598 45.1803C14.0519 45.1452 15.7446 45.2052 17.4298 45.3603C19.1398 45.4503 20.8998 45.1903 22.5998 45.1403C23.3598 45.1403 24.0898 45.2903 24.8498 45.2503C25.7058 45.2002 26.5639 45.2002 27.4198 45.2503C28.2498 45.2503 29.0698 45.3003 29.8998 45.2503C30.6441 45.3352 31.3956 45.3352 32.1398 45.2503C33.5398 44.9103 35.0098 45.3003 36.4198 45.3403C38.3398 45.3903 40.2598 45.4403 42.1898 45.4303C44.1198 45.4203 45.7998 45.3703 47.6098 45.3103L50.3198 45.2103C50.9898 45.2103 52.3198 44.8103 52.8198 45.4803C53.8198 46.9103 50.1598 46.5503 49.7698 46.5503C47.8198 46.5503 45.8798 46.8103 43.9198 46.7303C40.2298 46.5703 36.5498 46.5303 32.8598 46.5903C31.241 46.6753 29.6187 46.6753 27.9998 46.5903C26.2898 46.4403 24.6498 46.7603 22.9998 46.5903C22.1767 46.4589 21.3413 46.422 20.5098 46.4803C19.887 46.5152 19.2627 46.5152 18.6398 46.4803C17.8798 46.5303 17.1198 46.5903 16.3598 46.5803C15.9688 46.5587 15.5806 46.5018 15.1998 46.4103C14.7798 46.4103 14.3898 46.5903 13.9698 46.5603C13.2698 46.5003 11.6398 46.8703 11.4598 45.8903C11.3098 45.0703 12.2198 45.1603 12.7198 45.1803C12.6168 45.169 12.5129 45.169 12.4098 45.1803C13.9298 45.0803 12.3498 45.1503 12.3598 45.1803Z" fill="#FFC543"/>
<path d="M210.161 24.2296C209.931 23.0996 209.791 21.4496 208.641 20.3396C207.491 19.2296 206.301 17.8996 205.091 16.7996C203.898 15.7695 202.628 14.8333 201.291 13.9996C200.632 13.6131 200.065 13.0885 199.628 12.4618C199.191 11.8352 198.895 11.1214 198.761 10.3696C198.67 9.67708 198.811 8.97401 199.161 8.36961C199.401 7.95961 199.651 7.22962 200.061 6.98962C201.641 6.05962 202.911 6.98962 204.551 7.07962C205.312 7.12027 206.045 7.3808 206.661 7.82962C207.031 8.10962 207.951 8.36962 208.131 7.73962C208.591 6.07962 208.781 4.22961 209.071 2.52961C209.201 1.76961 208.711 1.89962 208.221 1.76962C207.561 1.59962 206.971 1.21962 206.301 1.04962C204.508 0.483774 202.629 0.240007 200.751 0.329615C198.541 0.589615 194.851 2.23961 194.211 4.69961C194.041 5.33961 193.541 6.01961 193.321 6.69961C193.016 7.44852 192.837 8.24249 192.791 9.04962C192.781 10.7399 193.01 12.4231 193.471 14.0496C193.969 15.4586 194.706 16.7712 195.651 17.9296C196.556 19.1781 197.808 20.1341 199.251 20.6796C200.361 21.1577 201.398 21.7907 202.331 22.5596C202.835 22.9501 203.279 23.4116 203.651 23.9296C204.241 24.9767 204.525 26.1688 204.471 27.3696C204.386 27.9483 204.273 28.5224 204.131 29.0896C204.013 29.5859 203.755 30.038 203.388 30.3924C203.021 30.7469 202.561 30.9888 202.061 31.0896C200.736 31.3344 199.369 31.1956 198.121 30.6896C196.999 30.4296 195.943 29.9393 195.021 29.2496C194.681 28.9396 194.271 28.1896 193.751 28.1496C193.231 28.1096 193.101 29.3496 193.051 29.6796C192.851 31.0296 192.341 32.3896 192.211 33.7396C192.151 34.2896 193.711 35.0196 194.131 35.2696C195.295 35.9597 196.528 36.5261 197.811 36.9596C200.051 37.7296 202.721 38.4596 205.071 37.6996C206.171 37.3258 207.17 36.7029 207.991 35.8796C208.748 34.9904 209.258 33.918 209.471 32.7696C210.221 30.1996 210.811 26.9196 210.161 24.2796C209.991 23.5396 210.271 24.7896 210.161 24.2296Z" fill="#394556"/>
<path d="M187.27 28.55C187.04 28.04 185.85 28.26 185.44 28.2C184.49 28.06 183.59 27.8 182.66 27.58C181.92 27.3175 181.157 27.1266 180.38 27.01C179.7 27.0024 179.025 26.8876 178.38 26.67C177.38 26.28 177.89 22.73 177.89 21.87C177.89 21.87 177.63 3.48001 177.83 1.72001C177.99 0.350013 175.52 0.600006 174.71 0.510006C174.036 0.425403 173.352 0.497269 172.71 0.720013C172.04 0.970013 172.29 1.85002 172.32 2.38002C172.42 4.16002 172.43 5.93001 172.44 7.70001C172.45 9.47001 172.54 11.4 172.49 13.22C172.425 14.9562 172.496 16.6947 172.7 18.42C172.805 20.3452 172.805 22.2748 172.7 24.2C172.7 25.9 172.7 27.59 172.7 29.29C172.586 29.9603 172.645 30.6486 172.87 31.29C173.26 31.88 174.59 31.79 175.2 31.88C177.67 32.26 180.13 32.88 182.59 33.38C183.59 33.58 184.7 33.73 185.73 33.85C186.114 33.9521 186.505 34.0223 186.9 34.06C187.4 34.06 187.47 33.56 187.47 33.18C187.556 31.6339 187.489 30.0831 187.27 28.55Z" fill="#394556"/>
<path d="M164.01 28.6701C163.845 27.2357 163.825 25.7884 163.95 24.3501C164.02 22.9301 163.81 21.4901 163.95 20.0701C163.943 18.5148 163.836 16.9617 163.63 15.4201C163.56 13.8401 163.63 12.2601 163.56 10.6801C163.49 9.10008 163.67 7.68007 163.49 6.16007C163.41 4.77456 163.41 3.38558 163.49 2.00007C163.49 1.68007 163.65 0.870066 163.27 0.670066C162.755 0.530602 162.224 0.453389 161.69 0.440071C160.91 0.440071 160.22 0.310073 159.69 0.380073C159.16 0.450073 157.85 0.600075 157.84 1.21008C157.73 7.56007 158.16 13.8701 158.28 20.2101C158.28 21.8001 158.49 23.4101 158.44 25.0001C158.44 25.7001 158.44 26.4101 158.44 27.1101C158.44 27.8101 158.44 28.3601 158.44 28.9801C158.49 29.8601 160.71 29.9801 161.3 30.1001C162.037 30.3151 162.802 30.4229 163.57 30.4201C164.04 30.3601 164.07 29.0001 164.01 28.6701Z" fill="#394556"/>
<path d="M151.4 27.6903C150.151 24.4946 149.089 21.2291 148.22 17.9103C147.22 14.6403 146.22 11.3003 145.02 8.09027C144.76 7.37027 144.64 6.61028 144.38 5.90028C144.067 5.21877 143.833 4.50427 143.68 3.77028C143.579 3.09165 143.422 2.42265 143.21 1.77028C142.9 0.840278 142.75 0.630281 141.8 0.460281C140.372 0.340063 138.937 0.340063 137.51 0.460281C136.02 0.460281 136 2.23027 135.63 3.34027C134.63 6.42027 133.53 9.42027 132.75 12.5603C131.894 15.7603 130.829 18.9005 129.56 21.9603C129.253 22.6041 129.002 23.2732 128.81 23.9603C128.535 24.7227 128.35 25.5148 128.26 26.3203C128.26 27.2303 132.01 27.3203 132.65 27.3203C133.29 27.3203 133.6 27.6003 133.75 26.8803C133.928 26.1335 134.173 25.404 134.48 24.7003C134.78 23.9303 135.09 23.1703 135.33 22.3803C135.62 21.3803 136.14 21.8903 137.01 21.9903C137.88 22.0903 139.01 22.1903 140.01 22.3303C140.86 22.4503 141.72 22.3303 142.54 22.5503C143.36 22.7703 144.09 22.3903 144.36 23.3103C144.63 24.2303 144.66 25.0603 144.99 25.9103C145.115 26.1767 145.203 26.4595 145.25 26.7503C145.25 27.0103 145.61 27.3103 145.59 27.5103C145.51 28.3603 146.19 28.4003 146.94 28.5103C147.69 28.6203 151.89 28.8703 151.38 27.6603C151.25 27.3503 151.55 28.0803 151.4 27.6903ZM140.57 17.5803C139.63 17.4803 138.5 17.8403 137.57 17.5803C136.92 17.3803 136.75 17.3903 136.83 16.7003C136.976 16.0545 137.166 15.4196 137.4 14.8003C137.72 13.6503 138.07 12.5303 138.4 11.3903C138.73 10.2503 139 8.48027 139.74 7.51027C140.22 8.31642 140.52 9.21707 140.62 10.1503C140.79 11.0803 141.15 11.9703 141.36 12.8903C141.72 14.4703 142.2 16.0403 142.59 17.6203C141.927 17.7271 141.252 17.7271 140.59 17.6203L140.57 17.5803Z" fill="#394556"/>
<path d="M125.741 3.79002C125.741 2.92002 125.671 2.05002 125.641 1.19002C125.641 0.520016 125.191 0.570021 124.641 0.570021C123.883 0.446738 123.118 0.373246 122.351 0.350019C121.401 0.460019 120.471 0.300019 119.531 0.350019C117.728 0.403257 115.924 0.336446 114.131 0.150022C112.341 0.0200224 110.591 0.100022 108.801 0.150022C108.271 0.150022 107.341 -0.18999 106.891 0.20001C106.441 0.59001 106.541 1.52002 106.481 2.02002C106.306 2.75645 106.306 3.52357 106.481 4.26001C106.781 4.99001 108.231 4.82002 108.861 4.80002C110.241 4.80002 111.691 4.70002 113.081 4.80002C113.501 4.80002 113.601 7.50002 113.561 7.80002C113.071 11.2 113.701 14.68 113.431 18.1C113.434 18.8926 113.488 19.6842 113.591 20.47C113.591 21.24 113.481 22 113.521 22.76C113.561 23.52 113.521 24.35 113.591 25.14C113.661 25.93 114.081 26.07 114.861 26.14C115.653 26.19 116.448 26.19 117.241 26.14C117.851 26.14 118.481 26.07 118.781 25.46C119.081 24.85 118.721 24.23 118.781 23.61C118.781 22.71 118.851 21.81 118.891 20.9C118.951 19.25 119.111 17.6 119.161 15.95C119.221 13.95 119.091 12.02 119.161 10.06C119.1 8.87412 119.1 7.68591 119.161 6.50001C119.183 5.97533 119.267 5.45507 119.411 4.95001C119.541 4.64001 120.321 4.95001 120.541 5.00001C121.055 5.05846 121.573 5.08185 122.091 5.07002C122.641 5.07002 123.141 4.80002 123.711 4.80002C124.641 4.80002 125.821 5.06002 125.791 3.74002C125.731 2.92002 125.751 4.08002 125.741 3.79002Z" fill="#394556"/>
<path d="M89.2809 0.0801887C89.2209 -0.0698113 88.0209 -0.0398052 87.8009 -0.0698052C87.5809 -0.0998052 87.1909 0.060193 86.9009 0.100193C86.4083 0.1402 85.9134 0.1402 85.4209 0.100193C84.9109 0.100193 83.9909 -0.179806 83.7209 0.460194C83.4509 1.10019 82.8309 1.84018 82.5809 2.59018C81.9805 4.04924 81.2753 5.46294 80.4709 6.82019C80.2509 7.22019 78.6409 11.7202 78.2109 11.5202C77.7809 11.3202 77.5409 10.1002 77.3909 9.80019C77.0109 9.03019 76.6709 8.26019 76.3909 7.47019C75.6809 5.72019 75.0009 3.95018 74.2809 2.20018C74.0691 1.47938 73.7304 0.802115 73.2809 0.200184C72.8009 -0.289816 71.9209 -0.149806 71.2809 -0.179806C70.6409 -0.209806 67.0109 -0.709816 67.4209 0.700184C68.0166 2.04185 68.6842 3.35042 69.4209 4.62018C70.0909 6.18018 70.8909 7.69019 71.5909 9.25019C72.2909 10.8102 73.0609 12.1602 73.7009 13.6502C74.0209 14.3702 74.5409 14.9902 74.8409 15.7302C75.1409 16.4702 75.8409 16.8802 75.7409 17.8702C75.5209 19.4902 75.7409 21.1402 75.6809 22.7702C75.6809 23.6402 75.5209 24.5002 75.5309 25.3702C75.5409 26.2402 75.0909 27.3702 76.3309 27.1702C77.0509 27.0802 77.7109 26.8302 78.4409 26.7802C79.2043 26.8363 79.971 26.7307 80.6909 26.4702C81.3309 26.0702 81.1809 25.3402 81.1609 24.7002C81.1609 23.7002 81.1009 22.6302 81.1009 21.6002C80.9582 20.0786 81.0221 18.5447 81.2909 17.0402C81.4709 16.4502 81.8209 15.9602 82.0509 15.4002C82.3962 14.4302 82.821 13.4903 83.3209 12.5902C84.874 9.98892 86.2504 7.28616 87.4409 4.50019C87.7809 3.75019 88.1709 3.0202 88.5609 2.2902C88.9509 1.5602 89.5809 0.870189 89.2809 0.0801887Z" fill="#394556"/>
<path d="M60.5701 8.3799C60.6201 6.5699 60.6901 4.7599 60.5701 2.9499C60.545 2.16273 60.565 1.37477 60.6301 0.589896C60.6301 -0.200104 59.1401 -0.130093 58.6301 -0.180093C57.8301 -0.250093 55.3901 -0.260096 55.5201 1.0199C55.6901 2.6799 55.5801 4.3399 55.6301 6.0199C55.7201 9.3899 55.6301 12.7899 55.6301 16.1599C55.6301 17.2399 55.5101 17.2999 54.9001 16.4199C54.4701 15.7999 54.0801 15.1699 53.6701 14.5499C52.7301 13.0899 51.9401 11.5499 51.1001 10.0699C49.4901 7.15991 47.8201 4.2199 46.0301 1.4199C45.7001 0.909898 45.6601 0.109903 44.9701 -0.0600974C44.2669 -0.125122 43.5585 -0.104978 42.8601 -9.98676e-05C42.4801 -9.98676e-05 41.2601 -0.240102 41.0601 0.309898C40.8708 1.29793 40.8103 2.30632 40.8801 3.3099C40.3401 10.3099 40.6401 17.4799 40.5701 24.5499C40.5701 25.8699 40.6701 27.1699 40.7201 28.4899C40.7201 29.2999 40.3301 30.8199 41.6301 30.7199C42.1496 30.6697 42.6645 30.5794 43.1701 30.4499C43.6601 30.3399 44.5801 29.8899 45.0701 30.0499C45.8601 30.3099 45.4601 27.1299 45.5101 26.6599C45.7501 24.1599 45.4101 21.5899 45.5101 19.0799C45.6101 16.5699 45.4401 14.0799 45.7901 11.7499C46.7901 13.0799 47.5501 14.6899 48.4601 16.0999C49.4601 17.7499 50.4601 19.4299 51.4601 21.0999C52.278 22.7709 53.2137 24.3816 54.2601 25.9199C54.7701 26.6099 55.1201 27.5399 55.6701 28.1699C56.2201 28.7999 57.3801 28.4499 57.9801 28.3099C58.6684 28.0444 59.3732 27.8239 60.0901 27.6499C60.9001 27.5899 60.6301 26.7999 60.6001 26.1699C60.5101 24.3099 60.5401 22.4699 60.5101 20.6099C60.5101 16.5299 60.5101 12.4599 60.6301 8.36989C60.5901 7.63989 60.5201 9.8399 60.5701 8.3799Z" fill="#394556"/>
<path d="M32.1211 0.529853C32.1211 -0.570147 29.0011 -0.330144 28.3011 -0.280144C27.6624 -0.287602 27.0259 -0.203412 26.4111 -0.0301442C25.9011 0.149856 26.4111 1.14986 26.3411 1.62986C26.216 3.19737 26.216 4.77234 26.3411 6.33985C26.3411 8.03985 26.3411 9.75986 26.3411 11.4599C26.3411 14.7199 26.2511 17.9799 26.2111 21.2299C26.1511 24.7099 26.6311 28.2299 26.1211 31.6699C25.8811 33.3399 28.4711 32.3399 29.2511 32.1999C30.3311 31.9999 31.9211 31.8799 31.8111 30.5499C31.5311 27.1999 31.6911 23.7698 31.6811 20.4098C31.6811 17.2198 31.8611 14.0399 31.8611 10.8499C31.8111 7.40986 32.2711 3.96985 32.1211 0.529853Z" fill="#394556"/>
<path d="M18.6404 -0.120145C17.9519 -0.055078 17.2588 -0.055078 16.5704 -0.120145C15.7125 -0.045201 14.8508 -0.0251626 13.9904 -0.0601475C12.578 -0.0479032 11.166 -0.11133 9.76037 -0.25015C9.19424 -0.285214 8.62649 -0.285214 8.06037 -0.25015C7.20809 -0.310206 6.35265 -0.310206 5.50037 -0.25015C3.92037 -0.14015 1.77037 -0.870154 0.290374 -0.160154C-0.159626 0.0498464 0.14037 0.839851 0.0903696 1.21985C0.0202937 2.06459 0.000261139 2.91274 0.0303721 3.75984C-0.050013 4.49149 -0.00947645 5.23137 0.150367 5.94985C0.430367 6.73985 1.15037 6.49986 1.78037 6.42986C3.43816 6.21918 5.11049 6.14559 6.78037 6.20986C7.13037 6.20986 6.89037 10.1299 6.89037 10.6299C6.89037 12.3199 6.89037 13.9998 6.83037 15.6898C6.69539 17.5641 6.69539 19.4456 6.83037 21.3198C7.03543 23.0351 7.09564 24.7645 7.01037 26.4899C6.94037 28.3599 7.01037 30.2198 7.01037 32.0998C7.01037 32.8898 6.91037 33.6799 6.87037 34.4699C6.87037 35.0299 6.64037 35.8498 7.00037 36.3498C7.72037 37.3498 10.3004 35.9798 11.1604 35.6998C11.8404 35.4698 12.4104 35.6998 12.5204 34.7598C12.6304 33.8198 12.3604 33.0899 12.4004 32.2699C12.4804 30.4399 12.3404 28.5898 12.3504 26.7598C12.3504 23.7598 12.5404 20.7598 12.5304 17.7598C12.5204 14.7598 12.5304 11.8499 12.7604 8.85985C12.8204 8.18985 12.8904 7.50985 12.9204 6.85985C12.9204 5.99985 13.3204 6.13986 14.1004 6.06986C14.8804 5.99986 15.5704 5.91985 16.3004 5.86985C17.0304 5.81985 18.1604 6.01985 18.7304 5.69985C18.9132 5.58568 19.0653 5.42847 19.1734 5.24195C19.2815 5.05542 19.3423 4.84528 19.3504 4.62986C19.4855 3.97197 19.5492 3.30142 19.5404 2.62985C19.3704 1.96985 20.0104 -0.520145 18.6404 -0.120145Z" fill="#394556"/>
</g>
<defs>
<clipPath id="clip0">
<rect width="210" height="86" fill="white"/>
</clipPath>
</defs>
</svg>
