<svg width="429" height="94" viewBox="0 0 429 94" fill="none" xmlns="http://www.w3.org/2000/svg">
<path d="M82.537 36.61V24.1025C82.5379 21.6374 81.8633 19.2183 80.5853 17.1033C105.209 16.9807 77.9532 -10.1312 77.4859 13.5355C75.0183 11.5227 71.9199 10.4249 68.7236 10.4308H65.7547V9.11674C65.7511 6.69994 64.7804 4.38315 63.0555 2.67421C61.3306 0.96527 58.9921 0.0036018 56.5527 0H39.5092C37.0698 0.0036018 34.7313 0.96527 33.0064 2.67421C31.2814 4.38315 30.3107 6.69994 30.3071 9.11674V10.4308H27.3176C24.1213 10.4249 21.0229 11.5227 18.5554 13.5355C18.0881 -10.1108 -9.16773 16.9807 15.4491 17.1033C14.1782 19.2204 13.5108 21.6393 13.5179 24.1025V36.61C9.5625 38.017 6.14169 40.599 3.72238 44.0036C1.30307 47.4082 0.00313537 51.4695 0 55.6332V70.1969C0.0074736 74.0493 1.12515 77.8194 3.22159 81.064C5.31803 84.3085 8.30604 86.8925 11.8342 88.5121V89.0363C11.8275 90.2312 12.2585 91.3879 13.0472 92.2918C13.8359 93.1958 14.9288 93.7856 16.1231 93.952C17.3174 94.1182 18.5321 93.8497 19.5418 93.1962C20.5514 92.5426 21.2876 91.5484 21.6136 90.3981C26.425 90.2966 31.175 89.306 35.6194 87.4771C39.1312 86.1767 42.1619 85.0533 47.9897 85.0533C53.8175 85.0533 56.8757 86.1767 60.3599 87.4771C64.8122 89.3041 69.5686 90.2946 74.3864 90.3981C74.7124 91.5484 75.4486 92.5426 76.4582 93.1962C77.4679 93.8497 78.6826 94.1182 79.8769 93.952C81.0712 93.7856 82.1641 93.1958 82.9528 92.2918C83.7415 91.3879 84.1725 90.2312 84.1658 89.0363V88.5121C87.6961 86.8897 90.6853 84.3022 92.7818 81.054C94.8783 77.8058 95.9948 74.032 96 70.1765V55.6332C96 51.4763 94.7077 47.4202 92.2989 44.0166C89.8901 40.6129 86.4816 38.0268 82.537 36.61ZM37.042 9.11674C37.042 8.46848 37.302 7.84676 37.7646 7.38836C38.2273 6.92997 38.8549 6.67245 39.5092 6.67245H56.5527C56.8766 6.67245 57.1975 6.73567 57.4968 6.85851C57.7961 6.98135 58.0681 7.16139 58.2972 7.38836C58.5263 7.61534 58.708 7.8848 58.832 8.18135C58.956 8.47791 59.0198 8.79575 59.0198 9.11674V10.4308H37.0283L37.042 9.11674ZM20.2528 24.0957C20.2583 22.2417 21.0046 20.4652 22.3285 19.1549C23.6524 17.8445 25.4462 17.1068 27.3176 17.1033H68.7236C69.6523 17.1024 70.572 17.2827 71.4303 17.634C72.2887 17.9852 73.0687 18.5005 73.726 19.1505C74.3833 19.8004 74.905 20.5723 75.2612 21.4219C75.6174 22.2716 75.8012 23.1825 75.8021 24.1025L75.9533 36.61H20.404L20.2528 24.0957ZM89.3407 70.1969C89.3389 73.791 87.8965 77.2372 85.3306 79.778C82.7648 82.3187 79.2855 83.746 75.6578 83.746C69.6033 83.746 66.2839 82.5273 62.779 81.2268C58.9923 79.8651 55.082 78.3876 48.0172 78.3876C42.956 78.3222 37.9355 79.291 33.2691 81.2337C29.7642 82.5273 26.4586 83.746 20.404 83.746C16.7787 83.7424 13.303 82.3135 10.7401 79.7732C8.17723 77.2328 6.73673 73.7886 6.73491 70.1969V55.6332C6.74037 52.0439 8.18248 48.6032 10.745 46.0657C13.3074 43.5283 16.7811 42.1013 20.404 42.0977H75.6578C79.2832 42.0977 82.7603 43.5231 85.3258 46.0609C87.8912 48.5987 89.3352 52.0415 89.3407 55.6332V70.1969Z" fill="#FC814A"/>
<path d="M17.1809 48.5523C14.8374 49.7029 13.944 53.1072 15.181 56.28C16.4181 59.4529 19.3044 61.0461 21.6754 59.9703C24.0464 58.8946 24.9123 55.4017 23.6753 52.2425C22.4382 49.0833 19.5312 47.4425 17.1809 48.5523Z" fill="#FC814A"/>
<path d="M78.8741 48.5523C76.5306 47.4425 73.6236 49.097 72.3866 52.2426C71.1495 55.3882 72.0429 58.8538 74.3864 59.9704C76.7299 61.087 79.6369 59.4325 80.8808 56.2801C82.1247 53.1277 81.2244 49.703 78.8741 48.5523Z" fill="#FC814A"/>
<path d="M35.4201 30.5086C38.3684 30.5086 40.7668 33.7222 40.7668 30.7945C40.7172 29.4216 40.1317 28.1214 39.1338 27.1675C38.1359 26.2137 36.8034 25.6806 35.4167 25.6806C34.0301 25.6806 32.6975 26.2137 31.6996 27.1675C30.7017 28.1214 30.1162 29.4216 30.0666 30.7945C30.0666 33.7222 32.465 30.5086 35.4201 30.5086Z" fill="#FC814A"/>
<path d="M60.6417 30.5086C63.5968 30.5086 65.9884 33.7223 65.9884 30.7945C65.9884 29.3897 65.4251 28.0423 64.4224 27.0489C63.4197 26.0555 62.0597 25.4974 60.6417 25.4974C59.2237 25.4974 57.8637 26.0555 56.861 27.0489C55.8583 28.0423 55.295 29.3897 55.295 30.7945C55.295 33.7223 57.6866 30.5086 60.6417 30.5086Z" fill="#FC814A"/>
<path fill-rule="evenodd" clip-rule="evenodd" d="M20.2528 24.0957C20.2583 22.2417 21.0046 20.4652 22.3285 19.1549C23.6524 17.8445 25.4462 17.1068 27.3176 17.1033H68.7236C69.6523 17.1024 70.572 17.2827 71.4303 17.634C72.2887 17.9852 73.0687 18.5005 73.726 19.1505C74.3833 19.8004 74.905 20.5723 75.2612 21.4219C75.6174 22.2716 75.8012 23.1825 75.8021 24.1025L75.9533 36.61H20.404L20.2528 24.0957ZM40.7668 30.7945C40.7668 33.7222 38.3684 30.5086 35.4201 30.5086C32.465 30.5086 30.0666 33.7222 30.0666 30.7945C30.1162 29.4216 30.7017 28.1214 31.6996 27.1675C32.6975 26.2137 34.0301 25.6806 35.4167 25.6806C36.8034 25.6806 38.1359 26.2137 39.1338 27.1675C40.1317 28.1214 40.7172 29.4216 40.7668 30.7945ZM65.9884 30.7945C65.9884 33.7223 63.5968 30.5086 60.6417 30.5086C57.6866 30.5086 55.295 33.7223 55.295 30.7945C55.295 29.3897 55.8583 28.0423 56.861 27.0489C57.8637 26.0555 59.2237 25.4974 60.6417 25.4974C62.0597 25.4974 63.4197 26.0555 64.4224 27.0489C65.4251 28.0423 65.9884 29.3897 65.9884 30.7945Z" fill="white"/>
<path fill-rule="evenodd" clip-rule="evenodd" d="M89.3407 70.1969C89.3389 73.791 87.8965 77.2372 85.3306 79.778C82.7648 82.3187 79.2855 83.746 75.6578 83.746C69.6033 83.746 66.2839 82.5273 62.779 81.2268C58.9923 79.8651 55.082 78.3876 48.0172 78.3876C42.956 78.3222 37.9355 79.291 33.2691 81.2337C29.7642 82.5273 26.4586 83.746 20.404 83.746C16.7787 83.7424 13.303 82.3135 10.7401 79.7732C8.17723 77.2328 6.73673 73.7886 6.73491 70.1969V55.6332C6.74037 52.0439 8.18248 48.6032 10.745 46.0657C13.3074 43.5283 16.7811 42.1013 20.404 42.0977H75.6578C79.2832 42.0977 82.7603 43.5231 85.3258 46.0609C87.8912 48.5987 89.3352 52.0415 89.3407 55.6332V70.1969ZM15.181 56.28C13.944 53.1072 14.8374 49.7029 17.1809 48.5523C19.5312 47.4425 22.4382 49.0833 23.6753 52.2425C24.9123 55.4017 24.0464 58.8946 21.6754 59.9703C19.3044 61.0461 16.4181 59.4529 15.181 56.28ZM72.3866 52.2426C73.6236 49.097 76.5306 47.4425 78.8741 48.5523C81.2244 49.703 82.1247 53.1277 80.8808 56.2801C79.6369 59.4325 76.7299 61.087 74.3864 59.9704C72.0429 58.8538 71.1495 55.3882 72.3866 52.2426Z" fill="white"/>
<path d="M137.263 70.6939C132.436 70.6939 128.8 69.493 126.356 67.0913C123.912 64.6896 122.69 60.933 122.69 55.8217V33.2825H116V22.6595H122.69V12.9603L135.063 11.667V22.6595H145.144V33.2825H135.063V55.1751C135.063 58.131 136.346 59.609 138.912 59.609H144.045V70.6939H137.263Z" fill="#004777"/>
<path d="M149.28 22.6595H161.286V31.8045C162.141 28.2943 163.791 25.6463 166.235 23.8604C168.74 22.0745 172.009 21.3047 176.041 21.551V33.2825H174.3C170.634 33.2825 167.61 34.4526 165.227 36.7927C162.844 39.0713 161.653 42.1812 161.653 46.1225V70.6939H149.28V22.6595Z" fill="#004777"/>
<path d="M180.158 22.6595H192.53V70.6939H180.158V22.6595ZM178.875 11.2975C178.875 9.26531 179.577 7.541 180.983 6.1246C182.449 4.7082 184.221 4 186.298 4C188.437 4 190.209 4.7082 191.614 6.1246C193.019 7.541 193.722 9.26531 193.722 11.2975C193.722 13.3913 193.019 15.1464 191.614 16.5628C190.209 17.9792 188.437 18.6874 186.298 18.6874C184.221 18.6874 182.449 17.9792 180.983 16.5628C179.577 15.0849 178.875 13.3298 178.875 11.2975Z" fill="#004777"/>
<path d="M199.848 22.6595H212.037V30.4189C213.442 27.5861 215.337 25.4307 217.719 23.9527C220.102 22.4132 223.279 21.6434 227.251 21.6434C231.528 21.6434 235.469 22.7827 239.074 25.0612C242.678 27.3398 245.52 30.4189 247.597 34.2986C249.735 38.1167 250.805 42.3043 250.805 46.8614C250.805 51.4185 249.735 55.6062 247.597 59.4243C245.52 63.2424 242.678 66.2907 239.074 68.5693C235.469 70.7863 231.528 71.8947 227.251 71.8947C223.402 71.8947 220.255 71.1865 217.811 69.7701C215.428 68.2922 213.565 66.2291 212.22 63.5811V89.1686H199.848V22.6595ZM211.854 46.8614C211.854 49.3863 212.404 51.6957 213.504 53.7895C214.603 55.8833 216.161 57.546 218.178 58.7777C220.255 60.0093 222.607 60.6251 225.235 60.6251C227.801 60.6251 230.061 60.0093 232.017 58.7777C234.033 57.4844 235.591 55.7909 236.691 53.6971C237.852 51.5417 238.432 49.2324 238.432 46.7691C238.432 44.2442 237.882 41.9348 236.782 39.841C235.683 37.7472 234.125 36.0845 232.108 34.8528C230.092 33.5596 227.801 32.913 225.235 32.913C222.607 32.913 220.255 33.5596 218.178 34.8528C216.161 36.0845 214.603 37.778 213.504 39.9334C212.404 42.0272 211.854 44.3366 211.854 46.8614Z" fill="#004777"/>
<path d="M249.676 22.6595H264.156L270.296 49.9098C270.969 52.681 271.457 55.1135 271.763 57.2073C272.191 54.5593 272.71 52.096 273.321 49.8174L280.286 22.6595H294.492L301.915 49.8174C302.526 52.096 303.046 54.5593 303.473 57.2073C303.779 55.1135 304.268 52.681 304.94 49.9098L311.538 22.6595H325.011L310.164 70.6939H296.783L288.993 43.3512C288.26 41.1343 287.71 38.7325 287.343 36.1461C286.915 38.9789 286.427 41.3806 285.877 43.3512L278.728 70.6939H264.523L249.676 22.6595Z" fill="#004777"/>
<path d="M347.138 71.8947C342.861 71.8947 338.92 70.7863 335.316 68.5693C331.711 66.2907 328.839 63.2424 326.701 59.4243C324.623 55.6062 323.585 51.4185 323.585 46.8614C323.585 42.3043 324.623 38.1167 326.701 34.2986C328.839 30.4189 331.711 27.3398 335.316 25.0612C338.92 22.7827 342.861 21.6434 347.138 21.6434C351.049 21.6434 354.195 22.3824 356.578 23.8604C359.022 25.3383 360.916 27.4629 362.26 30.2342V22.6595H374.541V70.6939H362.535V62.8421C361.13 65.7365 359.205 67.9842 356.761 69.5854C354.379 71.125 351.171 71.8947 347.138 71.8947ZM335.957 46.7691C335.957 49.2324 336.507 51.5417 337.607 53.6971C338.768 55.7909 340.326 57.4844 342.281 58.7777C344.297 60.0093 346.588 60.6251 349.155 60.6251C351.782 60.6251 354.104 60.0093 356.12 58.7777C358.197 57.546 359.786 55.8833 360.886 53.7895C361.985 51.6957 362.535 49.3863 362.535 46.8614C362.535 44.3366 361.985 42.0272 360.886 39.9334C359.786 37.778 358.197 36.0845 356.12 34.8528C354.104 33.5596 351.782 32.913 349.155 32.913C346.588 32.913 344.297 33.5596 342.281 34.8528C340.265 36.0845 338.707 37.7472 337.607 39.841C336.507 41.9348 335.957 44.2442 335.957 46.7691Z" fill="#004777"/>
<path d="M386.75 90C383.328 90 380.579 89.6921 378.501 89.0763L380.334 77.16C382.045 77.5911 383.909 77.8067 385.925 77.8067C388.186 77.8067 390.08 77.1293 391.607 75.7744C393.196 74.4812 394.357 72.7261 395.09 70.5091L395.731 68.4769L376.852 22.6595H391.791L401.047 50.0945C401.902 52.4347 402.575 54.9903 403.063 57.7616C403.552 54.9903 404.224 52.4347 405.08 50.0945L414.336 22.6595H429L407.921 73.7422C405.721 78.9767 402.941 82.9796 399.581 85.7508C396.281 88.5836 392.004 90 386.75 90Z" fill="#004777"/>
</svg>
