<svg width="391" height="184" viewBox="0 0 391 184" fill="none" xmlns="http://www.w3.org/2000/svg">
<path fill-rule="evenodd" clip-rule="evenodd" d="M0 92C0 142.81 87.5283 184 195.5 184C206.915 183.853 232.249 183.116 242.267 181.351C217.137 179.136 154.867 166.827 117.044 133.911C79.2222 100.996 93.4481 62.2704 105.289 47.0222C114.166 93.1363 165.4 103.557 207.097 112.038C208.611 112.346 210.113 112.651 211.6 112.956C245.538 119.907 341.397 116.107 385.778 113.211C389.983 107.282 391.012 96.6 391 92C391 41.1898 303.472 0 195.5 0C87.5283 0 0 41.1898 0 92ZM214.698 87.9111V49.2711L207.66 49.2251V41.1291H214.698V37.6331C214.698 34.9344 215.097 32.5118 215.894 30.3651C216.722 28.2184 217.887 26.3938 219.39 24.8911C220.923 23.3884 222.779 22.2385 224.956 21.4411C227.133 20.6438 229.587 20.2451 232.316 20.2451C234.493 20.2451 236.517 20.5364 238.388 21.1191L237.411 29.2611C237.296 29.238 237.17 29.2118 237.037 29.1839C236.205 29.0105 235.062 28.7724 234.248 28.8011C232.899 28.8011 231.687 28.9544 230.614 29.2611C229.571 29.5371 228.682 30.0431 227.946 30.7791C227.21 31.4844 226.643 32.4351 226.244 33.6311C225.876 34.7964 225.692 36.2531 225.692 38.0011V41.1291H237.974V49.2251H226.06V87.9111H214.698ZM272.817 51.5711C273.66 52.1333 274.467 52.9 274.467 52.9L279.901 46.5571C277.785 44.4411 275.393 42.8158 272.725 41.6811C270.088 40.5464 267.006 39.9791 263.479 39.9791C259.768 39.9791 256.487 40.5924 253.635 41.8191C250.783 43.0458 248.391 44.7478 246.459 46.9251C244.527 49.0718 243.055 51.6325 242.043 54.6071C241.062 57.5511 240.571 60.7558 240.571 64.2211C240.571 68.0851 241.123 71.5351 242.227 74.5711C243.362 77.5764 244.895 80.1218 246.827 82.2071C248.759 84.2925 251.013 85.8871 253.589 86.9911C256.165 88.0645 258.91 88.6011 261.823 88.6011C263.479 88.6011 265.135 88.4785 266.791 88.2331C268.478 87.9878 270.103 87.5738 271.667 86.9911C273.262 86.3778 274.795 85.5805 276.267 84.5991C277.739 83.5871 279.104 82.3451 280.361 80.8731C279.089 79.2613 274.978 74.8778 274.978 74.8778C274.978 74.8778 272.836 76.6667 271.115 77.8371C270.348 78.3584 269.398 78.8491 268.263 79.3091C267.159 79.7385 265.702 79.9531 263.893 79.9531C262.084 79.9531 260.458 79.6158 259.017 78.9411C257.576 78.2358 256.349 77.2238 255.337 75.9051C254.325 74.5558 253.543 72.8998 252.991 70.9371C252.47 68.9745 252.209 66.7358 252.209 64.2211C252.209 61.7985 252.454 59.6364 252.945 57.7351C253.436 55.8031 254.172 54.1624 255.153 52.8131C256.165 51.4638 257.422 50.4365 258.925 49.7311C260.428 48.9951 262.176 48.6271 264.169 48.6271C265.733 48.6271 267.036 48.8111 268.079 49.1791C269.152 49.5164 270.072 49.9151 270.839 50.3751C271.606 50.8045 272.265 51.2031 272.817 51.5711ZM200.12 87.9111V40.7151H188.758V74.8471C187.225 76.3804 185.6 77.5918 183.882 78.4811C182.165 79.3398 180.325 79.7691 178.362 79.7691C175.694 79.7691 173.686 78.9871 172.336 77.4231C171.018 75.8285 170.358 73.5898 170.358 70.7071V40.7151H158.996V70.7071C158.996 73.3445 159.334 75.7671 160.008 77.9751C160.714 80.1525 161.741 82.0385 163.09 83.6331C164.44 85.2278 166.096 86.4698 168.058 87.3591C170.052 88.2178 172.336 88.6471 174.912 88.6471C178.071 88.6471 180.816 88.0491 183.146 86.8531C185.477 85.6264 187.608 84.0318 189.54 82.0691L189.878 87.9111H200.12ZM328.389 87.9111V40.7151H317.027V74.8471C315.493 76.3804 313.868 77.5918 312.151 78.4811C310.433 79.3398 308.593 79.7691 306.631 79.7691C303.963 79.7691 301.954 78.9871 300.605 77.4231C299.286 75.8285 298.627 73.5898 298.627 70.7071V40.7151H287.265V70.7071C287.265 73.3445 287.602 75.7671 288.277 77.9751C288.982 80.1525 290.009 82.0385 291.359 83.6331C292.708 85.2278 294.364 86.4698 296.327 87.3591C298.32 88.2178 300.605 88.6471 303.181 88.6471C306.339 88.6471 309.084 88.0491 311.415 86.8531C313.745 85.6264 315.877 84.0318 317.809 82.0691L318.146 87.9111H328.389Z" fill="#F47A20"/>
</svg>
