<svg width="84" height="20" viewBox="0 0 84 20" fill="none" xmlns="http://www.w3.org/2000/svg">
<path d="M8.42795 18.4523C6.05688 18.4523 3.68581 18.4532 1.31474 18.4506C1.10591 18.4503 0.895373 18.4409 0.688832 18.4132C0.297748 18.3609 0.0797813 18.1335 0.0389304 17.745C0.0169337 17.5373 0.00207879 17.3276 0.00179312 17.1188C-0.000492246 14.3763 -0.000492246 11.6339 0.00122178 8.89146C0.00150745 8.65378 0.0292176 8.41553 0.0237898 8.17814C0.0135056 7.70249 0.240043 7.34369 0.569707 7.03631C1.5767 6.09702 2.58969 5.16402 3.59611 4.22388C4.72565 3.16832 5.84948 2.10677 6.97817 1.05035C7.27527 0.772397 7.57836 0.501009 7.88175 0.229907C8.22312 -0.0751894 8.6382 -0.0771891 8.9753 0.236192C10.4205 1.57828 11.8611 2.9255 13.3055 4.26844C14.2648 5.16031 15.2318 6.04389 16.1862 6.94089C16.3696 7.11315 16.5287 7.31855 16.6667 7.52966C16.8678 7.83733 16.8518 8.2027 16.8575 8.55065C16.871 9.36939 16.8624 10.1884 16.8624 11.0074C16.8624 13.0165 16.8644 15.0257 16.8601 17.0351C16.8595 17.2908 16.8353 17.547 16.8061 17.8015C16.769 18.1269 16.5519 18.3563 16.2236 18.4063C16.0082 18.4392 15.788 18.4506 15.5697 18.4509C13.1889 18.4534 10.8084 18.4523 8.42795 18.4523ZM8.45823 14.7991C9.8863 14.7991 11.3144 14.8 12.7424 14.7989C13.2529 14.7986 13.2532 14.7963 13.2535 14.3032C13.2535 12.6943 13.2506 11.0854 13.2569 9.47651C13.2578 9.26969 13.1972 9.12342 13.043 8.98087C11.5772 7.62736 10.1183 6.26614 8.65734 4.9072C8.44566 4.71037 8.40624 4.71152 8.19141 4.91291C6.80562 6.21215 5.4244 7.51624 4.03004 8.80576C3.75894 9.05658 3.63467 9.31854 3.63924 9.69477C3.65781 11.2177 3.64696 12.7412 3.64696 14.2644C3.64696 14.3406 3.64553 14.4169 3.65153 14.4926C3.66952 14.7209 3.72323 14.7771 3.94577 14.794C4.05004 14.802 4.15517 14.7989 4.25972 14.7989C5.65922 14.7994 7.05873 14.7994 8.45823 14.7991Z" fill="#141C1C"/>
<path d="M66.0977 6.6261C66.1902 6.51097 66.2793 6.39299 66.3753 6.28072C66.7861 5.80079 67.3192 5.51341 67.8985 5.2843C68.7398 4.95207 69.618 4.94464 70.4821 5.05119C71.5731 5.18574 72.5233 5.67024 73.2212 6.54782C73.5434 6.95319 73.7831 7.41541 73.9573 7.91105C74.2433 8.72464 74.3733 9.55708 74.3701 10.4192C74.3613 12.9331 74.367 15.4471 74.367 17.961C74.367 17.999 74.3673 18.0372 74.3667 18.0752C74.363 18.4206 74.3456 18.4466 73.9916 18.4483C73.0298 18.4532 72.0682 18.4532 71.1063 18.4489C70.737 18.4475 70.7118 18.4149 70.7118 18.0298C70.7113 15.735 70.7118 13.4399 70.711 11.1451C70.711 10.8786 70.7252 10.6095 70.6944 10.3458C70.6144 9.66593 70.3799 9.06402 69.796 8.64008C69.5343 8.44982 69.2343 8.35469 68.9358 8.30813C68.2659 8.20357 67.6094 8.26471 67.0332 8.67922C66.6896 8.92632 66.439 9.24513 66.2656 9.63564C66.0362 10.1513 65.9931 10.6866 65.996 11.2425C66.0074 13.4802 66.0008 15.7182 66.0008 17.9558C66.0008 18.0321 65.9942 18.1087 66.0014 18.1844C66.0197 18.374 65.9174 18.4403 65.748 18.444C65.6717 18.4457 65.5957 18.4509 65.5197 18.4509C64.6247 18.4515 63.7294 18.4515 62.8344 18.4509C62.7585 18.4509 62.6822 18.4466 62.6062 18.4446C62.4336 18.44 62.3405 18.3606 62.3491 18.1789C62.3531 18.0935 62.3479 18.0075 62.3479 17.9218C62.3479 13.8844 62.3479 9.84676 62.3477 5.80936C62.3477 5.22517 62.3534 5.3063 62.865 5.30373C63.7792 5.29944 64.6933 5.30144 65.6074 5.30315C65.9954 5.30401 65.9991 5.30944 66.0002 5.70795C66.0014 5.99191 66.0005 6.27558 66.0005 6.55954C66.0331 6.58211 66.0654 6.6041 66.0977 6.6261Z" fill="#141C1C"/>
<path d="M29.1006 13.9566C29.3608 13.247 29.6002 12.6151 29.8242 11.9778C30.0236 11.4101 30.1984 10.8342 30.3978 10.2666C30.5966 9.70011 30.8177 9.14133 31.0188 8.57513C31.1785 8.12549 31.3162 7.66841 31.4748 7.21848C31.6279 6.78483 31.795 6.35633 31.957 5.92611C32.0133 5.77699 32.0884 5.63272 32.1264 5.47932C32.167 5.3162 32.2758 5.3042 32.4052 5.3042C32.6337 5.3042 32.8623 5.30306 33.0905 5.30306C33.9284 5.30277 34.766 5.30277 35.6039 5.30334C35.6896 5.30334 35.7758 5.3002 35.8607 5.3082C36.0369 5.32477 36.0695 5.3699 36.0112 5.52331C35.8804 5.86611 35.7458 6.20721 35.611 6.5483C35.4102 7.05565 35.2088 7.56272 35.0057 8.0695C34.7957 8.5937 34.5812 9.1162 34.3732 9.64126C34.1721 10.1492 33.9795 10.6608 33.7787 11.169C33.5296 11.7992 33.2734 12.4263 33.0251 13.0567C32.8257 13.5632 32.6352 14.0734 32.4372 14.5808C32.2458 15.0716 32.0504 15.5609 31.8567 16.0506C31.6913 16.4688 31.5256 16.887 31.3594 17.305C31.2242 17.6446 31.0914 17.9851 30.948 18.3214C30.9269 18.3708 30.8569 18.4151 30.8009 18.4305C30.72 18.4525 30.6312 18.4505 30.5458 18.4508C29.5939 18.4519 28.6418 18.4536 27.6899 18.4502C27.2997 18.4488 27.284 18.4214 27.1417 18.0508C26.9435 17.5341 26.7272 17.0241 26.5235 16.5094C26.3201 15.9952 26.1264 15.4769 25.9225 14.963C25.6836 14.3611 25.4374 13.7621 25.1966 13.161C24.9943 12.6565 24.7958 12.1506 24.5952 11.6455C24.4393 11.2527 24.2824 10.8602 24.1265 10.4674C23.9222 9.95264 23.7182 9.43758 23.5143 8.92251C23.3203 8.4323 23.1272 7.9418 22.9318 7.45216C22.7224 6.92824 22.5101 6.40518 22.3004 5.88154C22.2513 5.75927 22.197 5.63786 22.1625 5.51131C22.1288 5.3879 22.1787 5.30734 22.3202 5.30706C22.4059 5.30706 22.4916 5.30363 22.577 5.30363C23.5671 5.30334 24.557 5.30334 25.5471 5.30334C26.0747 5.30334 26.0653 5.30649 26.2253 5.79784C26.391 6.30748 26.5809 6.80883 26.7538 7.31618C26.9475 7.88467 27.1271 8.45772 27.3248 9.0245C27.5259 9.60184 27.7459 10.1726 27.9493 10.7494C28.1059 11.193 28.2475 11.6421 28.399 12.0877C28.5018 12.3906 28.6095 12.6914 28.7158 12.993C28.7875 13.1964 28.8572 13.4007 28.9343 13.6021C28.974 13.7046 29.0277 13.8018 29.1006 13.9566Z" fill="#141C1C"/>
<path d="M48.7204 13.9058C48.8095 13.6847 48.9049 13.4655 48.9866 13.2416C49.1155 12.8888 49.2372 12.5331 49.358 12.1775C49.5091 11.7321 49.6517 11.2839 49.8068 10.8402C49.9211 10.5137 50.0542 10.1938 50.1707 9.8678C50.2782 9.56699 50.3719 9.26132 50.4764 8.95937C50.5933 8.62256 50.7178 8.28832 50.8352 7.9518C50.9401 7.65156 51.0372 7.34847 51.1426 7.04823C51.3077 6.57858 51.5185 6.12008 51.6305 5.63815C51.7111 5.29106 51.9048 5.29992 52.1624 5.30135C53.2191 5.30735 54.2761 5.30277 55.3328 5.30477C55.6533 5.30535 55.6985 5.39133 55.5785 5.68043C55.3588 6.21035 55.1546 6.74684 54.942 7.27991C54.7501 7.76155 54.5552 8.24233 54.3618 8.72369C54.155 9.23875 53.949 9.7541 53.7408 10.2686C53.5325 10.7834 53.3194 11.2959 53.1129 11.8112C52.9135 12.3094 52.7218 12.8111 52.5235 13.3099C52.2699 13.9478 52.0096 14.5828 51.7579 15.2216C51.5585 15.7278 51.3706 16.2386 51.1729 16.7453C50.9849 17.227 50.7964 17.7086 50.5973 18.1857C50.5253 18.3582 50.4039 18.4579 50.185 18.4554C49.2046 18.4431 48.2233 18.4337 47.2435 18.4582C46.8715 18.4676 46.819 18.2111 46.7233 17.9774C46.403 17.1964 46.0891 16.4128 45.7794 15.6275C45.5349 15.0073 45.3055 14.3811 45.0592 13.7615C44.8164 13.1513 44.5562 12.548 44.3128 11.9378C44.1111 11.4324 43.9265 10.9202 43.7277 10.4137C43.5803 10.0378 43.4192 9.66726 43.2701 9.29189C43.0615 8.76797 42.8604 8.2409 42.6525 7.7167C42.5002 7.33218 42.3414 6.94995 42.1871 6.56601C42.0434 6.20807 41.9 5.84984 41.7614 5.4896C41.7246 5.39362 41.7534 5.31877 41.8717 5.31106C41.9477 5.3062 42.024 5.3042 42.1 5.3042C43.1472 5.30392 44.1945 5.30335 45.2418 5.3042C45.6183 5.30449 45.6503 5.33934 45.7746 5.70843C45.9394 6.19807 46.1219 6.68171 46.2902 7.16992C46.4462 7.62242 46.5867 8.08036 46.7461 8.53172C46.9469 9.09935 47.1646 9.66097 47.3666 10.228C47.5246 10.6717 47.6651 11.1216 47.8217 11.5661C48.0185 12.1252 48.2245 12.6814 48.4253 13.2393C48.5019 13.4518 48.5747 13.6661 48.6493 13.8795C48.6733 13.8881 48.697 13.8969 48.7204 13.9058Z" fill="#141C1C"/>
<path d="M77.1688 12.1266C77.1688 11.1744 77.1697 10.2223 77.1682 9.27016C77.1679 8.95649 77.1637 8.95164 76.8486 8.95021C76.3249 8.94764 75.8013 8.95164 75.2777 8.94792C75.0214 8.94621 75.0028 8.92935 75.0023 8.66825C74.9991 7.64955 74.9991 6.63084 75.002 5.61186C75.0028 5.33618 75.0348 5.30704 75.3222 5.30447C75.8364 5.30019 76.3506 5.30504 76.8646 5.30076C77.1608 5.29847 77.1674 5.2899 77.1679 4.99166C77.1694 3.94439 77.1679 2.89712 77.1691 1.84957C77.1694 1.50647 77.1711 1.50419 77.5193 1.50362C78.4715 1.50248 79.4236 1.50219 80.3757 1.50362C80.7286 1.50419 80.7483 1.52219 80.7491 1.87613C80.7517 2.82828 80.7503 3.78042 80.7505 4.73256C80.7505 4.81826 80.748 4.90425 80.7525 4.98966C80.7671 5.25934 80.8051 5.29905 81.0808 5.30076C81.6807 5.30419 82.2803 5.30219 82.8802 5.30247C83.0802 5.30247 83.2802 5.30219 83.4801 5.30247C83.9892 5.30333 83.9983 5.31104 83.9992 5.83496C84.0006 6.63484 83.9998 7.43444 83.9995 8.23432C83.9995 8.35801 84.0018 8.48199 83.9961 8.60569C83.9815 8.9165 83.9506 8.94792 83.6438 8.94849C82.806 8.95021 81.9681 8.94849 81.1302 8.94964C80.7888 8.95021 80.7523 8.9822 80.7517 9.32529C80.7494 10.7725 80.746 12.2197 80.7557 13.6669C80.7577 13.9697 80.7905 14.2771 80.8505 14.5739C80.9185 14.9107 81.1571 15.1236 81.4687 15.2581C81.7461 15.3778 82.0381 15.3944 82.3337 15.3921C82.6288 15.3898 82.9245 15.3967 83.219 15.3801C83.3779 15.371 83.5344 15.3212 83.6918 15.2892C83.8935 15.2484 83.9541 15.2864 83.9863 15.4861C83.9983 15.5606 83.9986 15.6378 83.9986 15.714C83.9995 16.3805 84.0012 17.047 83.9981 17.7135C83.9963 18.1043 83.9709 18.1371 83.6015 18.2648C83.1433 18.4233 82.6748 18.5296 82.1866 18.5413C82.0643 18.5442 81.9432 18.5882 81.821 18.591C81.519 18.5979 81.2168 18.5962 80.9148 18.5888C80.802 18.5859 80.6903 18.5482 80.5774 18.5413C79.867 18.4988 79.2476 18.2339 78.6706 17.8237C78.1201 17.4321 77.7319 16.9164 77.4999 16.3028C77.3379 15.874 77.2154 15.4084 77.1931 14.9536C77.1468 14.0134 77.1791 13.0693 77.1791 12.1266C77.1759 12.1266 77.1722 12.1266 77.1688 12.1266Z" fill="#141C1C"/>
<path d="M60.3182 11.8676C60.3182 13.8765 60.3182 15.8856 60.318 17.8944C60.318 17.999 60.3168 18.1038 60.312 18.2084C60.3062 18.3321 60.2345 18.3995 60.1154 18.4135C60.04 18.4221 59.9634 18.4215 59.8874 18.4215C58.9544 18.4221 58.0214 18.4226 57.0882 18.4215C56.6745 18.4209 56.6728 18.4186 56.6728 18.0101C56.6725 14.297 56.6725 10.5838 56.6725 6.87066C56.6725 6.47072 56.6705 6.07078 56.6736 5.67113C56.6759 5.35375 56.7039 5.32147 57.0147 5.32061C58.0049 5.31747 58.995 5.31775 59.9851 5.32061C60.2991 5.32147 60.3171 5.34204 60.3174 5.66999C60.3188 7.38373 60.3182 9.09747 60.3182 10.8112C60.3182 11.1632 60.3182 11.5154 60.3182 11.8676Z" fill="#141C1C"/>
<path d="M37.1169 11.8659C37.1169 9.8962 37.1169 7.92678 37.1169 5.95708C37.1169 5.88109 37.1166 5.80482 37.1169 5.72883C37.1186 5.33089 37.1289 5.31918 37.5406 5.31803C38.1591 5.31632 38.7775 5.31746 39.396 5.31775C39.7291 5.31803 40.0622 5.31346 40.395 5.32146C40.633 5.32717 40.6698 5.37203 40.6798 5.61285C40.6827 5.67941 40.6807 5.74597 40.6807 5.81253C40.6807 9.86592 40.6807 13.9193 40.6807 17.9727C40.6807 18.4201 40.6804 18.4203 40.2259 18.4206C39.322 18.4209 38.4179 18.4212 37.514 18.4203C37.1178 18.4201 37.1166 18.4186 37.1166 18.0318C37.1166 15.9764 37.1169 13.921 37.1169 11.8659Z" fill="#141C1C"/>
<path d="M60.6309 2.18861C60.7117 3.37957 59.6147 4.37828 58.4812 4.34257C57.2291 4.30314 56.3358 3.42671 56.3167 2.16661C56.2992 1.0225 57.2131 0.0135068 58.542 8.0288e-05C59.579 -0.0102039 60.7243 0.968791 60.6309 2.18861Z" fill="#141C1C"/>
<path d="M38.9127 0.0130134C40.0768 -0.0669745 41.0992 1.04686 41.071 2.1964C41.0407 3.43164 40.0908 4.34665 38.8879 4.3415C37.7129 4.33665 36.751 3.40936 36.7233 2.16897C36.6988 1.07457 37.7246 -0.0586901 38.9127 0.0130134Z" fill="#141C1C"/>
<path d="M20.0381 18.4192C18.8489 18.4989 17.8399 17.3957 17.8627 16.281C17.8885 15.0269 18.8069 14.1107 20.0481 14.0993C21.2077 14.0887 22.1761 14.964 22.1987 16.3044C22.2169 17.3925 21.2565 18.4946 20.0381 18.4192Z" fill="#141C1C"/>
</svg>
