<svg width="184" height="184" viewBox="0 0 184 184" fill="none" xmlns="http://www.w3.org/2000/svg">
<rect width="184" height="184" fill="#00AA45"/>
<path fill-rule="evenodd" clip-rule="evenodd" d="M148.371 78.0915C146.578 71.1269 143.32 64.6227 138.815 59.011C134.295 53.4486 128.721 48.8286 122.413 45.4145C115.831 41.8157 108.696 39.3293 101.3 38.0562C93.9722 36.7437 86.477 36.6538 79.1198 37.7901C72.038 38.8398 65.2376 41.2906 59.1177 44.9987C53.011 48.7627 47.7594 53.7583 43.6994 59.6653C39.4137 65.7944 36.5209 73.1158 35.0207 81.6293C33.4946 90.2721 33.6798 98.2348 35.5763 105.517C37.3558 112.518 40.5721 119.074 45.0217 124.77C49.478 130.392 55.0099 135.074 61.2957 138.544C74.4822 145.847 89.7404 148.529 104.634 146.163C111.754 145.042 118.586 142.538 124.741 138.793C130.916 134.989 136.217 129.927 140.298 123.938C144.591 117.746 147.503 110.329 149.033 101.686C150.514 93.1759 150.294 85.3112 148.371 78.0915ZM116.196 91.2721C116.567 91.3828 116.91 91.5696 117.204 91.8205C117.499 92.0713 117.737 92.3808 117.904 92.729C118.072 93.0772 118.164 93.4565 118.176 93.8425C118.188 94.2285 118.119 94.6128 117.974 94.9706C113.812 105.395 101.2 113.707 87.7707 109.704C73.2192 105.362 65.8795 94.1777 68.1853 80.2485C68.2479 79.8586 68.3932 79.4865 68.6115 79.1571C68.8298 78.8278 69.116 78.5488 69.4511 78.3388C69.7862 78.1288 70.1624 77.9926 70.5545 77.9395C70.9466 77.8863 71.3455 77.9173 71.7246 78.0305L116.196 91.2721Z" fill="white"/>
</svg>
